{"glyphs":{"0":{"ha":1010,"x_min":0,"x_max":0,"o":"m 506 -15 b 929 490 782 -15 929 200 b 506 994 929 779 782 994 b 81 490 228 994 81 779 b 506 -15 81 200 228 -15 z m 207 490 b 506 886 207 724 307 886 b 701 810 588 886 653 858 l 249 263 b 207 490 221 325 207 403 z m 308 172 l 763 717 b 803 490 789 654 803 578 b 506 93 803 254 704 93 b 308 172 422 93 357 121 z "},"1":{"ha":681,"x_min":0,"x_max":0,"o":"m 69 549 l 108 442 b 447 911 357 518 428 704 l 447 0 l 574 0 l 574 979 l 364 979 b 69 549 358 783 282 624 z "},"2":{"ha":933,"x_min":0,"x_max":0,"o":"m 72 510 l 197 510 b 494 886 197 790 321 886 b 725 663 646 886 725 806 b 86 201 725 332 242 214 l 86 0 l 851 0 l 851 108 l 154 108 b 851 663 538 175 851 351 b 494 994 851 879 707 994 b 72 510 258 994 72 861 z "},"3":{"ha":942,"x_min":0,"x_max":0,"o":"m 203 374 l 78 374 b 486 -15 78 99 235 -15 b 858 275 721 -15 858 89 b 679 515 858 408 781 489 b 844 735 786 539 844 629 b 486 994 844 889 721 994 b 92 657 235 994 92 881 l 217 657 b 479 886 217 811 299 886 b 719 710 653 886 719 814 b 550 567 719 624 664 567 l 414 567 l 414 463 l 550 463 b 733 292 664 463 733 400 b 482 93 733 163 653 93 b 203 374 299 93 203 167 z "},"4":{"ha":925,"x_min":0,"x_max":0,"o":"m 604 661 l 604 318 l 131 318 b 643 979 457 463 608 696 l 518 979 b 83 417 490 707 308 508 l 83 211 l 604 211 l 604 0 l 729 0 l 729 211 l 853 211 l 853 318 l 729 318 l 729 661 z "},"5":{"ha":983,"x_min":0,"x_max":0,"o":"m 486 -15 b 897 360 742 -15 897 126 b 551 697 897 572 768 697 b 231 542 392 697 290 636 l 285 874 l 826 874 l 826 979 l 182 979 l 110 546 l 247 476 b 515 596 294 543 375 596 b 774 357 679 596 774 511 b 488 90 774 189 669 90 b 207 347 311 90 207 181 l 83 347 b 486 -15 83 110 247 -15 z "},"6":{"ha":960,"x_min":0,"x_max":0,"o":"m 499 -15 b 882 351 739 -15 882 132 b 525 694 882 549 743 694 b 199 517 361 694 249 626 b 543 871 217 718 306 871 l 810 871 l 810 979 l 554 979 b 85 450 182 979 85 747 b 499 -15 85 143 240 -15 z m 211 349 b 497 592 211 496 322 592 b 756 347 658 592 756 494 b 493 93 756 188 663 93 b 211 349 307 93 211 214 z "},"7":{"ha":817,"x_min":0,"x_max":0,"o":"m 200 0 l 332 0 b 771 808 332 401 478 660 l 771 979 l 47 979 l 47 871 l 725 871 b 200 0 382 701 200 428 z "},"8":{"ha":933,"x_min":0,"x_max":0,"o":"m 467 -15 b 871 276 721 -15 871 94 b 640 539 871 408 783 501 b 815 753 746 569 815 646 b 468 993 815 928 660 993 b 119 753 276 993 119 928 b 293 539 119 646 188 571 b 64 278 147 501 64 408 b 467 -15 64 93 215 -15 z m 192 289 b 468 486 192 407 276 486 b 743 289 657 486 743 407 b 468 92 743 169 657 92 b 192 289 276 92 192 169 z m 247 739 b 468 889 247 851 328 889 b 688 739 606 889 688 851 b 468 589 688 625 606 589 b 247 739 328 589 247 625 z "},"9":{"ha":960,"x_min":0,"x_max":0,"o":"m 461 994 b 78 628 221 994 78 847 b 435 285 78 431 217 285 b 761 463 599 285 711 353 b 417 108 743 261 654 108 l 150 108 l 150 0 l 406 0 b 875 529 778 0 875 232 b 461 994 875 836 719 994 z m 204 632 b 467 886 204 792 297 886 b 749 631 653 886 749 765 b 463 388 749 483 638 388 b 204 632 301 388 204 485 z "}," ":{"ha":454,"x_min":0,"x_max":0,"o":""}," ":{"ha":454,"x_min":0,"x_max":0,"o":""},"A":{"ha":969,"x_min":0,"x_max":0,"o":"m 38 0 l 168 0 l 296 375 l 674 375 l 800 0 l 932 0 l 599 979 l 372 979 z m 332 483 l 485 932 l 636 483 z "},"Á":{"ha":969,"x_min":0,"x_max":0,"o":"m 38 0 l 168 0 l 296 375 l 674 375 l 800 0 l 932 0 l 599 979 l 372 979 z m 251 1183 l 275 1089 l 711 1200 l 688 1294 z m 332 483 l 485 932 l 636 483 z "},"Ă":{"ha":969,"x_min":0,"x_max":0,"o":"m 38 0 l 168 0 l 296 375 l 674 375 l 800 0 l 932 0 l 599 979 l 372 979 z m 264 1313 b 485 1069 264 1171 344 1069 b 706 1313 625 1069 706 1171 l 606 1313 b 485 1165 606 1210 571 1165 b 364 1313 399 1165 364 1210 z m 332 483 l 485 932 l 636 483 z "},"Â":{"ha":969,"x_min":0,"x_max":0,"o":"m 38 0 l 168 0 l 296 375 l 674 375 l 800 0 l 932 0 l 599 979 l 372 979 z m 253 1135 l 324 1065 l 485 1196 l 644 1065 l 715 1135 l 485 1319 z m 332 483 l 485 932 l 636 483 z "},"Ä":{"ha":969,"x_min":0,"x_max":0,"o":"m 38 0 l 168 0 l 296 375 l 674 375 l 800 0 l 932 0 l 599 979 l 372 979 z m 239 1185 b 339 1088 239 1129 282 1088 b 442 1185 397 1088 442 1129 b 339 1282 442 1240 397 1282 b 239 1185 282 1282 239 1240 z m 332 483 l 485 932 l 636 483 z m 525 1185 b 626 1088 525 1129 568 1088 b 729 1185 683 1088 729 1129 b 626 1282 729 1240 683 1282 b 525 1185 568 1282 525 1240 z "},"À":{"ha":969,"x_min":0,"x_max":0,"o":"m 38 0 l 168 0 l 296 375 l 674 375 l 800 0 l 932 0 l 599 979 l 372 979 z m 257 1200 l 693 1089 l 717 1183 l 281 1294 z m 332 483 l 485 932 l 636 483 z "},"Ā":{"ha":969,"x_min":0,"x_max":0,"o":"m 38 0 l 168 0 l 296 375 l 674 375 l 800 0 l 932 0 l 599 979 l 372 979 z m 254 1143 l 715 1144 l 715 1243 l 254 1243 z m 332 483 l 485 932 l 636 483 z "},"Ą":{"ha":969,"x_min":0,"x_max":0,"o":"m 38 0 l 168 0 l 296 375 l 674 375 l 800 0 l 819 0 l 742 -147 b 817 -268 704 -212 742 -268 l 1089 -268 l 1089 -168 l 838 -169 l 922 0 l 932 0 l 599 979 l 372 979 z m 332 483 l 485 932 l 636 483 z "},"Å":{"ha":969,"x_min":0,"x_max":0,"o":"m 38 0 l 168 0 l 296 375 l 674 375 l 800 0 l 932 0 l 599 979 l 372 979 z m 314 1218 b 482 1065 314 1135 374 1065 b 653 1218 590 1065 653 1136 b 482 1369 653 1300 590 1369 b 314 1218 374 1369 314 1300 z m 332 483 l 485 932 l 636 483 z m 410 1218 b 482 1281 410 1257 436 1281 b 557 1218 529 1281 557 1257 b 482 1153 557 1178 531 1153 b 410 1218 436 1153 410 1178 z "},"Ã":{"ha":969,"x_min":0,"x_max":0,"o":"m 38 0 l 168 0 l 296 375 l 674 375 l 800 0 l 932 0 l 599 979 l 372 979 z m 226 1108 l 326 1108 b 382 1206 326 1192 351 1206 b 594 1094 443 1206 478 1094 b 742 1290 681 1094 742 1150 l 643 1290 b 586 1193 643 1207 617 1193 b 374 1304 525 1193 492 1304 b 226 1108 288 1304 226 1249 z m 332 483 l 485 932 l 636 483 z "},"Æ":{"ha":1439,"x_min":0,"x_max":0,"o":"m -8 0 l 131 0 l 356 379 l 685 379 l 685 0 l 1365 0 l 1365 108 l 811 108 l 811 438 l 1296 438 l 1296 543 l 811 543 l 811 871 l 1365 871 l 1365 979 l 571 979 z m 418 486 l 685 935 l 685 486 z "},"B":{"ha":960,"x_min":0,"x_max":0,"o":"m 100 0 l 489 0 b 882 261 729 0 882 61 b 636 517 882 418 781 501 b 810 740 728 535 810 610 b 431 979 810 932 672 979 l 100 979 z m 226 106 l 226 460 l 493 460 b 756 282 656 460 756 424 b 493 106 756 131 657 106 z m 226 560 l 226 876 l 436 876 b 685 718 590 876 685 867 b 436 560 685 581 589 560 z "},"C":{"ha":1072,"x_min":0,"x_max":0,"o":"m 544 -15 b 992 379 797 -15 963 135 l 865 379 b 544 94 843 200 731 94 b 208 490 324 94 208 257 b 544 885 208 722 324 885 b 865 601 731 885 843 781 l 992 601 b 544 994 963 844 797 994 b 81 490 253 994 81 776 b 544 -15 81 203 253 -15 z "},"Ć":{"ha":1072,"x_min":0,"x_max":0,"o":"m 544 -15 b 992 379 797 -15 963 135 l 865 379 b 544 94 843 200 731 94 b 208 490 324 94 208 257 b 544 885 208 722 324 885 b 865 601 731 885 843 781 l 992 601 b 544 994 963 844 797 994 b 81 490 253 994 81 776 b 544 -15 81 203 253 -15 z m 303 1183 l 326 1089 l 763 1200 l 739 1294 z "},"Č":{"ha":1072,"x_min":0,"x_max":0,"o":"m 544 -15 b 992 379 797 -15 963 135 l 865 379 b 544 94 843 200 731 94 b 208 490 324 94 208 257 b 544 885 208 722 324 885 b 865 601 731 885 843 781 l 992 601 b 544 994 963 844 797 994 b 81 490 253 994 81 776 b 544 -15 81 203 253 -15 z m 304 1253 l 536 1068 l 767 1253 l 696 1321 l 536 1190 l 375 1321 z "},"Ç":{"ha":1072,"x_min":0,"x_max":0,"o":"m 403 -171 l 403 -260 b 701 -136 579 -260 701 -247 b 608 -58 701 -79 656 -58 b 513 -79 571 -58 539 -68 l 576 -14 b 992 379 811 -3 964 144 l 865 379 b 544 94 843 200 731 94 b 208 490 324 94 208 257 b 544 885 208 722 324 885 b 865 601 731 885 843 781 l 992 601 b 544 994 963 844 797 994 b 81 490 253 994 81 776 b 472 -11 81 228 225 22 l 422 -74 l 474 -136 b 571 -100 524 -106 546 -100 b 603 -128 590 -100 603 -110 b 403 -171 603 -172 531 -171 z "},"Ĉ":{"ha":1072,"x_min":0,"x_max":0,"o":"m 544 -15 b 992 379 797 -15 963 135 l 865 379 b 544 94 843 200 731 94 b 208 490 324 94 208 257 b 544 885 208 722 324 885 b 865 601 731 885 843 781 l 992 601 b 544 994 963 844 797 994 b 81 490 253 994 81 776 b 544 -15 81 203 253 -15 z m 304 1135 l 375 1065 l 536 1196 l 696 1065 l 767 1135 l 536 1319 z "},"Ċ":{"ha":1072,"x_min":0,"x_max":0,"o":"m 544 -15 b 992 379 797 -15 963 135 l 865 379 b 544 94 843 200 731 94 b 208 490 324 94 208 257 b 544 885 208 722 324 885 b 865 601 731 885 843 781 l 992 601 b 544 994 963 844 797 994 b 81 490 253 994 81 776 b 544 -15 81 203 253 -15 z m 436 1190 b 533 1097 436 1136 479 1097 b 633 1190 589 1097 633 1136 b 533 1283 633 1244 589 1283 b 436 1190 479 1283 436 1244 z "},"D":{"ha":992,"x_min":0,"x_max":0,"o":"m 100 0 l 415 0 b 911 490 657 0 911 68 b 415 979 911 911 657 979 l 100 979 z m 226 108 l 226 871 l 415 871 b 785 490 588 871 785 843 b 415 108 785 136 589 108 z "},"Ð":{"ha":1017,"x_min":0,"x_max":0,"o":"m 122 0 l 438 0 b 933 490 679 0 933 68 b 438 979 933 911 679 979 l 122 979 l 122 539 l 0 539 l 0 439 l 122 439 z m 249 108 l 249 439 l 490 439 l 490 539 l 249 539 l 249 871 l 438 871 b 807 490 610 871 807 843 b 438 108 807 136 611 108 z "},"Ď":{"ha":992,"x_min":0,"x_max":0,"o":"m 100 0 l 415 0 b 911 490 657 0 911 68 b 415 979 911 911 657 979 l 100 979 z m 185 1253 l 417 1068 l 647 1253 l 576 1321 l 417 1190 l 256 1321 z m 226 108 l 226 871 l 415 871 b 785 490 588 871 785 843 b 415 108 785 136 589 108 z "},"Đ":{"ha":1017,"x_min":0,"x_max":0,"o":"m 122 0 l 438 0 b 933 490 679 0 933 68 b 438 979 933 911 679 979 l 122 979 l 122 539 l 0 539 l 0 439 l 122 439 z m 249 108 l 249 439 l 490 439 l 490 539 l 249 539 l 249 871 l 438 871 b 807 490 610 871 807 843 b 438 108 807 136 611 108 z "},"E":{"ha":853,"x_min":0,"x_max":0,"o":"m 100 0 l 781 0 l 781 108 l 226 108 l 226 438 l 711 438 l 711 543 l 226 543 l 226 871 l 781 871 l 781 979 l 100 979 z "},"É":{"ha":853,"x_min":0,"x_max":0,"o":"m 100 0 l 781 0 l 781 108 l 226 108 l 226 438 l 711 438 l 711 543 l 226 543 l 226 871 l 781 871 l 781 979 l 100 979 z m 176 1183 l 200 1089 l 636 1200 l 613 1294 z "},"Ě":{"ha":853,"x_min":0,"x_max":0,"o":"m 100 0 l 781 0 l 781 108 l 226 108 l 226 438 l 711 438 l 711 543 l 226 543 l 226 871 l 781 871 l 781 979 l 100 979 z m 178 1253 l 410 1068 l 640 1253 l 569 1321 l 410 1190 l 249 1321 z "},"Ê":{"ha":853,"x_min":0,"x_max":0,"o":"m 100 0 l 781 0 l 781 108 l 226 108 l 226 438 l 711 438 l 711 543 l 226 543 l 226 871 l 781 871 l 781 979 l 100 979 z m 178 1135 l 249 1065 l 410 1196 l 569 1065 l 640 1135 l 410 1319 z "},"Ë":{"ha":853,"x_min":0,"x_max":0,"o":"m 100 0 l 781 0 l 781 108 l 226 108 l 226 438 l 711 438 l 711 543 l 226 543 l 226 871 l 781 871 l 781 979 l 100 979 z m 165 1185 b 265 1088 165 1129 208 1088 b 368 1185 324 1088 368 1129 b 265 1282 368 1240 324 1282 b 165 1185 208 1282 165 1240 z m 451 1185 b 553 1088 451 1129 494 1088 b 656 1185 610 1088 656 1129 b 553 1282 656 1240 610 1282 b 451 1185 494 1282 451 1240 z "},"Ė":{"ha":853,"x_min":0,"x_max":0,"o":"m 100 0 l 781 0 l 781 108 l 226 108 l 226 438 l 711 438 l 711 543 l 226 543 l 226 871 l 781 871 l 781 979 l 100 979 z m 310 1190 b 407 1097 310 1136 353 1097 b 507 1190 463 1097 507 1136 b 407 1283 507 1244 463 1283 b 310 1190 353 1283 310 1244 z "},"È":{"ha":853,"x_min":0,"x_max":0,"o":"m 100 0 l 781 0 l 781 108 l 226 108 l 226 438 l 711 438 l 711 543 l 226 543 l 226 871 l 781 871 l 781 979 l 100 979 z m 182 1200 l 618 1089 l 642 1183 l 206 1294 z "},"Ē":{"ha":853,"x_min":0,"x_max":0,"o":"m 100 0 l 781 0 l 781 108 l 226 108 l 226 438 l 711 438 l 711 543 l 226 543 l 226 871 l 781 871 l 781 979 l 100 979 z m 179 1143 l 640 1144 l 640 1243 l 179 1243 z "},"Ę":{"ha":853,"x_min":0,"x_max":0,"o":"m 100 0 l 481 0 l 403 -147 b 478 -268 365 -212 403 -268 l 750 -268 l 750 -168 l 499 -169 l 583 0 l 781 0 l 781 108 l 226 108 l 226 438 l 711 438 l 711 543 l 226 543 l 226 871 l 781 871 l 781 979 l 100 979 z "},"Ẽ":{"ha":853,"x_min":0,"x_max":0,"o":"m 100 0 l 781 0 l 781 108 l 226 108 l 226 438 l 711 438 l 711 543 l 226 543 l 226 871 l 781 871 l 781 979 l 100 979 z m 153 1108 l 253 1108 b 308 1206 253 1192 278 1206 b 521 1094 369 1206 404 1094 b 668 1290 607 1094 668 1150 l 569 1290 b 513 1193 569 1207 543 1193 b 300 1304 451 1193 418 1304 b 153 1108 214 1304 153 1249 z "},"Ə":{"ha":1064,"x_min":0,"x_max":0,"o":"m 536 -6 b 983 481 808 -6 983 172 b 513 989 983 765 832 989 b 83 642 249 989 125 819 l 208 642 b 513 883 244 788 349 883 b 857 522 743 883 849 731 l 81 522 l 81 461 b 536 -6 81 167 263 -6 z m 211 426 l 857 426 b 536 100 849 221 719 100 b 211 426 344 100 214 218 z "},"F":{"ha":821,"x_min":0,"x_max":0,"o":"m 100 0 l 226 0 l 226 413 l 689 413 l 689 519 l 226 519 l 226 871 l 750 871 l 750 979 l 100 979 z "},"G":{"ha":1103,"x_min":0,"x_max":0,"o":"m 521 -15 b 871 196 751 -15 843 111 l 871 0 l 997 0 l 997 444 b 910 526 997 499 969 526 l 489 526 l 489 429 l 868 429 b 546 93 875 211 761 93 b 208 478 300 93 208 267 b 551 886 208 722 328 886 b 849 629 719 886 826 792 l 976 629 b 547 994 944 856 785 994 b 81 481 251 994 81 789 b 521 -15 81 199 224 -15 z "},"Ğ":{"ha":1103,"x_min":0,"x_max":0,"o":"m 521 -15 b 871 196 751 -15 843 111 l 871 0 l 997 0 l 997 444 b 910 526 997 499 969 526 l 489 526 l 489 429 l 868 429 b 546 93 875 211 761 93 b 208 478 300 93 208 267 b 551 886 208 722 328 886 b 849 629 719 886 826 792 l 976 629 b 547 994 944 856 785 994 b 81 481 251 994 81 789 b 521 -15 81 199 224 -15 z m 322 1313 b 543 1069 322 1171 403 1069 b 764 1313 683 1069 764 1171 l 664 1313 b 543 1165 664 1210 629 1165 b 422 1313 457 1165 422 1210 z "},"Ĝ":{"ha":1103,"x_min":0,"x_max":0,"o":"m 521 -15 b 871 196 751 -15 843 111 l 871 0 l 997 0 l 997 444 b 910 526 997 499 969 526 l 489 526 l 489 429 l 868 429 b 546 93 875 211 761 93 b 208 478 300 93 208 267 b 551 886 208 722 328 886 b 849 629 719 886 826 792 l 976 629 b 547 994 944 856 785 994 b 81 481 251 994 81 789 b 521 -15 81 199 224 -15 z m 311 1135 l 382 1065 l 543 1196 l 703 1065 l 774 1135 l 543 1319 z "},"Ģ":{"ha":1103,"x_min":0,"x_max":0,"o":"m 521 -15 b 871 196 751 -15 843 111 l 871 0 l 997 0 l 997 444 b 910 526 997 499 969 526 l 489 526 l 489 429 l 868 429 b 546 93 875 211 761 93 b 208 478 300 93 208 267 b 551 886 208 722 328 886 b 849 629 719 886 826 792 l 976 629 b 547 994 944 856 785 994 b 81 481 251 994 81 789 b 521 -15 81 199 224 -15 z m 385 -299 l 490 -328 l 565 -99 l 460 -68 z "},"Ġ":{"ha":1103,"x_min":0,"x_max":0,"o":"m 521 -15 b 871 196 751 -15 843 111 l 871 0 l 997 0 l 997 444 b 910 526 997 499 969 526 l 489 526 l 489 429 l 868 429 b 546 93 875 211 761 93 b 208 478 300 93 208 267 b 551 886 208 722 328 886 b 849 629 719 886 826 792 l 976 629 b 547 994 944 856 785 994 b 81 481 251 994 81 789 b 521 -15 81 199 224 -15 z m 443 1190 b 540 1097 443 1136 486 1097 b 640 1190 596 1097 640 1136 b 540 1283 640 1244 596 1283 b 443 1190 486 1283 443 1244 z "},"Ḡ":{"ha":1103,"x_min":0,"x_max":0,"o":"m 521 -15 b 871 196 751 -15 843 111 l 871 0 l 997 0 l 997 444 b 910 526 997 499 969 526 l 489 526 l 489 429 l 868 429 b 546 93 875 211 761 93 b 208 478 300 93 208 267 b 551 886 208 722 328 886 b 849 629 719 886 826 792 l 976 629 b 547 994 944 856 785 994 b 81 481 251 994 81 789 b 521 -15 81 199 224 -15 z m 313 1143 l 774 1144 l 774 1243 l 313 1243 z "},"H":{"ha":1011,"x_min":0,"x_max":0,"o":"m 100 979 l 100 0 l 226 0 l 226 428 l 785 428 l 785 0 l 911 0 l 911 979 l 785 979 l 785 538 l 226 538 l 226 979 z "},"Ħ":{"ha":1026,"x_min":0,"x_max":0,"o":"m 107 979 l 107 844 l 22 844 l 22 744 l 107 744 l 107 0 l 233 0 l 233 428 l 792 428 l 792 0 l 918 0 l 918 744 l 1006 744 l 1006 844 l 918 844 l 918 979 l 792 979 l 792 844 l 233 844 l 233 979 z m 233 538 l 233 744 l 792 744 l 792 538 z "},"Ĥ":{"ha":1011,"x_min":0,"x_max":0,"o":"m 100 979 l 100 0 l 226 0 l 226 428 l 785 428 l 785 0 l 911 0 l 911 979 l 785 979 l 785 538 l 226 538 l 226 979 z m 274 1135 l 344 1065 l 506 1196 l 665 1065 l 736 1135 l 506 1319 z "},"I":{"ha":733,"x_min":0,"x_max":0,"o":"m 85 979 l 85 871 l 304 871 l 304 108 l 85 108 l 85 0 l 649 0 l 649 108 l 429 108 l 429 871 l 649 871 l 649 979 z "},"Ĳ":{"ha":836,"x_min":0,"x_max":0,"o":"m 100 0 l 472 0 b 751 308 653 0 751 108 l 751 979 l 625 979 l 625 343 b 443 108 625 196 581 108 l 100 108 z m 100 226 l 226 226 l 226 979 l 100 979 z "},"Í":{"ha":733,"x_min":0,"x_max":0,"o":"m 85 979 l 85 871 l 304 871 l 304 108 l 85 108 l 85 0 l 649 0 l 649 108 l 429 108 l 429 871 l 649 871 l 649 979 z m 133 1183 l 157 1089 l 593 1200 l 569 1294 z "},"Î":{"ha":733,"x_min":0,"x_max":0,"o":"m 85 979 l 85 871 l 304 871 l 304 108 l 85 108 l 85 0 l 649 0 l 649 108 l 429 108 l 429 871 l 649 871 l 649 979 z m 135 1135 l 206 1065 l 367 1196 l 526 1065 l 597 1135 l 367 1319 z "},"Ï":{"ha":733,"x_min":0,"x_max":0,"o":"m 85 979 l 85 871 l 304 871 l 304 108 l 85 108 l 85 0 l 649 0 l 649 108 l 429 108 l 429 871 l 649 871 l 649 979 z m 122 1185 b 222 1088 122 1129 165 1088 b 325 1185 281 1088 325 1129 b 222 1282 325 1240 281 1282 b 122 1185 165 1282 122 1240 z m 408 1185 b 510 1088 408 1129 451 1088 b 613 1185 567 1088 613 1129 b 510 1282 613 1240 567 1282 b 408 1185 451 1282 408 1240 z "},"İ":{"ha":733,"x_min":0,"x_max":0,"o":"m 85 979 l 85 871 l 304 871 l 304 108 l 85 108 l 85 0 l 649 0 l 649 108 l 429 108 l 429 871 l 649 871 l 649 979 z m 267 1190 b 364 1097 267 1136 310 1097 b 464 1190 419 1097 464 1136 b 364 1283 464 1244 419 1283 b 267 1190 310 1283 267 1244 z "},"Ì":{"ha":733,"x_min":0,"x_max":0,"o":"m 85 979 l 85 871 l 304 871 l 304 108 l 85 108 l 85 0 l 649 0 l 649 108 l 429 108 l 429 871 l 649 871 l 649 979 z m 140 1200 l 576 1089 l 600 1183 l 164 1294 z "},"Ī":{"ha":733,"x_min":0,"x_max":0,"o":"m 85 979 l 85 871 l 304 871 l 304 108 l 85 108 l 85 0 l 649 0 l 649 108 l 429 108 l 429 871 l 649 871 l 649 979 z m 136 1143 l 597 1144 l 597 1243 l 136 1243 z "},"Į":{"ha":733,"x_min":0,"x_max":0,"o":"m 85 979 l 85 871 l 304 871 l 304 108 l 85 108 l 85 0 l 315 0 l 238 -147 b 313 -268 200 -212 238 -268 l 585 -268 l 585 -168 l 333 -169 l 418 0 l 649 0 l 649 108 l 429 108 l 429 871 l 649 871 l 649 979 z "},"Ĩ":{"ha":733,"x_min":0,"x_max":0,"o":"m 85 979 l 85 871 l 304 871 l 304 108 l 85 108 l 85 0 l 649 0 l 649 108 l 429 108 l 429 871 l 649 871 l 649 979 z m 110 1108 l 210 1108 b 265 1206 210 1192 235 1206 b 478 1094 326 1206 361 1094 b 625 1290 564 1094 625 1150 l 526 1290 b 469 1193 526 1207 500 1193 b 257 1304 408 1193 375 1304 b 110 1108 171 1304 110 1249 z "},"J":{"ha":754,"x_min":0,"x_max":0,"o":"m 392 0 b 669 308 572 0 669 108 l 669 889 b 574 979 669 956 644 979 l 186 979 l 186 871 l 544 871 l 544 343 b 363 108 544 196 500 108 l 46 108 l 46 0 z "},"Ĵ":{"ha":754,"x_min":0,"x_max":0,"o":"m 392 0 b 669 308 572 0 669 108 l 669 889 b 574 979 669 956 644 979 l 186 979 l 186 871 l 544 871 l 544 343 b 363 108 544 196 500 108 l 46 108 l 46 0 z m 200 1135 l 271 1065 l 432 1196 l 592 1065 l 663 1135 l 432 1319 z "},"K":{"ha":918,"x_min":0,"x_max":0,"o":"m 100 0 l 226 0 l 226 443 l 697 0 l 874 0 l 342 501 l 869 979 l 701 979 l 226 547 l 226 979 l 100 979 z "},"Ķ":{"ha":918,"x_min":0,"x_max":0,"o":"m 100 0 l 226 0 l 226 443 l 697 0 l 874 0 l 342 501 l 869 979 l 701 979 l 226 547 l 226 979 l 100 979 z m 324 -299 l 429 -328 l 504 -99 l 399 -68 z "},"L":{"ha":760,"x_min":0,"x_max":0,"o":"m 188 0 l 717 0 l 717 108 l 226 108 l 226 979 l 100 979 l 100 88 b 188 0 100 31 132 0 z "},"Ĺ":{"ha":761,"x_min":0,"x_max":0,"o":"m 190 0 l 719 0 l 719 108 l 229 108 l 229 979 l 103 979 l 103 88 b 190 0 103 31 135 0 z m 101 1183 l 125 1089 l 561 1200 l 538 1294 z "},"Ľ":{"ha":760,"x_min":0,"x_max":0,"o":"m 188 0 l 717 0 l 717 108 l 226 108 l 226 979 l 100 979 l 100 88 b 188 0 100 31 132 0 z m 483 619 l 593 619 l 593 979 l 483 979 z "},"Ļ":{"ha":760,"x_min":0,"x_max":0,"o":"m 188 0 l 717 0 l 717 108 l 226 108 l 226 979 l 100 979 l 100 88 b 188 0 100 31 132 0 z m 307 -299 l 413 -328 l 488 -99 l 382 -68 z "},"Ł":{"ha":785,"x_min":0,"x_max":0,"o":"m 211 0 l 740 0 l 740 108 l 250 108 l 250 483 l 443 536 l 418 631 l 250 585 l 250 979 l 124 979 l 124 551 l -71 499 l -46 403 l 124 449 l 124 88 b 211 0 124 31 156 0 z "},"M":{"ha":1260,"x_min":0,"x_max":0,"o":"m 100 0 l 226 0 l 226 928 l 529 0 l 732 0 l 1033 928 l 1033 0 l 1160 0 l 1160 979 l 929 979 l 632 46 l 335 979 l 100 979 z "},"N":{"ha":1058,"x_min":0,"x_max":0,"o":"m 100 0 l 226 0 l 226 935 l 725 0 l 958 0 l 958 979 l 833 979 l 833 44 l 333 979 l 100 979 z "},"Ń":{"ha":1058,"x_min":0,"x_max":0,"o":"m 100 0 l 226 0 l 226 935 l 725 0 l 958 0 l 958 979 l 833 979 l 833 44 l 333 979 l 100 979 z m 324 1183 l 347 1089 l 783 1200 l 760 1294 z "},"Ň":{"ha":1058,"x_min":0,"x_max":0,"o":"m 100 0 l 226 0 l 226 935 l 725 0 l 958 0 l 958 979 l 833 979 l 833 44 l 333 979 l 100 979 z m 326 1253 l 558 1068 l 789 1253 l 718 1321 l 558 1190 l 397 1321 z "},"Ņ":{"ha":1058,"x_min":0,"x_max":0,"o":"m 100 0 l 226 0 l 226 935 l 725 0 l 958 0 l 958 979 l 833 979 l 833 44 l 333 979 l 100 979 z m 393 -299 l 499 -328 l 574 -99 l 468 -68 z "},"Ñ":{"ha":1058,"x_min":0,"x_max":0,"o":"m 100 0 l 226 0 l 226 935 l 725 0 l 958 0 l 958 979 l 833 979 l 833 44 l 333 979 l 100 979 z m 300 1108 l 400 1108 b 456 1206 400 1192 425 1206 b 668 1094 517 1206 551 1094 b 815 1290 754 1094 815 1150 l 717 1290 b 660 1193 717 1207 690 1193 b 447 1304 599 1193 565 1304 b 300 1108 361 1304 300 1249 z "},"Ŋ":{"ha":1056,"x_min":0,"x_max":0,"o":"m 100 0 l 226 0 l 226 935 l 725 0 l 835 0 l 835 -161 l 588 -161 l 588 -267 l 868 -267 b 958 -189 936 -267 958 -244 l 958 979 l 833 979 l 833 44 l 333 979 l 100 979 z "},"O":{"ha":1085,"x_min":0,"x_max":0,"o":"m 81 490 b 543 -15 81 203 253 -15 b 1004 490 833 -15 1004 203 b 543 994 1004 776 833 994 b 81 490 253 994 81 776 z m 208 490 b 543 885 208 719 318 885 b 878 490 768 885 878 719 b 543 94 878 260 768 94 b 208 490 318 94 208 260 z "},"Ó":{"ha":1085,"x_min":0,"x_max":0,"o":"m 81 490 b 543 -15 81 203 253 -15 b 1004 490 833 -15 1004 203 b 543 994 1004 776 833 994 b 81 490 253 994 81 776 z m 208 490 b 543 885 208 719 318 885 b 878 490 768 885 878 719 b 543 94 878 260 768 94 b 208 490 318 94 208 260 z m 310 1183 l 333 1089 l 769 1200 l 746 1294 z "},"Ô":{"ha":1085,"x_min":0,"x_max":0,"o":"m 81 490 b 543 -15 81 203 253 -15 b 1004 490 833 -15 1004 203 b 543 994 1004 776 833 994 b 81 490 253 994 81 776 z m 208 490 b 543 885 208 719 318 885 b 878 490 768 885 878 719 b 543 94 878 260 768 94 b 208 490 318 94 208 260 z m 311 1135 l 382 1065 l 543 1196 l 703 1065 l 774 1135 l 543 1319 z "},"Ö":{"ha":1085,"x_min":0,"x_max":0,"o":"m 81 490 b 543 -15 81 203 253 -15 b 1004 490 833 -15 1004 203 b 543 994 1004 776 833 994 b 81 490 253 994 81 776 z m 208 490 b 543 885 208 719 318 885 b 878 490 768 885 878 719 b 543 94 878 260 768 94 b 208 490 318 94 208 260 z m 299 1185 b 399 1088 299 1129 342 1088 b 501 1185 457 1088 501 1129 b 399 1282 501 1240 457 1282 b 299 1185 342 1282 299 1240 z m 585 1185 b 686 1088 585 1129 628 1088 b 789 1185 743 1088 789 1129 b 686 1282 789 1240 743 1282 b 585 1185 628 1282 585 1240 z "},"Ò":{"ha":1085,"x_min":0,"x_max":0,"o":"m 81 490 b 543 -15 81 203 253 -15 b 1004 490 833 -15 1004 203 b 543 994 1004 776 833 994 b 81 490 253 994 81 776 z m 208 490 b 543 885 208 719 318 885 b 878 490 768 885 878 719 b 543 94 878 260 768 94 b 208 490 318 94 208 260 z m 317 1200 l 753 1089 l 776 1183 l 340 1294 z "},"Ő":{"ha":1085,"x_min":0,"x_max":0,"o":"m 81 490 b 543 -15 81 203 253 -15 b 1004 490 833 -15 1004 203 b 543 994 1004 776 833 994 b 81 490 253 994 81 776 z m 208 490 b 543 885 208 719 318 885 b 878 490 768 885 878 719 b 543 94 878 260 768 94 b 208 490 318 94 208 260 z m 286 1136 l 356 1069 l 561 1264 l 492 1332 z m 526 1136 l 594 1069 l 800 1264 l 731 1332 z "},"Ō":{"ha":1085,"x_min":0,"x_max":0,"o":"m 81 490 b 543 -15 81 203 253 -15 b 1004 490 833 -15 1004 203 b 543 994 1004 776 833 994 b 81 490 253 994 81 776 z m 208 490 b 543 885 208 719 318 885 b 878 490 768 885 878 719 b 543 94 878 260 768 94 b 208 490 318 94 208 260 z m 314 1143 l 775 1144 l 775 1243 l 314 1243 z "},"Ø":{"ha":1093,"x_min":0,"x_max":0,"o":"m 81 490 b 254 81 81 318 143 171 l 186 -39 l 264 -86 l 332 31 b 543 -15 393 1 464 -15 b 1004 490 833 -15 1004 203 b 833 897 1004 661 943 807 l 903 1017 l 822 1064 l 756 947 b 543 994 694 978 624 994 b 81 490 253 994 81 776 z m 208 490 b 543 885 208 719 318 885 b 700 851 603 885 656 872 l 313 182 b 208 490 243 251 208 361 z m 388 128 l 775 796 b 878 490 844 725 878 618 b 543 94 878 260 768 94 b 388 128 483 94 432 106 z "},"Õ":{"ha":1085,"x_min":0,"x_max":0,"o":"m 81 490 b 543 -15 81 203 253 -15 b 1004 490 833 -15 1004 203 b 543 994 1004 776 833 994 b 81 490 253 994 81 776 z m 208 490 b 543 885 208 719 318 885 b 878 490 768 885 878 719 b 543 94 878 260 768 94 b 208 490 318 94 208 260 z m 286 1108 l 386 1108 b 442 1206 386 1192 411 1206 b 654 1094 503 1206 538 1094 b 801 1290 740 1094 801 1150 l 703 1290 b 646 1193 703 1207 676 1193 b 433 1304 585 1193 551 1304 b 286 1108 347 1304 286 1249 z "},"Œ":{"ha":1633,"x_min":0,"x_max":0,"o":"m 81 490 b 543 -15 81 203 253 -15 b 881 128 688 -15 801 39 l 881 0 l 1561 0 l 1561 108 l 1007 108 l 1007 438 l 1492 438 l 1492 543 l 1007 543 l 1007 871 l 1561 871 l 1561 979 l 881 979 l 881 851 b 543 994 801 940 688 994 b 81 490 253 994 81 776 z m 208 490 b 543 885 208 719 318 885 b 878 490 768 885 878 719 b 543 94 878 260 768 94 b 208 490 318 94 208 260 z "},"P":{"ha":861,"x_min":0,"x_max":0,"o":"m 100 0 l 226 0 l 226 331 l 385 331 b 793 656 646 331 793 406 b 385 979 793 904 646 979 l 100 979 z m 226 439 l 226 871 l 389 871 b 668 656 551 871 668 838 b 389 439 668 472 551 439 z "},"Þ":{"ha":863,"x_min":0,"x_max":0,"o":"m 100 0 l 226 0 l 226 164 l 385 164 b 793 489 646 164 793 239 b 385 813 793 736 646 813 l 226 813 l 226 979 l 100 979 z m 226 272 l 226 704 l 389 704 b 668 489 551 704 668 671 b 389 272 668 306 551 272 z "},"Q":{"ha":1075,"x_min":0,"x_max":0,"o":"m 1043 -222 l 1043 -115 b 643 -68 886 -85 761 -68 b 1007 489 831 8 1007 179 b 546 994 1007 779 832 994 b 81 493 256 994 81 782 b 507 -1 81 213 257 -1 b 711 39 588 -1 661 18 b 249 -94 572 -51 383 -74 l 260 -196 b 1043 -222 551 -153 775 -168 z m 208 494 b 544 885 208 729 332 885 b 879 490 757 885 879 724 b 544 106 879 249 757 106 b 208 494 335 106 208 265 z "},"R":{"ha":939,"x_min":0,"x_max":0,"o":"m 100 0 l 226 0 l 226 388 l 721 388 l 721 0 l 846 0 l 846 361 b 746 464 846 418 824 464 l 674 464 b 844 711 778 490 844 564 b 463 979 844 928 692 979 l 100 979 z m 226 496 l 226 871 l 463 871 b 719 683 621 871 719 857 b 463 496 719 514 621 496 z "},"Ŕ":{"ha":939,"x_min":0,"x_max":0,"o":"m 100 0 l 226 0 l 226 388 l 721 388 l 721 0 l 846 0 l 846 361 b 746 464 846 418 824 464 l 674 464 b 844 711 778 490 844 564 b 463 979 844 928 692 979 l 100 979 z m 211 1183 l 235 1089 l 671 1200 l 647 1294 z m 226 496 l 226 871 l 463 871 b 719 683 621 871 719 857 b 463 496 719 514 621 496 z "},"Ř":{"ha":939,"x_min":0,"x_max":0,"o":"m 100 0 l 226 0 l 226 388 l 721 388 l 721 0 l 846 0 l 846 361 b 746 464 846 418 824 464 l 674 464 b 844 711 778 490 844 564 b 463 979 844 928 692 979 l 100 979 z m 214 1253 l 446 1068 l 676 1253 l 606 1321 l 446 1190 l 285 1321 z m 226 496 l 226 871 l 463 871 b 719 683 621 871 719 857 b 463 496 719 514 621 496 z "},"Ŗ":{"ha":939,"x_min":0,"x_max":0,"o":"m 100 0 l 226 0 l 226 388 l 721 388 l 721 0 l 846 0 l 846 361 b 746 464 846 418 824 464 l 674 464 b 844 711 778 490 844 564 b 463 979 844 928 692 979 l 100 979 z m 226 496 l 226 871 l 463 871 b 719 683 621 871 719 857 b 463 496 719 514 621 496 z m 350 -299 l 456 -328 l 531 -99 l 425 -68 z "},"S":{"ha":947,"x_min":0,"x_max":0,"o":"m 889 261 b 653 522 889 390 811 482 l 382 590 b 233 740 275 618 233 671 b 453 889 233 840 310 889 b 731 656 638 889 731 811 l 860 656 b 453 994 860 867 719 994 b 106 735 228 994 106 904 b 324 489 106 618 169 529 l 597 418 b 761 254 711 389 761 331 b 517 92 761 146 686 92 b 188 368 300 92 188 181 l 60 368 b 514 -15 60 122 217 -15 b 889 261 775 -15 889 86 z "},"Ś":{"ha":947,"x_min":0,"x_max":0,"o":"m 889 261 b 653 522 889 390 811 482 l 382 590 b 233 740 275 618 233 671 b 453 889 233 840 310 889 b 731 656 638 889 731 811 l 860 656 b 453 994 860 867 719 994 b 106 735 228 994 106 904 b 324 489 106 618 169 529 l 597 418 b 761 254 711 389 761 331 b 517 92 761 146 686 92 b 188 368 300 92 188 181 l 60 368 b 514 -15 60 122 217 -15 b 889 261 775 -15 889 86 z m 242 1183 l 265 1089 l 701 1200 l 678 1294 z "},"Ꞌ":{"ha":339,"x_min":0,"x_max":0,"o":"m 110 981 l 110 619 l 224 619 l 224 981 z "},"Š":{"ha":947,"x_min":0,"x_max":0,"o":"m 889 261 b 653 522 889 390 811 482 l 382 590 b 233 740 275 618 233 671 b 453 889 233 840 310 889 b 731 656 638 889 731 811 l 860 656 b 453 994 860 867 719 994 b 106 735 228 994 106 904 b 324 489 106 618 169 529 l 597 418 b 761 254 711 389 761 331 b 517 92 761 146 686 92 b 188 368 300 92 188 181 l 60 368 b 514 -15 60 122 217 -15 b 889 261 775 -15 889 86 z m 243 1253 l 475 1068 l 706 1253 l 635 1321 l 475 1190 l 314 1321 z "},"Ş":{"ha":947,"x_min":0,"x_max":0,"o":"m 889 261 b 653 522 889 390 811 482 l 382 590 b 233 740 275 618 233 671 b 453 889 233 840 310 889 b 731 656 638 889 731 811 l 860 656 b 453 994 860 867 719 994 b 106 735 228 994 106 904 b 324 489 106 618 169 529 l 597 418 b 761 254 711 389 761 331 b 517 92 761 146 686 92 b 188 368 300 92 188 181 l 60 368 b 413 -10 60 151 181 19 l 361 -74 l 413 -136 b 510 -100 463 -106 485 -100 b 542 -128 529 -100 542 -110 b 342 -171 542 -172 469 -171 l 342 -260 b 640 -136 518 -260 640 -247 b 547 -58 640 -79 594 -58 b 451 -79 510 -58 478 -68 l 514 -15 b 889 261 775 -15 889 86 z "},"Ŝ":{"ha":947,"x_min":0,"x_max":0,"o":"m 889 261 b 653 522 889 390 811 482 l 382 590 b 233 740 275 618 233 671 b 453 889 233 840 310 889 b 731 656 638 889 731 811 l 860 656 b 453 994 860 867 719 994 b 106 735 228 994 106 904 b 324 489 106 618 169 529 l 597 418 b 761 254 711 389 761 331 b 517 92 761 146 686 92 b 188 368 300 92 188 181 l 60 368 b 514 -15 60 122 217 -15 b 889 261 775 -15 889 86 z m 243 1135 l 314 1065 l 475 1196 l 635 1065 l 706 1135 l 475 1319 z "},"Ș":{"ha":947,"x_min":0,"x_max":0,"o":"m 889 261 b 653 522 889 390 811 482 l 382 590 b 233 740 275 618 233 671 b 453 889 233 840 310 889 b 731 656 638 889 731 811 l 860 656 b 453 994 860 867 719 994 b 106 735 228 994 106 904 b 324 489 106 618 169 529 l 597 418 b 761 254 711 389 761 331 b 517 92 761 146 686 92 b 188 368 300 92 188 181 l 60 368 b 514 -15 60 122 217 -15 b 889 261 775 -15 889 86 z m 339 -299 l 444 -328 l 519 -99 l 414 -68 z "},"ẞ":{"ha":903,"x_min":0,"x_max":0,"o":"m 100 672 l 100 0 l 226 0 l 226 660 b 439 886 226 821 300 886 b 625 749 581 886 625 819 b 425 571 625 683 589 613 l 456 447 b 739 289 631 493 739 422 b 508 108 739 174 657 108 l 304 108 l 304 0 l 508 0 b 865 272 735 0 865 85 b 544 535 865 457 729 556 b 750 767 693 589 750 683 b 436 994 750 867 672 994 b 100 672 242 994 100 906 z "},"T":{"ha":917,"x_min":0,"x_max":0,"o":"m 58 979 l 58 871 l 396 871 l 396 0 l 522 0 l 522 871 l 858 871 l 858 979 z "},"Ŧ":{"ha":917,"x_min":0,"x_max":0,"o":"m 58 979 l 58 871 l 396 871 l 396 539 l 214 539 l 214 439 l 396 439 l 396 0 l 522 0 l 522 439 l 704 439 l 704 539 l 522 539 l 522 871 l 858 871 l 858 979 z "},"Ť":{"ha":917,"x_min":0,"x_max":0,"o":"m 58 979 l 58 871 l 396 871 l 396 0 l 522 0 l 522 871 l 858 871 l 858 979 z m 228 1253 l 460 1068 l 690 1253 l 619 1321 l 460 1190 l 299 1321 z "},"Ţ":{"ha":917,"x_min":0,"x_max":0,"o":"m 58 979 l 58 871 l 396 871 l 396 0 l 403 0 l 344 -74 l 396 -136 b 493 -100 446 -106 468 -100 b 525 -128 513 -100 525 -110 b 325 -171 525 -172 453 -171 l 325 -260 b 624 -136 501 -260 624 -247 b 531 -58 624 -79 578 -58 b 435 -79 493 -58 461 -68 l 513 0 l 522 0 l 522 871 l 858 871 l 858 979 z "},"Ț":{"ha":917,"x_min":0,"x_max":0,"o":"m 58 979 l 58 871 l 396 871 l 396 0 l 522 0 l 522 871 l 858 871 l 858 979 z m 322 -299 l 428 -328 l 503 -99 l 397 -68 z "},"U":{"ha":936,"x_min":0,"x_max":0,"o":"m 74 364 b 467 -15 74 119 197 -15 b 863 364 736 -15 863 119 l 863 979 l 736 979 l 736 390 b 467 94 736 194 671 94 b 200 390 263 94 200 194 l 200 979 l 74 979 z "},"Ú":{"ha":936,"x_min":0,"x_max":0,"o":"m 74 364 b 467 -15 74 119 197 -15 b 863 364 736 -15 863 119 l 863 979 l 736 979 l 736 390 b 467 94 736 194 671 94 b 200 390 263 94 200 194 l 200 979 l 74 979 z m 233 1183 l 257 1089 l 693 1200 l 669 1294 z "},"Ŭ":{"ha":936,"x_min":0,"x_max":0,"o":"m 74 364 b 467 -15 74 119 197 -15 b 863 364 736 -15 863 119 l 863 979 l 736 979 l 736 390 b 467 94 736 194 671 94 b 200 390 263 94 200 194 l 200 979 l 74 979 z m 246 1313 b 467 1069 246 1171 326 1069 b 688 1313 607 1069 688 1171 l 588 1313 b 467 1165 588 1210 553 1165 b 346 1313 381 1165 346 1210 z "},"Û":{"ha":936,"x_min":0,"x_max":0,"o":"m 74 364 b 467 -15 74 119 197 -15 b 863 364 736 -15 863 119 l 863 979 l 736 979 l 736 390 b 467 94 736 194 671 94 b 200 390 263 94 200 194 l 200 979 l 74 979 z m 235 1135 l 306 1065 l 467 1196 l 626 1065 l 697 1135 l 467 1319 z "},"Ü":{"ha":936,"x_min":0,"x_max":0,"o":"m 74 364 b 467 -15 74 119 197 -15 b 863 364 736 -15 863 119 l 863 979 l 736 979 l 736 390 b 467 94 736 194 671 94 b 200 390 263 94 200 194 l 200 979 l 74 979 z m 222 1185 b 322 1088 222 1129 265 1088 b 425 1185 381 1088 425 1129 b 322 1282 425 1240 381 1282 b 222 1185 265 1282 222 1240 z m 508 1185 b 610 1088 508 1129 551 1088 b 713 1185 667 1088 713 1129 b 610 1282 713 1240 667 1282 b 508 1185 551 1282 508 1240 z "},"Ù":{"ha":936,"x_min":0,"x_max":0,"o":"m 74 364 b 467 -15 74 119 197 -15 b 863 364 736 -15 863 119 l 863 979 l 736 979 l 736 390 b 467 94 736 194 671 94 b 200 390 263 94 200 194 l 200 979 l 74 979 z m 240 1200 l 676 1089 l 700 1183 l 264 1294 z "},"Ű":{"ha":936,"x_min":0,"x_max":0,"o":"m 74 364 b 467 -15 74 119 197 -15 b 863 364 736 -15 863 119 l 863 979 l 736 979 l 736 390 b 467 94 736 194 671 94 b 200 390 263 94 200 194 l 200 979 l 74 979 z m 210 1136 l 279 1069 l 485 1264 l 415 1332 z m 450 1136 l 518 1069 l 724 1264 l 654 1332 z "},"Ū":{"ha":936,"x_min":0,"x_max":0,"o":"m 74 364 b 467 -15 74 119 197 -15 b 863 364 736 -15 863 119 l 863 979 l 736 979 l 736 390 b 467 94 736 194 671 94 b 200 390 263 94 200 194 l 200 979 l 74 979 z m 236 1143 l 697 1144 l 697 1243 l 236 1243 z "},"Ų":{"ha":936,"x_min":0,"x_max":0,"o":"m 74 364 b 467 -15 74 119 197 -15 l 490 -15 l 419 -147 b 494 -268 382 -212 419 -268 l 767 -268 l 767 -168 l 515 -169 l 600 -1 b 863 364 778 38 863 164 l 863 979 l 736 979 l 736 390 b 467 94 736 194 671 94 b 200 390 263 94 200 194 l 200 979 l 74 979 z "},"Ů":{"ha":936,"x_min":0,"x_max":0,"o":"m 74 364 b 467 -15 74 119 197 -15 b 863 364 736 -15 863 119 l 863 979 l 736 979 l 736 390 b 467 94 736 194 671 94 b 200 390 263 94 200 194 l 200 979 l 74 979 z m 297 1218 b 465 1065 297 1135 357 1065 b 636 1218 574 1065 636 1136 b 465 1369 636 1300 574 1369 b 297 1218 357 1369 297 1300 z m 393 1218 b 465 1281 393 1257 419 1281 b 540 1218 513 1281 540 1257 b 465 1153 540 1178 514 1153 b 393 1218 419 1153 393 1178 z "},"Ũ":{"ha":936,"x_min":0,"x_max":0,"o":"m 74 364 b 467 -15 74 119 197 -15 b 863 364 736 -15 863 119 l 863 979 l 736 979 l 736 390 b 467 94 736 194 671 94 b 200 390 263 94 200 194 l 200 979 l 74 979 z m 210 1108 l 310 1108 b 365 1206 310 1192 335 1206 b 578 1094 426 1206 461 1094 b 725 1290 664 1094 725 1150 l 626 1290 b 569 1193 626 1207 600 1193 b 357 1304 508 1193 475 1304 b 210 1108 271 1304 210 1249 z "},"V":{"ha":969,"x_min":0,"x_max":0,"o":"m 371 0 l 597 0 l 932 979 l 801 979 l 485 49 l 168 979 l 38 979 z "},"W":{"ha":1293,"x_min":0,"x_max":0,"o":"m 1264 979 l 1138 979 l 967 132 l 953 53 l 756 979 l 539 979 l 343 53 l 329 132 l 156 979 l 31 979 l 224 0 l 450 0 l 647 932 l 846 0 l 1071 0 z "},"Ẃ":{"ha":1293,"x_min":0,"x_max":0,"o":"m 1264 979 l 1138 979 l 967 132 l 953 53 l 756 979 l 539 979 l 343 53 l 329 132 l 156 979 l 31 979 l 224 0 l 450 0 l 647 932 l 846 0 l 1071 0 z m 414 1183 l 438 1089 l 874 1200 l 850 1294 z "},"Ŵ":{"ha":1293,"x_min":0,"x_max":0,"o":"m 1264 979 l 1138 979 l 967 132 l 953 53 l 756 979 l 539 979 l 343 53 l 329 132 l 156 979 l 31 979 l 224 0 l 450 0 l 647 932 l 846 0 l 1071 0 z m 415 1135 l 486 1065 l 647 1196 l 807 1065 l 878 1135 l 647 1319 z "},"Ẅ":{"ha":1293,"x_min":0,"x_max":0,"o":"m 1264 979 l 1138 979 l 967 132 l 953 53 l 756 979 l 539 979 l 343 53 l 329 132 l 156 979 l 31 979 l 224 0 l 450 0 l 647 932 l 846 0 l 1071 0 z m 401 1185 b 501 1088 401 1129 444 1088 b 604 1185 560 1088 604 1129 b 501 1282 604 1240 560 1282 b 401 1185 444 1282 401 1240 z m 688 1185 b 789 1088 688 1129 731 1088 b 892 1185 846 1088 892 1129 b 789 1282 892 1240 846 1282 b 688 1185 731 1282 688 1240 z "},"Ẁ":{"ha":1293,"x_min":0,"x_max":0,"o":"m 1264 979 l 1138 979 l 967 132 l 953 53 l 756 979 l 539 979 l 343 53 l 329 132 l 156 979 l 31 979 l 224 0 l 450 0 l 647 932 l 846 0 l 1071 0 z m 419 1200 l 856 1089 l 879 1183 l 443 1294 z "},"X":{"ha":949,"x_min":0,"x_max":0,"o":"m 915 0 l 574 490 l 915 979 l 772 979 l 475 550 l 176 979 l 33 979 l 374 490 l 33 0 l 176 0 l 475 432 l 772 0 z "},"Y":{"ha":924,"x_min":0,"x_max":0,"o":"m 746 979 l 461 453 l 176 979 l 43 979 l 357 413 l 399 413 l 399 0 l 524 0 l 524 413 l 567 413 l 881 979 z "},"Ý":{"ha":924,"x_min":0,"x_max":0,"o":"m 746 979 l 461 453 l 176 979 l 43 979 l 357 413 l 399 413 l 399 0 l 524 0 l 524 413 l 567 413 l 881 979 z m 228 1183 l 251 1089 l 688 1200 l 664 1294 z "},"Ŷ":{"ha":924,"x_min":0,"x_max":0,"o":"m 746 979 l 461 453 l 176 979 l 43 979 l 357 413 l 399 413 l 399 0 l 524 0 l 524 413 l 567 413 l 881 979 z m 229 1135 l 300 1065 l 461 1196 l 621 1065 l 692 1135 l 461 1319 z "},"Ÿ":{"ha":924,"x_min":0,"x_max":0,"o":"m 746 979 l 461 453 l 176 979 l 43 979 l 357 413 l 399 413 l 399 0 l 524 0 l 524 413 l 567 413 l 881 979 z m 217 1185 b 317 1088 217 1129 260 1088 b 419 1185 375 1088 419 1129 b 317 1282 419 1240 375 1282 b 217 1185 260 1282 217 1240 z m 503 1185 b 604 1088 503 1129 546 1088 b 707 1185 661 1088 707 1129 b 604 1282 707 1240 661 1282 b 503 1185 546 1282 503 1240 z "},"Ỳ":{"ha":924,"x_min":0,"x_max":0,"o":"m 746 979 l 461 453 l 176 979 l 43 979 l 357 413 l 399 413 l 399 0 l 524 0 l 524 413 l 567 413 l 881 979 z m 235 1200 l 671 1089 l 694 1183 l 258 1294 z "},"Ỹ":{"ha":924,"x_min":0,"x_max":0,"o":"m 746 979 l 461 453 l 176 979 l 43 979 l 357 413 l 399 413 l 399 0 l 524 0 l 524 413 l 567 413 l 881 979 z m 204 1108 l 304 1108 b 360 1206 304 1192 329 1206 b 572 1094 421 1206 456 1094 b 719 1290 658 1094 719 1150 l 621 1290 b 564 1193 621 1207 594 1193 b 351 1304 503 1193 469 1304 b 204 1108 265 1304 204 1249 z "},"Z":{"ha":910,"x_min":0,"x_max":0,"o":"m 74 0 l 838 0 l 838 108 l 114 108 l 838 757 l 838 979 l 74 979 l 74 871 l 796 871 l 74 221 z "},"Ź":{"ha":910,"x_min":0,"x_max":0,"o":"m 74 0 l 838 0 l 838 108 l 114 108 l 838 757 l 838 979 l 74 979 l 74 871 l 796 871 l 74 221 z m 222 1183 l 246 1089 l 682 1200 l 658 1294 z "},"Ž":{"ha":910,"x_min":0,"x_max":0,"o":"m 74 0 l 838 0 l 838 108 l 114 108 l 838 757 l 838 979 l 74 979 l 74 871 l 796 871 l 74 221 z m 224 1253 l 456 1068 l 686 1253 l 615 1321 l 456 1190 l 294 1321 z "},"Ż":{"ha":910,"x_min":0,"x_max":0,"o":"m 74 0 l 838 0 l 838 108 l 114 108 l 838 757 l 838 979 l 74 979 l 74 871 l 796 871 l 74 221 z m 356 1190 b 453 1097 356 1136 399 1097 b 553 1190 508 1097 553 1136 b 453 1283 553 1244 508 1283 b 356 1190 399 1283 356 1244 z "},"a":{"ha":828,"x_min":0,"x_max":0,"o":"m 69 192 b 303 -14 69 119 100 -14 b 586 171 474 -14 554 74 l 586 83 b 669 0 586 31 617 0 l 796 0 l 796 106 l 694 106 l 694 394 b 388 704 694 581 588 704 b 85 444 207 704 100 601 l 207 444 b 385 604 218 560 289 604 b 571 419 510 604 565 544 l 300 393 b 69 192 136 378 69 301 z m 192 207 b 321 306 192 274 236 297 l 571 332 b 322 88 571 193 472 88 b 192 207 243 88 192 128 z "},"á":{"ha":828,"x_min":0,"x_max":0,"o":"m 69 192 b 303 -14 69 119 100 -14 b 586 171 474 -14 554 74 l 586 83 b 669 0 586 31 617 0 l 796 0 l 796 106 l 694 106 l 694 394 b 388 704 694 581 588 704 b 85 444 207 704 100 601 l 207 444 b 385 604 218 560 289 604 b 571 419 510 604 565 544 l 300 393 b 69 192 136 378 69 301 z m 161 894 l 185 800 l 621 911 l 597 1006 z m 192 207 b 321 306 192 274 236 297 l 571 332 b 322 88 571 193 472 88 b 192 207 243 88 192 128 z "},"ă":{"ha":828,"x_min":0,"x_max":0,"o":"m 69 192 b 303 -14 69 119 100 -14 b 586 171 474 -14 554 74 l 586 83 b 669 0 586 31 617 0 l 796 0 l 796 106 l 694 106 l 694 394 b 388 704 694 581 588 704 b 85 444 207 704 100 601 l 207 444 b 385 604 218 560 289 604 b 571 419 510 604 565 544 l 300 393 b 69 192 136 378 69 301 z m 175 1024 b 396 781 175 882 256 781 b 617 1024 536 781 617 882 l 517 1024 b 396 876 517 921 482 876 b 275 1024 310 876 275 921 z m 192 207 b 321 306 192 274 236 297 l 571 332 b 322 88 571 193 472 88 b 192 207 243 88 192 128 z "},"â":{"ha":828,"x_min":0,"x_max":0,"o":"m 69 192 b 303 -14 69 119 100 -14 b 586 171 474 -14 554 74 l 586 83 b 669 0 586 31 617 0 l 796 0 l 796 106 l 694 106 l 694 394 b 388 704 694 581 588 704 b 85 444 207 704 100 601 l 207 444 b 385 604 218 560 289 604 b 571 419 510 604 565 544 l 300 393 b 69 192 136 378 69 301 z m 164 846 l 235 776 l 396 907 l 556 776 l 626 846 l 396 1031 z m 192 207 b 321 306 192 274 236 297 l 571 332 b 322 88 571 193 472 88 b 192 207 243 88 192 128 z "},"ä":{"ha":828,"x_min":0,"x_max":0,"o":"m 69 192 b 303 -14 69 119 100 -14 b 586 171 474 -14 554 74 l 586 83 b 669 0 586 31 617 0 l 796 0 l 796 106 l 694 106 l 694 394 b 388 704 694 581 588 704 b 85 444 207 704 100 601 l 207 444 b 385 604 218 560 289 604 b 571 419 510 604 565 544 l 300 393 b 69 192 136 378 69 301 z m 150 896 b 250 799 150 840 193 799 b 353 896 308 799 353 840 b 250 993 353 951 308 993 b 150 896 193 993 150 951 z m 192 207 b 321 306 192 274 236 297 l 571 332 b 322 88 571 193 472 88 b 192 207 243 88 192 128 z m 436 896 b 538 799 436 840 479 799 b 640 896 594 799 640 840 b 538 993 640 951 594 993 b 436 896 479 993 436 951 z "},"à":{"ha":828,"x_min":0,"x_max":0,"o":"m 69 192 b 303 -14 69 119 100 -14 b 586 171 474 -14 554 74 l 586 83 b 669 0 586 31 617 0 l 796 0 l 796 106 l 694 106 l 694 394 b 388 704 694 581 588 704 b 85 444 207 704 100 601 l 207 444 b 385 604 218 560 289 604 b 571 419 510 604 565 544 l 300 393 b 69 192 136 378 69 301 z m 168 911 l 604 800 l 628 894 l 192 1006 z m 192 207 b 321 306 192 274 236 297 l 571 332 b 322 88 571 193 472 88 b 192 207 243 88 192 128 z "},"ā":{"ha":828,"x_min":0,"x_max":0,"o":"m 69 192 b 303 -14 69 119 100 -14 b 586 171 474 -14 554 74 l 586 83 b 669 0 586 31 617 0 l 796 0 l 796 106 l 694 106 l 694 394 b 388 704 694 581 588 704 b 85 444 207 704 100 601 l 207 444 b 385 604 218 560 289 604 b 571 419 510 604 565 544 l 300 393 b 69 192 136 378 69 301 z m 165 854 l 626 856 l 626 954 l 165 954 z m 192 207 b 321 306 192 274 236 297 l 571 332 b 322 88 571 193 472 88 b 192 207 243 88 192 128 z "},"ą":{"ha":828,"x_min":0,"x_max":0,"o":"m 69 192 b 303 -14 69 119 100 -14 b 586 171 474 -14 554 74 l 586 83 b 669 0 586 31 617 0 l 690 0 l 613 -147 b 688 -268 575 -212 613 -268 l 960 -268 l 960 -168 l 708 -169 l 793 0 l 796 0 l 796 106 l 694 106 l 694 394 b 388 704 694 581 588 704 b 85 444 207 704 100 601 l 207 444 b 385 604 218 560 289 604 b 571 419 510 604 565 544 l 300 393 b 69 192 136 378 69 301 z m 192 207 b 321 306 192 274 236 297 l 571 332 b 322 88 571 193 472 88 b 192 207 243 88 192 128 z "},"å":{"ha":828,"x_min":0,"x_max":0,"o":"m 69 192 b 303 -14 69 119 100 -14 b 586 171 474 -14 554 74 l 586 83 b 669 0 586 31 617 0 l 796 0 l 796 106 l 694 106 l 694 394 b 388 704 694 581 588 704 b 85 444 207 704 100 601 l 207 444 b 385 604 218 560 289 604 b 571 419 510 604 565 544 l 300 393 b 69 192 136 378 69 301 z m 192 207 b 321 306 192 274 236 297 l 571 332 b 322 88 571 193 472 88 b 192 207 243 88 192 128 z m 225 929 b 393 776 225 846 285 776 b 564 929 501 776 564 847 b 393 1081 564 1011 501 1081 b 225 929 285 1081 225 1011 z m 321 929 b 393 992 321 968 347 992 b 468 929 440 992 468 968 b 393 864 468 889 442 864 b 321 929 347 864 321 889 z "},"ã":{"ha":828,"x_min":0,"x_max":0,"o":"m 69 192 b 303 -14 69 119 100 -14 b 586 171 474 -14 554 74 l 586 83 b 669 0 586 31 617 0 l 796 0 l 796 106 l 694 106 l 694 394 b 388 704 694 581 588 704 b 85 444 207 704 100 601 l 207 444 b 385 604 218 560 289 604 b 571 419 510 604 565 544 l 300 393 b 69 192 136 378 69 301 z m 138 819 l 238 819 b 293 917 238 903 263 917 b 506 806 354 917 389 806 b 653 1001 592 806 653 861 l 554 1001 b 497 904 554 918 528 904 b 285 1015 436 904 403 1015 b 138 819 199 1015 138 960 z m 192 207 b 321 306 192 274 236 297 l 571 332 b 322 88 571 193 472 88 b 192 207 243 88 192 128 z "},"æ":{"ha":1314,"x_min":0,"x_max":0,"o":"m 69 185 b 303 -14 69 82 133 -14 b 606 186 461 -14 563 72 b 914 -14 653 67 756 -14 b 1246 242 1126 -14 1218 114 l 1124 242 b 913 85 1100 146 1031 85 b 694 322 769 85 699 188 l 1243 322 l 1243 367 b 906 704 1243 581 1110 704 b 633 571 786 704 690 658 b 381 704 586 656 500 704 b 74 433 186 704 74 579 l 190 433 b 382 606 190 557 282 606 b 575 418 499 606 575 539 l 313 392 b 69 185 149 372 69 307 z m 193 203 b 332 324 193 275 242 315 l 575 347 b 329 85 575 224 486 85 b 193 203 244 85 193 128 z m 696 410 b 906 607 706 535 792 607 b 1122 410 1029 607 1114 535 z "},"b":{"ha":911,"x_min":0,"x_max":0,"o":"m 97 0 l 221 0 l 221 169 b 517 -14 269 60 368 -14 b 840 346 715 -14 840 136 b 517 704 840 556 715 704 b 221 524 364 704 267 628 l 221 1021 l 97 1021 z m 224 346 b 476 599 224 514 342 599 b 718 346 611 599 718 519 b 476 92 718 172 611 92 b 224 346 342 92 224 175 z "},"c":{"ha":819,"x_min":0,"x_max":0,"o":"m 69 346 b 424 -14 69 143 200 -14 b 750 264 563 -14 733 64 l 626 264 b 424 92 607 138 524 92 b 192 346 268 92 192 206 b 424 599 192 485 268 599 b 626 426 524 599 607 553 l 750 426 b 424 704 733 626 563 704 b 69 346 200 704 69 547 z "},"ć":{"ha":819,"x_min":0,"x_max":0,"o":"m 69 346 b 424 -14 69 143 200 -14 b 750 264 563 -14 733 64 l 626 264 b 424 92 607 138 524 92 b 192 346 268 92 192 206 b 424 599 192 485 268 599 b 626 426 524 599 607 553 l 750 426 b 424 704 733 626 563 704 b 69 346 200 704 69 547 z m 190 894 l 214 800 l 650 911 l 626 1006 z "},"č":{"ha":819,"x_min":0,"x_max":0,"o":"m 69 346 b 424 -14 69 143 200 -14 b 750 264 563 -14 733 64 l 626 264 b 424 92 607 138 524 92 b 192 346 268 92 192 206 b 424 599 192 485 268 599 b 626 426 524 599 607 553 l 750 426 b 424 704 733 626 563 704 b 69 346 200 704 69 547 z m 192 964 l 424 779 l 654 964 l 583 1032 l 424 901 l 263 1032 z "},"ç":{"ha":819,"x_min":0,"x_max":0,"o":"m 69 346 b 349 -7 69 167 171 24 l 296 -74 l 347 -136 b 444 -100 397 -106 419 -100 b 476 -128 464 -100 476 -110 b 276 -171 476 -172 404 -171 l 276 -260 b 575 -136 453 -260 575 -247 b 482 -58 575 -79 529 -58 b 386 -79 444 -58 413 -68 l 451 -12 b 750 264 585 -3 735 76 l 626 264 b 424 92 607 138 524 92 b 192 346 268 92 192 206 b 424 599 192 485 268 599 b 626 426 524 599 607 553 l 750 426 b 424 704 733 626 563 704 b 69 346 200 704 69 547 z "},"ĉ":{"ha":819,"x_min":0,"x_max":0,"o":"m 69 346 b 424 -14 69 143 200 -14 b 750 264 563 -14 733 64 l 626 264 b 424 92 607 138 524 92 b 192 346 268 92 192 206 b 424 599 192 485 268 599 b 626 426 524 599 607 553 l 750 426 b 424 704 733 626 563 704 b 69 346 200 704 69 547 z m 192 846 l 263 776 l 424 907 l 583 776 l 654 846 l 424 1031 z "},"ċ":{"ha":819,"x_min":0,"x_max":0,"o":"m 69 346 b 424 -14 69 143 200 -14 b 750 264 563 -14 733 64 l 626 264 b 424 92 607 138 524 92 b 192 346 268 92 192 206 b 424 599 192 485 268 599 b 626 426 524 599 607 553 l 750 426 b 424 704 733 626 563 704 b 69 346 200 704 69 547 z m 324 901 b 421 808 324 847 367 808 b 521 901 476 808 521 847 b 421 994 521 956 476 994 b 324 901 367 994 324 956 z "},"d":{"ha":911,"x_min":0,"x_max":0,"o":"m 393 -14 b 690 171 544 -14 643 61 l 690 0 l 813 0 l 813 1021 l 690 1021 l 690 519 b 393 704 644 626 547 704 b 69 346 196 704 69 556 b 393 -14 69 136 196 -14 z m 193 346 b 433 599 193 518 300 599 b 686 346 568 599 686 514 b 433 92 686 176 568 92 b 193 346 300 92 193 174 z "},"ð":{"ha":903,"x_min":0,"x_max":0,"o":"m 443 -14 b 832 443 678 -14 832 157 b 621 881 832 633 751 781 l 774 963 l 700 1029 l 531 939 b 207 1035 438 989 326 1021 l 207 929 b 414 878 282 918 351 901 l 303 818 l 376 751 l 519 828 b 740 511 643 756 725 650 l 740 506 b 432 704 692 629 583 704 b 69 350 211 704 69 553 b 443 -14 69 139 201 -14 z m 192 350 b 451 599 192 500 288 599 b 704 350 608 599 704 501 b 444 92 704 214 607 92 b 192 350 283 92 192 188 z "},"ď":{"ha":1135,"x_min":0,"x_max":0,"o":"m 393 -14 b 690 171 544 -14 643 61 l 690 0 l 813 0 l 813 1021 l 690 1021 l 690 519 b 393 704 644 626 547 704 b 69 346 196 704 69 556 b 393 -14 69 136 196 -14 z m 193 346 b 433 599 193 518 300 599 b 686 346 568 599 686 514 b 433 92 686 176 568 92 b 193 346 300 92 193 174 z m 915 661 l 1025 661 l 1025 1021 l 915 1021 z "},"đ":{"ha":924,"x_min":0,"x_max":0,"o":"m 393 -14 b 690 171 544 -14 643 61 l 690 0 l 813 0 l 813 843 l 892 843 l 892 943 l 813 943 l 813 1021 l 690 1021 l 690 943 l 492 943 l 492 843 l 690 843 l 690 519 b 393 704 644 626 547 704 b 69 346 196 704 69 556 b 393 -14 69 136 196 -14 z m 193 346 b 433 599 193 518 300 599 b 686 346 568 599 686 514 b 433 92 686 176 568 92 b 193 346 300 92 193 174 z "},"e":{"ha":808,"x_min":0,"x_max":0,"o":"m 69 354 b 408 -14 69 150 183 -14 b 740 242 621 -14 713 114 l 618 242 b 407 85 594 146 525 85 b 189 322 264 85 193 188 l 738 322 l 738 367 b 400 704 738 581 604 704 b 69 354 203 704 69 578 z m 190 410 b 400 607 200 535 286 607 b 617 410 524 607 608 535 z "},"é":{"ha":808,"x_min":0,"x_max":0,"o":"m 203 800 l 639 911 l 615 1006 l 179 894 z m 69 354 b 408 -14 69 150 183 -14 b 740 242 621 -14 713 114 l 618 242 b 407 85 594 146 525 85 b 189 322 264 85 193 188 l 738 322 l 738 367 b 400 704 738 581 604 704 b 69 354 203 704 69 578 z m 190 410 b 400 607 200 535 286 607 b 617 410 524 607 608 535 z "},"ě":{"ha":808,"x_min":0,"x_max":0,"o":"m 182 964 l 414 779 l 644 964 l 574 1032 l 414 901 l 253 1032 z m 69 354 b 408 -14 69 150 183 -14 b 740 242 621 -14 713 114 l 618 242 b 407 85 594 146 525 85 b 189 322 264 85 193 188 l 738 322 l 738 367 b 400 704 738 581 604 704 b 69 354 203 704 69 578 z m 190 410 b 400 607 200 535 286 607 b 617 410 524 607 608 535 z "},"ê":{"ha":808,"x_min":0,"x_max":0,"o":"m 644 846 l 414 1031 l 182 846 l 253 776 l 414 907 l 574 776 z m 69 354 b 408 -14 69 150 183 -14 b 740 242 621 -14 713 114 l 618 242 b 407 85 594 146 525 85 b 189 322 264 85 193 188 l 738 322 l 738 367 b 400 704 738 581 604 704 b 69 354 203 704 69 578 z m 190 410 b 400 607 200 535 286 607 b 617 410 524 607 608 535 z "},"ë":{"ha":808,"x_min":0,"x_max":0,"o":"m 268 799 b 371 896 326 799 371 840 b 268 993 371 951 326 993 b 168 896 211 993 168 951 b 268 799 168 840 211 799 z m 69 354 b 408 -14 69 150 183 -14 b 740 242 621 -14 713 114 l 618 242 b 407 85 594 146 525 85 b 189 322 264 85 193 188 l 738 322 l 738 367 b 400 704 738 581 604 704 b 69 354 203 704 69 578 z m 190 410 b 400 607 200 535 286 607 b 617 410 524 607 608 535 z m 454 896 b 556 799 454 840 497 799 b 658 896 613 799 658 840 b 556 993 658 951 613 993 b 454 896 497 993 454 951 z "},"ė":{"ha":808,"x_min":0,"x_max":0,"o":"m 411 808 b 511 901 467 808 511 847 b 411 994 511 956 467 994 b 314 901 357 994 314 956 b 411 808 314 847 357 808 z m 69 354 b 408 -14 69 150 183 -14 b 740 242 621 -14 713 114 l 618 242 b 407 85 594 146 525 85 b 189 322 264 85 193 188 l 738 322 l 738 367 b 400 704 738 581 604 704 b 69 354 203 704 69 578 z m 190 410 b 400 607 200 535 286 607 b 617 410 524 607 608 535 z "},"è":{"ha":808,"x_min":0,"x_max":0,"o":"m 646 894 l 210 1006 l 186 911 l 622 800 z m 69 354 b 408 -14 69 150 183 -14 b 740 242 621 -14 713 114 l 618 242 b 407 85 594 146 525 85 b 189 322 264 85 193 188 l 738 322 l 738 367 b 400 704 738 581 604 704 b 69 354 203 704 69 578 z m 190 410 b 400 607 200 535 286 607 b 617 410 524 607 608 535 z "},"ē":{"ha":808,"x_min":0,"x_max":0,"o":"m 183 954 l 183 854 l 644 856 l 644 954 z m 69 354 b 408 -14 69 150 183 -14 b 740 242 621 -14 713 114 l 618 242 b 407 85 594 146 525 85 b 189 322 264 85 193 188 l 738 322 l 738 367 b 400 704 738 581 604 704 b 69 354 203 704 69 578 z m 190 410 b 400 607 200 535 286 607 b 617 410 524 607 608 535 z "},"ę":{"ha":808,"x_min":0,"x_max":0,"o":"m 689 -168 l 438 -169 l 524 1 b 740 242 656 38 718 140 l 618 242 b 407 85 594 146 525 85 b 189 322 264 85 193 188 l 738 322 l 738 367 b 400 704 738 581 604 704 b 69 354 203 704 69 578 b 408 -14 69 150 183 -14 l 413 -14 l 342 -147 b 417 -268 304 -212 342 -268 l 689 -268 z m 190 410 b 400 607 200 535 286 607 b 617 410 524 607 608 535 z "},"ẽ":{"ha":808,"x_min":0,"x_max":0,"o":"m 156 819 l 256 819 b 311 917 256 903 281 917 b 524 806 372 917 407 806 b 671 1001 610 806 671 861 l 572 1001 b 515 904 572 918 546 904 b 303 1015 454 904 421 1015 b 156 819 217 1015 156 960 z m 69 354 b 408 -14 69 150 183 -14 b 740 242 621 -14 713 114 l 618 242 b 407 85 594 146 525 85 b 189 322 264 85 193 188 l 738 322 l 738 367 b 400 704 738 581 604 704 b 69 354 203 704 69 578 z m 190 410 b 400 607 200 535 286 607 b 617 410 524 607 608 535 z "},"ə":{"ha":808,"x_min":0,"x_max":0,"o":"m 68 449 l 190 449 b 401 606 214 544 283 606 b 619 368 544 606 615 503 l 71 368 l 71 324 b 408 -14 71 110 204 -14 b 739 336 606 -14 739 113 b 400 704 739 540 625 704 b 68 449 188 704 96 576 z m 192 281 l 618 281 b 408 83 608 156 522 83 b 192 281 285 83 200 156 z "},"f":{"ha":603,"x_min":0,"x_max":0,"o":"m 58 585 l 208 585 l 208 106 l 58 106 l 58 0 l 532 0 l 532 106 l 332 106 l 332 585 l 532 585 l 532 690 l 332 690 l 332 788 b 446 915 332 875 358 915 l 571 915 l 571 1021 l 451 1021 b 208 790 281 1021 208 931 l 208 690 l 58 690 z "},"g":{"ha":911,"x_min":0,"x_max":0,"o":"m 393 -14 b 690 171 544 -14 643 61 l 690 0 l 689 0 l 689 -165 l 189 -165 l 189 -271 l 717 -271 b 813 -186 782 -271 813 -242 l 813 690 l 690 690 l 690 519 b 393 704 644 626 547 704 b 69 346 196 704 69 556 b 393 -14 69 136 196 -14 z m 193 346 b 433 599 193 519 299 599 b 686 346 569 599 686 514 b 433 92 686 175 569 92 b 193 346 299 92 193 172 z "},"ğ":{"ha":911,"x_min":0,"x_max":0,"o":"m 393 -14 b 690 171 544 -14 643 61 l 690 0 l 689 0 l 689 -165 l 189 -165 l 189 -271 l 717 -271 b 813 -186 782 -271 813 -242 l 813 690 l 690 690 l 690 519 b 393 704 644 626 547 704 b 69 346 196 704 69 556 b 393 -14 69 136 196 -14 z m 193 346 b 433 599 193 519 299 599 b 686 346 569 599 686 514 b 433 92 686 175 569 92 b 193 346 299 92 193 172 z m 231 1024 b 451 781 231 882 311 781 b 672 1024 592 781 672 882 l 572 1024 b 451 876 572 921 538 876 b 331 1024 365 876 331 921 z "},"ĝ":{"ha":911,"x_min":0,"x_max":0,"o":"m 393 -14 b 690 171 544 -14 643 61 l 690 0 l 689 0 l 689 -165 l 189 -165 l 189 -271 l 717 -271 b 813 -186 782 -271 813 -242 l 813 690 l 690 690 l 690 519 b 393 704 644 626 547 704 b 69 346 196 704 69 556 b 393 -14 69 136 196 -14 z m 193 346 b 433 599 193 519 299 599 b 686 346 569 599 686 514 b 433 92 686 175 569 92 b 193 346 299 92 193 172 z m 219 846 l 290 776 l 451 907 l 611 776 l 682 846 l 451 1031 z "},"ģ":{"ha":911,"x_min":0,"x_max":0,"o":"m 393 -14 b 690 171 544 -14 643 61 l 690 0 l 689 0 l 689 -165 l 189 -165 l 189 -271 l 717 -271 b 813 -186 782 -271 813 -242 l 813 690 l 690 690 l 690 519 b 393 704 644 626 547 704 b 69 346 196 704 69 556 b 393 -14 69 136 196 -14 z m 193 346 b 433 599 193 519 299 599 b 686 346 569 599 686 514 b 433 92 686 175 569 92 b 193 346 299 92 193 172 z m 401 825 l 508 797 l 582 1053 l 475 1082 z "},"ġ":{"ha":911,"x_min":0,"x_max":0,"o":"m 393 -14 b 690 171 544 -14 643 61 l 690 0 l 689 0 l 689 -165 l 189 -165 l 189 -271 l 717 -271 b 813 -186 782 -271 813 -242 l 813 690 l 690 690 l 690 519 b 393 704 644 626 547 704 b 69 346 196 704 69 556 b 393 -14 69 136 196 -14 z m 193 346 b 433 599 193 519 299 599 b 686 346 569 599 686 514 b 433 92 686 175 569 92 b 193 346 299 92 193 172 z m 351 901 b 449 808 351 847 394 808 b 549 901 504 808 549 847 b 449 994 549 956 504 994 b 351 901 394 994 351 956 z "},"ḡ":{"ha":911,"x_min":0,"x_max":0,"o":"m 393 -14 b 690 171 544 -14 643 61 l 690 0 l 689 0 l 689 -165 l 189 -165 l 189 -271 l 717 -271 b 813 -186 782 -271 813 -242 l 813 690 l 690 690 l 690 519 b 393 704 644 626 547 704 b 69 346 196 704 69 556 b 393 -14 69 136 196 -14 z m 193 346 b 433 599 193 519 299 599 b 686 346 569 599 686 514 b 433 92 686 175 569 92 b 193 346 299 92 193 172 z m 221 854 l 682 856 l 682 954 l 221 954 z "},"h":{"ha":843,"x_min":0,"x_max":0,"o":"m 97 0 l 221 0 l 221 293 b 464 599 221 479 314 599 b 636 401 582 599 636 543 l 636 0 l 760 0 l 760 415 b 507 704 760 601 665 704 b 221 503 354 704 258 626 l 221 1021 l 97 1021 z "},"ħ":{"ha":858,"x_min":0,"x_max":0,"o":"m 111 0 l 235 0 l 235 293 b 478 599 235 479 328 599 b 650 401 596 599 650 543 l 650 0 l 774 0 l 774 415 b 521 704 774 601 679 704 b 235 503 368 704 272 626 l 235 843 l 431 843 l 431 943 l 235 943 l 235 1021 l 111 1021 l 111 943 l 31 943 l 31 843 l 111 843 z "},"ĥ":{"ha":843,"x_min":0,"x_max":0,"o":"m 97 0 l 221 0 l 221 293 b 464 599 221 479 314 599 b 636 401 582 599 636 543 l 636 0 l 760 0 l 760 415 b 507 704 760 601 665 704 b 221 503 354 704 258 626 l 221 1021 l 97 1021 z m -74 1176 l -3 1107 l 158 1238 l 318 1107 l 389 1176 l 158 1361 z "},"i":{"ha":615,"x_min":0,"x_max":0,"o":"m 72 0 l 571 0 l 571 106 l 378 106 l 378 610 b 300 690 378 667 350 690 l 121 690 l 121 585 l 264 585 l 264 106 l 72 106 z m 208 901 b 306 808 208 847 251 808 b 406 901 361 808 406 847 b 306 994 406 956 361 994 b 208 901 251 994 208 956 z "},"ı":{"ha":615,"x_min":0,"x_max":0,"o":"m 72 0 l 571 0 l 571 106 l 378 106 l 378 610 b 300 690 378 667 350 690 l 121 690 l 121 585 l 264 585 l 264 106 l 72 106 z "},"í":{"ha":615,"x_min":0,"x_max":0,"o":"m 72 0 l 571 0 l 571 106 l 378 106 l 378 610 b 300 690 378 667 350 690 l 121 690 l 121 585 l 264 585 l 264 106 l 72 106 z m 74 894 l 97 800 l 533 911 l 510 1006 z "},"î":{"ha":624,"x_min":0,"x_max":0,"o":"m 78 0 l 576 0 l 576 106 l 383 106 l 383 610 b 306 690 383 667 356 690 l 126 690 l 126 585 l 269 585 l 269 106 l 78 106 z m 78 846 l 149 776 l 310 907 l 469 776 l 540 846 l 310 1031 z "},"ï":{"ha":625,"x_min":0,"x_max":0,"o":"m 78 0 l 576 0 l 576 106 l 383 106 l 383 610 b 306 690 383 667 356 690 l 126 690 l 126 585 l 269 585 l 269 106 l 78 106 z m 63 896 b 163 799 63 840 106 799 b 265 896 221 799 265 840 b 163 993 265 951 221 993 b 63 896 106 993 63 951 z m 349 896 b 450 799 349 840 392 799 b 553 896 507 799 553 840 b 450 993 553 951 507 993 b 349 896 392 993 349 951 z "},"ì":{"ha":615,"x_min":0,"x_max":0,"o":"m 72 0 l 571 0 l 571 106 l 378 106 l 378 610 b 300 690 378 667 350 690 l 121 690 l 121 585 l 264 585 l 264 106 l 72 106 z m 81 911 l 517 800 l 540 894 l 104 1006 z "},"ĳ":{"ha":983,"x_min":0,"x_max":0,"o":"m 735 -40 l 618 -264 l 751 -264 l 857 -61 b 883 49 878 -21 883 3 l 883 611 b 796 690 883 669 851 690 l 121 690 l 121 585 l 264 585 l 264 106 l 72 106 l 72 0 l 571 0 l 571 106 l 378 106 l 378 585 l 761 585 l 761 71 b 735 -40 761 25 757 0 z m 208 901 b 306 808 208 847 250 808 b 406 901 361 808 406 847 b 306 994 406 956 361 994 b 208 901 250 994 208 956 z m 711 901 b 808 808 711 847 753 808 b 907 901 864 808 907 847 b 808 994 907 956 864 994 b 711 901 753 994 711 956 z "},"ī":{"ha":624,"x_min":0,"x_max":0,"o":"m 78 0 l 576 0 l 576 106 l 383 106 l 383 610 b 306 690 383 667 356 690 l 126 690 l 126 585 l 269 585 l 269 106 l 78 106 z m 82 854 l 543 856 l 543 954 l 82 954 z "},"į":{"ha":615,"x_min":0,"x_max":0,"o":"m 72 0 l 290 0 l 213 -147 b 288 -268 175 -212 213 -268 l 560 -268 l 560 -168 l 308 -169 l 393 0 l 571 0 l 571 106 l 378 106 l 378 610 b 300 690 378 667 350 690 l 121 690 l 121 585 l 264 585 l 264 106 l 72 106 z m 208 901 b 306 808 208 847 251 808 b 406 901 361 808 406 847 b 306 994 406 956 361 994 b 208 901 251 994 208 956 z "},"ĩ":{"ha":615,"x_min":0,"x_max":0,"o":"m 72 0 l 571 0 l 571 106 l 378 106 l 378 610 b 300 690 378 667 350 690 l 121 690 l 121 585 l 264 585 l 264 106 l 72 106 z m 50 819 l 150 819 b 206 917 150 903 175 917 b 418 806 267 917 301 806 b 565 1001 504 806 565 861 l 467 1001 b 410 904 467 918 440 904 b 197 1015 349 904 315 1015 b 50 819 111 1015 50 960 z "},"j":{"ha":422,"x_min":0,"x_max":0,"o":"m 174 -40 l 57 -264 l 190 -264 l 296 -61 b 322 49 317 -21 322 3 l 322 611 b 235 690 322 669 290 690 l 54 690 l 54 585 l 200 585 l 200 71 b 174 -40 200 25 196 0 z m 149 901 b 246 808 149 847 192 808 b 346 901 301 808 346 847 b 246 994 346 956 301 994 b 149 901 192 994 149 956 z "},"ȷ":{"ha":422,"x_min":0,"x_max":0,"o":"m 174 -40 l 57 -264 l 190 -264 l 296 -61 b 322 49 317 -21 322 3 l 322 611 b 235 690 322 669 290 690 l 54 690 l 54 585 l 200 585 l 200 71 b 174 -40 200 25 196 0 z "},"ĵ":{"ha":422,"x_min":0,"x_max":0,"o":"m 174 -40 l 57 -264 l 190 -264 l 296 -61 b 322 49 317 -21 322 3 l 322 611 b 235 690 322 669 290 690 l 54 690 l 54 585 l 200 585 l 200 71 b 174 -40 200 25 196 0 z m 17 846 l 88 776 l 249 907 l 408 776 l 479 846 l 249 1031 z "},"k":{"ha":758,"x_min":0,"x_max":0,"o":"m 97 0 l 221 0 l 221 311 l 553 0 l 711 0 l 333 356 l 714 690 l 553 690 l 221 401 l 221 1021 l 97 1021 z "},"ķ":{"ha":758,"x_min":0,"x_max":0,"o":"m 97 0 l 221 0 l 221 311 l 553 0 l 711 0 l 333 356 l 714 690 l 553 690 l 221 401 l 221 1021 l 97 1021 z m 242 -299 l 347 -328 l 422 -99 l 317 -68 z "},"l":{"ha":613,"x_min":0,"x_max":0,"o":"m 58 0 l 568 0 l 568 106 l 375 106 l 375 951 b 303 1021 375 997 349 1021 l 107 1021 l 107 915 l 251 915 l 251 106 l 58 106 z "},"ĺ":{"ha":621,"x_min":0,"x_max":0,"o":"m 65 0 l 575 0 l 575 106 l 382 106 l 382 951 b 310 1021 382 997 356 1021 l 114 1021 l 114 915 l 258 915 l 258 106 l 65 106 z m 56 1225 l 79 1131 l 515 1242 l 492 1336 z "},"ľ":{"ha":625,"x_min":0,"x_max":0,"o":"m 58 0 l 568 0 l 568 106 l 375 106 l 375 951 b 303 1021 375 997 349 1021 l 107 1021 l 107 915 l 251 915 l 251 106 l 58 106 z m 461 661 l 571 661 l 571 1021 l 461 1021 z "},"ļ":{"ha":613,"x_min":0,"x_max":0,"o":"m 58 0 l 568 0 l 568 106 l 375 106 l 375 951 b 303 1021 375 997 349 1021 l 107 1021 l 107 915 l 251 915 l 251 106 l 58 106 z m 175 -299 l 281 -328 l 356 -99 l 250 -68 z "},"ł":{"ha":613,"x_min":0,"x_max":0,"o":"m 58 0 l 568 0 l 568 106 l 375 106 l 375 474 l 561 524 l 536 619 l 375 575 l 375 951 b 303 1021 375 997 349 1021 l 107 1021 l 107 915 l 251 915 l 251 542 l 64 490 l 88 396 l 251 440 l 251 106 l 58 106 z "},"m":{"ha":1254,"x_min":0,"x_max":0,"o":"m 97 0 l 221 0 l 221 286 b 435 599 221 471 289 599 b 572 390 538 599 572 524 l 572 0 l 696 0 l 696 286 b 910 599 696 471 764 599 b 1047 390 1013 599 1047 524 l 1047 0 l 1171 0 l 1171 406 b 939 704 1171 590 1096 704 b 678 518 799 704 715 621 b 471 704 654 633 588 704 b 221 517 335 704 256 619 l 221 690 l 97 690 z "},"n":{"ha":843,"x_min":0,"x_max":0,"o":"m 97 0 l 221 0 l 221 293 b 464 599 221 479 314 599 b 636 401 582 599 636 543 l 636 0 l 760 0 l 760 415 b 507 704 760 601 665 704 b 221 503 354 704 258 626 l 221 690 l 97 690 z "},"ń":{"ha":843,"x_min":0,"x_max":0,"o":"m 97 0 l 221 0 l 221 293 b 464 599 221 479 314 599 b 636 401 582 599 636 543 l 636 0 l 760 0 l 760 415 b 507 704 760 601 665 704 b 221 503 354 704 258 626 l 221 690 l 97 690 z m 221 894 l 244 800 l 681 911 l 657 1006 z "},"ň":{"ha":843,"x_min":0,"x_max":0,"o":"m 97 0 l 221 0 l 221 293 b 464 599 221 479 314 599 b 636 401 582 599 636 543 l 636 0 l 760 0 l 760 415 b 507 704 760 601 665 704 b 221 503 354 704 258 626 l 221 690 l 97 690 z m 224 964 l 456 779 l 686 964 l 615 1032 l 456 901 l 294 1032 z "},"ņ":{"ha":843,"x_min":0,"x_max":0,"o":"m 97 0 l 221 0 l 221 293 b 464 599 221 479 314 599 b 636 401 582 599 636 543 l 636 0 l 760 0 l 760 415 b 507 704 760 601 665 704 b 221 503 354 704 258 626 l 221 690 l 97 690 z m 294 -299 l 400 -328 l 475 -99 l 369 -68 z "},"ñ":{"ha":843,"x_min":0,"x_max":0,"o":"m 97 0 l 221 0 l 221 293 b 464 599 221 479 314 599 b 636 401 582 599 636 543 l 636 0 l 760 0 l 760 415 b 507 704 760 601 665 704 b 221 503 354 704 258 626 l 221 690 l 97 690 z m 197 819 l 297 819 b 353 917 297 903 322 917 b 565 806 414 917 449 806 b 713 1001 651 806 713 861 l 614 1001 b 557 904 614 918 588 904 b 344 1015 496 904 463 1015 b 197 819 258 1015 197 960 z "},"ŋ":{"ha":843,"x_min":0,"x_max":0,"o":"m 97 0 l 221 0 l 221 293 b 464 599 221 479 314 599 b 636 401 582 599 636 543 l 636 -164 l 388 -164 l 388 -269 l 661 -269 b 760 -185 729 -269 760 -240 l 760 415 b 507 704 760 601 665 704 b 221 503 354 704 258 626 l 221 690 l 97 690 z "},"o":{"ha":871,"x_min":0,"x_max":0,"o":"m 69 346 b 436 -14 69 140 215 -14 b 801 346 656 -14 801 140 b 436 704 801 550 656 704 b 69 346 215 704 69 550 z m 192 346 b 436 599 192 485 278 599 b 679 346 593 599 679 485 b 436 92 679 206 593 92 b 192 346 278 92 192 206 z "},"ó":{"ha":871,"x_min":0,"x_max":0,"o":"m 69 346 b 436 -14 69 140 215 -14 b 801 346 656 -14 801 140 b 436 704 801 550 656 704 b 69 346 215 704 69 550 z m 192 346 b 436 599 192 485 278 599 b 679 346 593 599 679 485 b 436 92 679 206 593 92 b 192 346 278 92 192 206 z m 203 894 l 226 800 l 663 911 l 639 1006 z "},"ô":{"ha":871,"x_min":0,"x_max":0,"o":"m 69 346 b 436 -14 69 140 215 -14 b 801 346 656 -14 801 140 b 436 704 801 550 656 704 b 69 346 215 704 69 550 z m 192 346 b 436 599 192 485 278 599 b 679 346 593 599 679 485 b 436 92 679 206 593 92 b 192 346 278 92 192 206 z m 204 846 l 275 776 l 436 907 l 596 776 l 667 846 l 436 1031 z "},"ö":{"ha":871,"x_min":0,"x_max":0,"o":"m 69 346 b 436 -14 69 140 215 -14 b 801 346 656 -14 801 140 b 436 704 801 550 656 704 b 69 346 215 704 69 550 z m 192 346 b 436 599 192 485 278 599 b 679 346 593 599 679 485 b 436 92 679 206 593 92 b 192 346 278 92 192 206 z m 192 896 b 292 799 192 840 235 799 b 394 896 350 799 394 840 b 292 993 394 951 350 993 b 192 896 235 993 192 951 z m 478 896 b 579 799 478 840 521 799 b 682 896 636 799 682 840 b 579 993 682 951 636 993 b 478 896 521 993 478 951 z "},"ò":{"ha":871,"x_min":0,"x_max":0,"o":"m 69 346 b 436 -14 69 140 215 -14 b 801 346 656 -14 801 140 b 436 704 801 550 656 704 b 69 346 215 704 69 550 z m 192 346 b 436 599 192 485 278 599 b 679 346 593 599 679 485 b 436 92 679 206 593 92 b 192 346 278 92 192 206 z m 208 911 l 644 800 l 668 894 l 232 1006 z "},"ő":{"ha":871,"x_min":0,"x_max":0,"o":"m 69 346 b 436 -14 69 140 215 -14 b 801 346 656 -14 801 140 b 436 704 801 550 656 704 b 69 346 215 704 69 550 z m 179 847 l 249 781 l 454 975 l 385 1043 z m 192 346 b 436 599 192 485 278 599 b 679 346 593 599 679 485 b 436 92 679 206 593 92 b 192 346 278 92 192 206 z m 419 847 l 488 781 l 693 975 l 624 1043 z "},"ō":{"ha":871,"x_min":0,"x_max":0,"o":"m 69 346 b 436 -14 69 140 215 -14 b 801 346 656 -14 801 140 b 436 704 801 550 656 704 b 69 346 215 704 69 550 z m 192 346 b 436 599 192 485 278 599 b 679 346 593 599 679 485 b 436 92 679 206 593 92 b 192 346 278 92 192 206 z m 206 854 l 667 856 l 667 954 l 206 954 z "},"ø":{"ha":871,"x_min":0,"x_max":0,"o":"m 69 346 b 215 51 69 221 124 115 l 165 -35 l 240 -76 l 292 11 b 436 -14 335 -6 383 -14 b 801 346 656 -14 801 140 b 656 639 801 469 747 575 l 706 725 l 629 767 l 579 679 b 436 704 536 696 488 704 b 69 346 215 704 69 550 z m 192 346 b 436 599 192 485 278 599 b 524 585 468 599 497 594 l 272 149 b 192 346 219 196 192 267 z m 346 106 l 599 542 b 679 346 651 494 679 425 b 436 92 679 206 593 92 b 346 106 403 92 372 97 z "},"õ":{"ha":871,"x_min":0,"x_max":0,"o":"m 69 346 b 436 -14 69 140 215 -14 b 801 346 656 -14 801 140 b 436 704 801 550 656 704 b 69 346 215 704 69 550 z m 179 819 l 279 819 b 335 917 279 903 304 917 b 547 806 396 917 431 806 b 694 1001 633 806 694 861 l 596 1001 b 539 904 596 918 569 904 b 326 1015 478 904 444 1015 b 179 819 240 1015 179 960 z m 192 346 b 436 599 192 485 278 599 b 679 346 593 599 679 485 b 436 92 679 206 593 92 b 192 346 278 92 192 206 z "},"œ":{"ha":1424,"x_min":0,"x_max":0,"o":"m 69 346 b 436 -14 69 140 215 -14 b 740 136 571 -14 676 44 b 1024 -14 794 44 889 -14 b 1356 242 1236 -14 1328 114 l 1233 242 b 1022 85 1210 146 1140 85 b 804 322 879 85 808 188 l 1353 322 l 1353 367 b 1015 704 1353 581 1219 704 b 736 561 890 704 792 654 b 436 704 672 649 568 704 b 69 346 215 704 69 550 z m 192 346 b 436 599 192 485 278 599 b 679 346 593 599 679 485 b 436 92 679 206 593 92 b 192 346 278 92 192 206 z m 806 410 b 1015 607 815 535 901 607 b 1232 410 1139 607 1224 535 z "},"p":{"ha":910,"x_min":0,"x_max":0,"o":"m 97 -258 l 221 -258 l 221 168 b 517 -14 267 63 364 -14 b 840 344 715 -14 840 135 b 517 704 840 556 715 704 b 221 522 368 704 269 631 l 221 690 l 97 690 z m 224 344 b 476 599 224 515 342 599 b 718 344 611 599 718 518 b 476 92 718 172 611 92 b 224 344 342 92 224 176 z "},"þ":{"ha":910,"x_min":0,"x_max":0,"o":"m 97 -258 l 221 -258 l 221 168 b 517 -14 267 63 364 -14 b 840 344 715 -14 840 135 b 517 704 840 556 715 704 b 221 522 368 704 269 631 l 221 1021 l 97 1021 z m 224 344 b 476 599 224 515 342 599 b 718 344 611 599 718 518 b 476 92 718 172 611 92 b 224 344 342 92 224 176 z "},"q":{"ha":910,"x_min":0,"x_max":0,"o":"m 811 690 l 689 690 l 689 519 b 393 704 642 629 543 704 b 69 344 194 704 69 556 b 393 -14 69 135 194 -14 b 689 171 546 -14 643 64 l 689 -258 l 811 -258 z m 192 344 b 433 599 192 518 297 599 b 685 344 568 599 685 515 b 433 92 685 176 568 92 b 192 344 297 92 192 172 z "},"r":{"ha":619,"x_min":0,"x_max":0,"o":"m 99 594 l 99 0 l 222 0 l 222 585 l 586 585 l 586 690 l 196 690 b 99 594 131 690 99 660 z "},"ŕ":{"ha":622,"x_min":0,"x_max":0,"o":"m 103 594 l 103 0 l 226 0 l 226 585 l 590 585 l 590 690 l 200 690 b 103 594 135 690 103 660 z m 124 894 l 147 800 l 583 911 l 560 1006 z "},"ř":{"ha":624,"x_min":0,"x_max":0,"o":"m 101 594 l 101 0 l 225 0 l 225 585 l 589 585 l 589 690 l 199 690 b 101 594 133 690 101 660 z m 125 964 l 357 779 l 588 964 l 517 1032 l 357 901 l 196 1032 z "},"ŗ":{"ha":619,"x_min":0,"x_max":0,"o":"m 99 594 l 99 0 l 222 0 l 222 585 l 586 585 l 586 690 l 196 690 b 99 594 131 690 99 660 z m 25 -299 l 131 -328 l 206 -99 l 100 -68 z "},"s":{"ha":703,"x_min":0,"x_max":0,"o":"m 383 -14 b 656 182 561 -14 656 57 b 468 379 656 289 585 346 l 307 425 b 208 518 239 444 208 472 b 351 608 208 569 263 608 b 515 472 457 608 515 556 l 639 472 b 350 704 639 622 528 704 b 86 515 186 704 86 636 b 246 333 86 406 168 356 l 431 279 b 532 185 503 260 532 232 b 385 83 532 114 482 83 b 182 254 257 83 182 140 l 58 254 b 383 -14 58 83 178 -14 z "},"ś":{"ha":703,"x_min":0,"x_max":0,"o":"m 383 -14 b 656 182 561 -14 656 57 b 468 379 656 289 585 346 l 307 425 b 208 518 239 444 208 472 b 351 608 208 569 263 608 b 515 472 457 608 515 556 l 639 472 b 350 704 639 622 528 704 b 86 515 186 704 86 636 b 246 333 86 406 168 356 l 431 279 b 532 185 503 260 532 232 b 385 83 532 114 482 83 b 182 254 257 83 182 140 l 58 254 b 383 -14 58 83 178 -14 z m 124 894 l 147 800 l 583 911 l 560 1006 z "},"ꞌ":{"ha":339,"x_min":0,"x_max":0,"o":"m 110 1035 l 110 674 l 224 674 l 224 1035 z "},"š":{"ha":703,"x_min":0,"x_max":0,"o":"m 383 -14 b 656 182 561 -14 656 57 b 468 379 656 289 585 346 l 307 425 b 208 518 239 444 208 472 b 351 608 208 569 263 608 b 515 472 457 608 515 556 l 639 472 b 350 704 639 622 528 704 b 86 515 186 704 86 636 b 246 333 86 406 168 356 l 431 279 b 532 185 503 260 532 232 b 385 83 532 114 482 83 b 182 254 257 83 182 140 l 58 254 b 383 -14 58 83 178 -14 z m 126 964 l 358 779 l 589 964 l 518 1032 l 358 901 l 197 1032 z "},"ş":{"ha":703,"x_min":0,"x_max":0,"o":"m 224 -171 l 224 -260 b 522 -136 400 -260 522 -247 b 429 -58 522 -79 476 -58 b 333 -79 392 -58 360 -68 l 397 -14 b 656 182 567 -10 656 60 b 468 379 656 289 585 346 l 307 425 b 208 518 239 444 208 472 b 351 608 208 569 263 608 b 515 472 457 608 515 556 l 639 472 b 350 704 639 622 528 704 b 86 515 186 704 86 636 b 246 333 86 406 168 356 l 431 279 b 532 185 503 260 532 232 b 385 83 532 114 482 83 b 182 254 257 83 182 140 l 58 254 b 296 -7 58 110 144 18 l 243 -74 l 294 -136 b 392 -100 344 -106 367 -100 b 424 -128 411 -100 424 -110 b 224 -171 424 -172 351 -171 z "},"ŝ":{"ha":703,"x_min":0,"x_max":0,"o":"m 383 -14 b 656 182 561 -14 656 57 b 468 379 656 289 585 346 l 307 425 b 208 518 239 444 208 472 b 351 608 208 569 263 608 b 515 472 457 608 515 556 l 639 472 b 350 704 639 622 528 704 b 86 515 186 704 86 636 b 246 333 86 406 168 356 l 431 279 b 532 185 503 260 532 232 b 385 83 532 114 482 83 b 182 254 257 83 182 140 l 58 254 b 383 -14 58 83 178 -14 z m 126 846 l 197 776 l 358 907 l 518 776 l 589 846 l 358 1031 z "},"ș":{"ha":703,"x_min":0,"x_max":0,"o":"m 383 -14 b 656 182 561 -14 656 57 b 468 379 656 289 585 346 l 307 425 b 208 518 239 444 208 472 b 351 608 208 569 263 608 b 515 472 457 608 515 556 l 639 472 b 350 704 639 622 528 704 b 86 515 186 704 86 636 b 246 333 86 406 168 356 l 431 279 b 532 185 503 260 532 232 b 385 83 532 114 482 83 b 182 254 257 83 182 140 l 58 254 b 383 -14 58 83 178 -14 z m 221 -299 l 326 -328 l 401 -99 l 296 -68 z "},"ß":{"ha":779,"x_min":0,"x_max":0,"o":"m 301 0 l 481 0 b 757 246 638 0 757 71 b 644 453 757 363 697 417 l 590 490 b 517 571 554 514 517 531 b 561 643 517 603 536 618 l 607 686 b 665 822 644 724 665 765 b 392 1031 665 942 578 1031 b 100 750 215 1031 100 943 l 100 0 l 224 0 l 224 740 b 394 925 224 867 288 925 b 542 810 489 925 542 882 b 500 718 542 772 529 746 l 457 678 b 393 560 424 644 393 619 b 486 435 393 490 439 467 l 546 394 b 633 250 593 363 633 326 b 475 107 633 156 585 108 l 301 106 z "},"t":{"ha":610,"x_min":0,"x_max":0,"o":"m 551 106 l 307 104 l 307 585 l 524 585 l 524 690 l 307 690 l 307 903 l 183 865 l 183 690 l 31 690 l 31 585 l 183 585 l 183 97 b 281 0 183 31 215 0 l 551 0 z "},"ŧ":{"ha":610,"x_min":0,"x_max":0,"o":"m 551 106 l 307 104 l 307 351 l 483 351 l 483 444 l 307 444 l 307 585 l 524 585 l 524 690 l 307 690 l 307 903 l 183 865 l 183 690 l 31 690 l 31 585 l 183 585 l 183 444 l 58 444 l 58 351 l 183 351 l 183 97 b 281 0 183 31 215 0 l 551 0 z "},"ť":{"ha":611,"x_min":0,"x_max":0,"o":"m 551 106 l 307 104 l 307 585 l 524 585 l 524 690 l 307 690 l 307 903 l 183 865 l 183 690 l 31 690 l 31 585 l 183 585 l 183 97 b 281 0 183 31 215 0 l 551 0 z m 438 771 l 547 771 l 547 1021 l 438 1021 z "},"ţ":{"ha":610,"x_min":0,"x_max":0,"o":"m 551 106 l 307 104 l 307 585 l 524 585 l 524 690 l 307 690 l 307 903 l 183 865 l 183 690 l 31 690 l 31 585 l 183 585 l 183 97 b 281 0 183 31 215 0 l 318 0 l 260 -74 l 311 -136 b 408 -100 361 -106 383 -100 b 440 -128 428 -100 440 -110 b 240 -171 440 -172 368 -171 l 240 -260 b 539 -136 417 -260 539 -247 b 446 -58 539 -79 493 -58 b 350 -79 408 -58 376 -68 l 428 0 l 551 0 z "},"ț":{"ha":610,"x_min":0,"x_max":0,"o":"m 551 106 l 307 104 l 307 585 l 524 585 l 524 690 l 307 690 l 307 903 l 183 865 l 183 690 l 31 690 l 31 585 l 183 585 l 183 97 b 281 0 183 31 215 0 l 551 0 z m 239 -299 l 344 -328 l 419 -99 l 314 -68 z "},"u":{"ha":843,"x_min":0,"x_max":0,"o":"m 338 -14 b 624 189 489 -14 586 64 l 624 0 l 746 0 l 746 690 l 624 690 l 624 397 b 379 92 624 211 531 92 b 208 289 261 92 208 147 l 208 690 l 83 690 l 83 276 b 338 -14 83 90 178 -14 z "},"ú":{"ha":843,"x_min":0,"x_max":0,"o":"m 338 -14 b 624 189 489 -14 586 64 l 624 0 l 746 0 l 746 690 l 624 690 l 624 397 b 379 92 624 211 531 92 b 208 289 261 92 208 147 l 208 690 l 83 690 l 83 276 b 338 -14 83 90 178 -14 z m 192 894 l 215 800 l 651 911 l 628 1006 z "},"ŭ":{"ha":843,"x_min":0,"x_max":0,"o":"m 338 -14 b 624 189 489 -14 586 64 l 624 0 l 746 0 l 746 690 l 624 690 l 624 397 b 379 92 624 211 531 92 b 208 289 261 92 208 147 l 208 690 l 83 690 l 83 276 b 338 -14 83 90 178 -14 z m 204 1024 b 425 781 204 882 285 781 b 646 1024 565 781 646 882 l 546 1024 b 425 876 546 921 511 876 b 304 1024 339 876 304 921 z "},"û":{"ha":843,"x_min":0,"x_max":0,"o":"m 338 -14 b 624 189 489 -14 586 64 l 624 0 l 746 0 l 746 690 l 624 690 l 624 397 b 379 92 624 211 531 92 b 208 289 261 92 208 147 l 208 690 l 83 690 l 83 276 b 338 -14 83 90 178 -14 z m 193 846 l 264 776 l 425 907 l 585 776 l 656 846 l 425 1031 z "},"ü":{"ha":843,"x_min":0,"x_max":0,"o":"m 338 -14 b 624 189 489 -14 586 64 l 624 0 l 746 0 l 746 690 l 624 690 l 624 397 b 379 92 624 211 531 92 b 208 289 261 92 208 147 l 208 690 l 83 690 l 83 276 b 338 -14 83 90 178 -14 z m 181 896 b 281 799 181 840 224 799 b 383 896 339 799 383 840 b 281 993 383 951 339 993 b 181 896 224 993 181 951 z m 467 896 b 568 799 467 840 510 799 b 671 896 625 799 671 840 b 568 993 671 951 625 993 b 467 896 510 993 467 951 z "},"ù":{"ha":843,"x_min":0,"x_max":0,"o":"m 338 -14 b 624 189 489 -14 586 64 l 624 0 l 746 0 l 746 690 l 624 690 l 624 397 b 379 92 624 211 531 92 b 208 289 261 92 208 147 l 208 690 l 83 690 l 83 276 b 338 -14 83 90 178 -14 z m 199 911 l 635 800 l 658 894 l 222 1006 z "},"ű":{"ha":843,"x_min":0,"x_max":0,"o":"m 338 -14 b 624 189 489 -14 586 64 l 624 0 l 746 0 l 746 690 l 624 690 l 624 397 b 379 92 624 211 531 92 b 208 289 261 92 208 147 l 208 690 l 83 690 l 83 276 b 338 -14 83 90 178 -14 z m 168 847 l 238 781 l 443 975 l 374 1043 z m 408 847 l 476 781 l 682 975 l 613 1043 z "},"ū":{"ha":843,"x_min":0,"x_max":0,"o":"m 338 -14 b 624 189 489 -14 586 64 l 624 0 l 746 0 l 746 690 l 624 690 l 624 397 b 379 92 624 211 531 92 b 208 289 261 92 208 147 l 208 690 l 83 690 l 83 276 b 338 -14 83 90 178 -14 z m 196 854 l 657 856 l 657 954 l 196 954 z "},"ų":{"ha":843,"x_min":0,"x_max":0,"o":"m 338 -14 b 624 189 489 -14 586 64 l 624 0 l 642 0 l 564 -147 b 639 -268 526 -212 564 -268 l 911 -268 l 911 -168 l 660 -169 l 744 0 l 746 690 l 624 690 l 624 397 b 379 92 624 211 531 92 b 208 289 261 92 208 147 l 208 690 l 83 690 l 83 276 b 338 -14 83 90 178 -14 z "},"ů":{"ha":843,"x_min":0,"x_max":0,"o":"m 338 -14 b 624 189 489 -14 586 64 l 624 0 l 746 0 l 746 690 l 624 690 l 624 397 b 379 92 624 211 531 92 b 208 289 261 92 208 147 l 208 690 l 83 690 l 83 276 b 338 -14 83 90 178 -14 z m 256 929 b 424 776 256 846 315 776 b 594 929 532 776 594 847 b 424 1081 594 1011 532 1081 b 256 929 315 1081 256 1011 z m 351 929 b 424 992 351 968 378 992 b 499 929 471 992 499 968 b 424 864 499 889 472 864 b 351 929 378 864 351 889 z "},"ũ":{"ha":843,"x_min":0,"x_max":0,"o":"m 338 -14 b 624 189 489 -14 586 64 l 624 0 l 746 0 l 746 690 l 624 690 l 624 397 b 379 92 624 211 531 92 b 208 289 261 92 208 147 l 208 690 l 83 690 l 83 276 b 338 -14 83 90 178 -14 z m 168 819 l 268 819 b 324 917 268 903 293 917 b 536 806 385 917 419 806 b 683 1001 622 806 683 861 l 585 1001 b 528 904 585 918 558 904 b 315 1015 467 904 433 1015 b 168 819 229 1015 168 960 z "},"v":{"ha":756,"x_min":0,"x_max":0,"o":"m 606 690 l 381 43 l 153 690 l 28 690 l 274 0 l 486 0 l 728 690 z "},"w":{"ha":1219,"x_min":0,"x_max":0,"o":"m 49 690 l 236 0 l 451 0 l 610 646 l 769 0 l 978 0 l 1169 690 l 1051 690 l 893 131 l 875 60 l 715 690 l 503 690 l 344 54 l 325 131 l 165 690 z "},"ẃ":{"ha":1219,"x_min":0,"x_max":0,"o":"m 49 690 l 236 0 l 451 0 l 610 646 l 769 0 l 978 0 l 1169 690 l 1051 690 l 893 131 l 875 60 l 715 690 l 503 690 l 344 54 l 325 131 l 165 690 z m 376 894 l 400 800 l 836 911 l 813 1006 z "},"ŵ":{"ha":1219,"x_min":0,"x_max":0,"o":"m 49 690 l 236 0 l 451 0 l 610 646 l 769 0 l 978 0 l 1169 690 l 1051 690 l 893 131 l 875 60 l 715 690 l 503 690 l 344 54 l 325 131 l 165 690 z m 378 846 l 449 776 l 610 907 l 769 776 l 840 846 l 610 1031 z "},"ẅ":{"ha":1219,"x_min":0,"x_max":0,"o":"m 49 690 l 236 0 l 451 0 l 610 646 l 769 0 l 978 0 l 1169 690 l 1051 690 l 893 131 l 875 60 l 715 690 l 503 690 l 344 54 l 325 131 l 165 690 z m 365 896 b 465 799 365 840 408 799 b 568 896 524 799 568 840 b 465 993 568 951 524 993 b 365 896 408 993 365 951 z m 651 896 b 753 799 651 840 694 799 b 856 896 810 799 856 840 b 753 993 856 951 810 993 b 651 896 694 993 651 951 z "},"ẁ":{"ha":1219,"x_min":0,"x_max":0,"o":"m 49 690 l 236 0 l 451 0 l 610 646 l 769 0 l 978 0 l 1169 690 l 1051 690 l 893 131 l 875 60 l 715 690 l 503 690 l 344 54 l 325 131 l 165 690 z m 382 911 l 818 800 l 842 894 l 406 1006 z "},"x":{"ha":790,"x_min":0,"x_max":0,"o":"m 44 0 l 185 0 l 394 292 l 604 0 l 744 0 l 493 347 l 744 690 l 604 690 l 394 399 l 185 690 l 44 690 l 297 347 z "},"y":{"ha":835,"x_min":0,"x_max":0,"o":"m 751 690 l 628 690 l 628 397 b 385 92 628 211 535 92 b 213 289 267 92 213 147 l 213 690 l 89 690 l 89 275 b 342 -14 89 89 183 -14 b 628 188 494 -14 590 64 l 628 -165 l 128 -165 l 128 -271 l 656 -271 b 751 -186 721 -271 751 -242 z "},"ý":{"ha":835,"x_min":0,"x_max":0,"o":"m 751 690 l 628 690 l 628 397 b 385 92 628 211 535 92 b 213 289 267 92 213 147 l 213 690 l 89 690 l 89 275 b 342 -14 89 89 183 -14 b 628 188 494 -14 590 64 l 628 -165 l 128 -165 l 128 -271 l 656 -271 b 751 -186 721 -271 751 -242 z m 194 894 l 218 800 l 654 911 l 631 1006 z "},"ŷ":{"ha":835,"x_min":0,"x_max":0,"o":"m 751 690 l 628 690 l 628 397 b 385 92 628 211 535 92 b 213 289 267 92 213 147 l 213 690 l 89 690 l 89 275 b 342 -14 89 89 183 -14 b 628 188 494 -14 590 64 l 628 -165 l 128 -165 l 128 -271 l 656 -271 b 751 -186 721 -271 751 -242 z m 196 846 l 267 776 l 428 907 l 588 776 l 658 846 l 428 1031 z "},"ÿ":{"ha":835,"x_min":0,"x_max":0,"o":"m 751 690 l 628 690 l 628 397 b 385 92 628 211 535 92 b 213 289 267 92 213 147 l 213 690 l 89 690 l 89 275 b 342 -14 89 89 183 -14 b 628 188 494 -14 590 64 l 628 -165 l 128 -165 l 128 -271 l 656 -271 b 751 -186 721 -271 751 -242 z m 183 896 b 283 799 183 840 226 799 b 386 896 342 799 386 840 b 283 993 386 951 342 993 b 183 896 226 993 183 951 z m 469 896 b 571 799 469 840 513 799 b 674 896 628 799 674 840 b 571 993 674 951 628 993 b 469 896 513 993 469 951 z "},"ỳ":{"ha":835,"x_min":0,"x_max":0,"o":"m 751 690 l 628 690 l 628 397 b 385 92 628 211 535 92 b 213 289 267 92 213 147 l 213 690 l 89 690 l 89 275 b 342 -14 89 89 183 -14 b 628 188 494 -14 590 64 l 628 -165 l 128 -165 l 128 -271 l 656 -271 b 751 -186 721 -271 751 -242 z m 201 911 l 638 800 l 661 894 l 225 1006 z "},"ỹ":{"ha":835,"x_min":0,"x_max":0,"o":"m 751 690 l 628 690 l 628 397 b 385 92 628 211 535 92 b 213 289 267 92 213 147 l 213 690 l 89 690 l 89 275 b 342 -14 89 89 183 -14 b 628 188 494 -14 590 64 l 628 -165 l 128 -165 l 128 -271 l 656 -271 b 751 -186 721 -271 751 -242 z m 171 819 l 271 819 b 326 917 271 903 296 917 b 539 806 388 917 422 806 b 686 1001 625 806 686 861 l 588 1001 b 531 904 588 918 561 904 b 318 1015 469 904 436 1015 b 171 819 232 1015 171 960 z "},"z":{"ha":743,"x_min":0,"x_max":0,"o":"m 71 0 l 672 0 l 672 99 l 114 99 l 672 496 l 672 690 l 71 690 l 71 594 l 629 594 l 71 196 z "},"ź":{"ha":743,"x_min":0,"x_max":0,"o":"m 71 0 l 672 0 l 672 99 l 114 99 l 672 496 l 672 690 l 71 690 l 71 594 l 629 594 l 71 196 z m 139 894 l 163 800 l 599 911 l 575 1006 z "},"ž":{"ha":743,"x_min":0,"x_max":0,"o":"m 71 0 l 672 0 l 672 99 l 114 99 l 672 496 l 672 690 l 71 690 l 71 594 l 629 594 l 71 196 z m 140 964 l 372 779 l 603 964 l 532 1032 l 372 901 l 211 1032 z "},"ż":{"ha":743,"x_min":0,"x_max":0,"o":"m 71 0 l 672 0 l 672 99 l 114 99 l 672 496 l 672 690 l 71 690 l 71 594 l 629 594 l 71 196 z m 272 901 b 369 808 272 847 315 808 b 469 901 425 808 469 847 b 369 994 469 956 425 994 b 272 901 315 994 272 956 z "},"ﬁ":{"ha":1079,"x_min":0,"x_max":0,"o":"m 446 915 l 761 915 l 761 1021 l 451 1021 b 210 778 281 1021 210 924 l 210 690 l 58 690 l 58 585 l 210 585 l 210 106 l 58 106 l 58 0 l 1035 0 l 1035 106 l 843 106 l 843 594 b 750 690 843 661 815 690 l 332 690 l 332 776 b 446 915 332 864 358 915 z m 332 106 l 332 585 l 719 585 l 719 106 z "},"ﬂ":{"ha":1065,"x_min":0,"x_max":0,"o":"m 58 585 l 208 585 l 208 106 l 58 106 l 58 0 l 1021 0 l 1021 106 l 826 106 l 826 951 b 754 1021 826 997 801 1021 l 451 1021 b 208 790 281 1021 208 931 l 208 690 l 58 690 z m 332 106 l 332 585 l 532 585 l 532 690 l 332 690 l 332 788 b 446 915 332 875 358 915 l 704 915 l 704 106 z "},"А":{"ha":969,"x_min":0,"x_max":0,"o":"m 38 0 l 168 0 l 296 375 l 674 375 l 800 0 l 932 0 l 599 979 l 372 979 z m 332 483 l 485 932 l 636 483 z "},"Б":{"ha":882,"x_min":0,"x_max":0,"o":"m 738 979 l 100 979 l 100 0 l 431 0 b 808 308 656 0 808 58 b 431 611 808 553 656 611 l 226 611 l 226 871 l 738 871 z m 226 106 l 226 506 l 436 506 b 683 308 592 506 683 469 b 436 106 683 143 592 106 z "},"В":{"ha":960,"x_min":0,"x_max":0,"o":"m 100 0 l 489 0 b 882 261 729 0 882 61 b 636 517 882 418 781 501 b 810 740 728 535 810 610 b 431 979 810 932 672 979 l 100 979 z m 226 106 l 226 460 l 493 460 b 756 282 656 460 756 424 b 493 106 756 131 657 106 z m 226 560 l 226 876 l 436 876 b 685 718 590 876 685 867 b 436 560 685 581 589 560 z "},"Г":{"ha":760,"x_min":0,"x_max":0,"o":"m 186 979 b 99 892 131 979 99 949 l 99 0 l 225 0 l 225 871 l 715 871 l 715 979 z "},"Ѓ":{"ha":760,"x_min":0,"x_max":0,"o":"m 186 979 b 99 892 131 979 99 949 l 99 0 l 225 0 l 225 871 l 715 871 l 715 979 z m 147 1183 l 171 1089 l 607 1200 l 583 1294 z "},"Ґ":{"ha":756,"x_min":0,"x_max":0,"o":"m 186 979 b 99 892 131 979 99 949 l 99 0 l 225 0 l 225 871 l 715 871 l 715 1111 l 589 1111 l 589 979 z "},"Д":{"ha":1106,"x_min":0,"x_max":0,"o":"m 910 979 l 293 979 b 169 108 293 568 258 319 l 124 108 b 36 21 67 108 36 76 l 36 -185 l 163 -185 l 163 0 l 931 0 l 931 -185 l 1056 -185 l 1056 21 b 968 108 1056 76 1025 108 l 910 108 z m 296 108 b 419 871 376 299 414 522 l 783 871 l 783 108 z "},"Е":{"ha":853,"x_min":0,"x_max":0,"o":"m 100 0 l 781 0 l 781 108 l 226 108 l 226 438 l 711 438 l 711 543 l 226 543 l 226 871 l 781 871 l 781 979 l 100 979 z "},"Ѐ":{"ha":853,"x_min":0,"x_max":0,"o":"m 100 0 l 781 0 l 781 108 l 226 108 l 226 438 l 711 438 l 711 543 l 226 543 l 226 871 l 781 871 l 781 979 l 100 979 z m 182 1200 l 618 1089 l 642 1183 l 206 1294 z "},"Ё":{"ha":853,"x_min":0,"x_max":0,"o":"m 100 0 l 781 0 l 781 108 l 226 108 l 226 438 l 711 438 l 711 543 l 226 543 l 226 871 l 781 871 l 781 979 l 100 979 z m 165 1185 b 265 1088 165 1129 208 1088 b 368 1185 324 1088 368 1129 b 265 1282 368 1240 324 1282 b 165 1185 208 1282 165 1240 z m 451 1185 b 553 1088 451 1129 494 1088 b 656 1185 610 1088 656 1129 b 553 1282 656 1240 610 1282 b 451 1185 494 1282 451 1240 z "},"Ж":{"ha":1418,"x_min":0,"x_max":0,"o":"m 1211 0 l 1374 0 l 947 499 l 1213 872 l 1379 872 l 1379 981 l 1208 981 b 1099 926 1163 981 1128 964 l 829 550 l 772 550 l 772 979 l 647 979 l 647 550 l 590 550 l 321 926 b 211 981 294 961 261 981 l 39 981 l 39 872 l 207 872 l 474 500 l 46 0 l 208 0 l 590 444 l 647 444 l 647 0 l 772 0 l 772 444 l 829 444 z "},"З":{"ha":942,"x_min":0,"x_max":0,"o":"m 203 374 l 78 374 b 486 -15 78 99 235 -15 b 858 275 721 -15 858 89 b 679 515 858 408 781 489 b 844 735 786 539 844 629 b 486 994 844 889 721 994 b 92 657 235 994 92 881 l 217 657 b 479 886 217 811 299 886 b 719 710 653 886 719 814 b 550 567 719 624 664 567 l 414 567 l 414 463 l 550 463 b 733 292 664 463 733 400 b 482 93 733 163 653 93 b 203 374 299 93 203 167 z "},"И":{"ha":1058,"x_min":0,"x_max":0,"o":"m 958 0 l 958 979 l 725 979 l 226 44 l 226 979 l 100 979 l 100 0 l 333 0 l 833 935 l 833 0 z "},"Й":{"ha":1058,"x_min":0,"x_max":0,"o":"m 958 0 l 958 979 l 725 979 l 226 44 l 226 979 l 100 979 l 100 0 l 333 0 l 833 935 l 833 0 z m 308 1313 b 529 1069 308 1171 389 1069 b 750 1313 669 1069 750 1171 l 650 1313 b 529 1165 650 1210 615 1165 b 408 1313 443 1165 408 1210 z "},"Ѝ":{"ha":1058,"x_min":0,"x_max":0,"o":"m 958 0 l 958 979 l 725 979 l 226 44 l 226 979 l 100 979 l 100 0 l 333 0 l 833 935 l 833 0 z m 303 1200 l 739 1089 l 763 1183 l 326 1294 z "},"К":{"ha":928,"x_min":0,"x_max":0,"o":"m 100 0 l 226 0 l 226 447 l 286 447 l 710 0 l 874 0 l 406 499 l 711 872 l 879 872 l 879 981 l 711 981 b 606 926 664 981 635 960 l 292 546 l 226 546 l 226 979 l 100 979 z "},"Ќ":{"ha":928,"x_min":0,"x_max":0,"o":"m 100 0 l 226 0 l 226 447 l 286 447 l 710 0 l 874 0 l 406 499 l 711 872 l 879 872 l 879 981 l 711 981 b 606 926 664 981 635 960 l 292 546 l 226 546 l 226 979 l 100 979 z m 231 1183 l 254 1089 l 690 1200 l 667 1294 z "},"Л":{"ha":965,"x_min":0,"x_max":0,"o":"m 43 108 l 43 0 b 382 871 358 0 381 400 l 739 871 l 739 0 l 865 0 l 865 979 l 256 979 b 43 108 256 518 260 108 z "},"М":{"ha":1260,"x_min":0,"x_max":0,"o":"m 100 0 l 226 0 l 226 928 l 529 0 l 732 0 l 1033 928 l 1033 0 l 1160 0 l 1160 979 l 929 979 l 632 46 l 335 979 l 100 979 z "},"Н":{"ha":1017,"x_min":0,"x_max":0,"o":"m 100 979 l 100 0 l 226 0 l 226 428 l 785 428 l 785 0 l 911 0 l 911 979 l 785 979 l 785 538 l 226 538 l 226 979 z "},"О":{"ha":1085,"x_min":0,"x_max":0,"o":"m 81 490 b 543 -15 81 203 253 -15 b 1004 490 833 -15 1004 203 b 543 994 1004 776 833 994 b 81 490 253 994 81 776 z m 208 490 b 543 885 208 719 318 885 b 878 490 768 885 878 719 b 543 94 878 260 768 94 b 208 490 318 94 208 260 z "},"П":{"ha":957,"x_min":0,"x_max":0,"o":"m 100 979 l 100 0 l 226 0 l 226 871 l 731 871 l 731 0 l 857 0 l 857 979 z "},"Р":{"ha":861,"x_min":0,"x_max":0,"o":"m 100 0 l 226 0 l 226 331 l 385 331 b 793 656 646 331 793 406 b 385 979 793 904 646 979 l 100 979 z m 226 439 l 226 871 l 389 871 b 668 656 551 871 668 838 b 389 439 668 472 551 439 z "},"С":{"ha":1072,"x_min":0,"x_max":0,"o":"m 544 -15 b 992 379 797 -15 963 135 l 865 379 b 544 94 843 200 731 94 b 208 490 324 94 208 257 b 544 885 208 722 324 885 b 865 601 731 885 843 781 l 992 601 b 544 994 963 844 797 994 b 81 490 253 994 81 776 b 544 -15 81 203 253 -15 z "},"Т":{"ha":917,"x_min":0,"x_max":0,"o":"m 58 979 l 58 871 l 396 871 l 396 0 l 522 0 l 522 871 l 858 871 l 858 979 z "},"У":{"ha":899,"x_min":0,"x_max":0,"o":"m 725 979 l 458 424 l 189 979 l 57 979 l 396 296 l 396 108 l 117 110 l 117 1 l 424 0 b 521 88 489 0 521 31 l 521 296 l 858 979 z "},"Ф":{"ha":1142,"x_min":0,"x_max":0,"o":"m 514 988 l 514 851 b 56 488 217 839 56 719 b 514 122 56 254 217 135 l 514 -8 l 628 -8 l 628 122 b 1085 488 922 135 1085 254 b 628 851 1085 719 925 839 l 628 988 z m 183 488 b 514 744 183 663 296 735 l 514 229 b 183 488 296 239 183 313 z m 628 229 l 628 744 b 957 488 846 735 957 663 b 628 229 957 313 846 239 z "},"Х":{"ha":949,"x_min":0,"x_max":0,"o":"m 915 0 l 574 490 l 915 979 l 772 979 l 475 550 l 176 979 l 33 979 l 374 490 l 33 0 l 176 0 l 475 432 l 772 0 z "},"Ч":{"ha":978,"x_min":0,"x_max":0,"o":"m 99 979 l 99 411 b 176 332 99 356 125 332 l 751 332 l 751 0 l 878 0 l 878 979 l 751 979 l 751 443 l 225 443 l 225 979 z "},"Ц":{"ha":979,"x_min":0,"x_max":0,"o":"m 100 0 l 878 0 l 878 -185 l 1003 -185 l 1003 21 b 915 108 1003 76 972 108 l 857 108 l 857 979 l 731 979 l 731 108 l 226 108 l 226 979 l 100 979 z "},"Ш":{"ha":1324,"x_min":0,"x_max":0,"o":"m 100 0 l 1224 0 l 1224 979 l 1097 979 l 1097 108 l 725 108 l 725 979 l 599 979 l 599 108 l 226 108 l 226 979 l 100 979 z "},"Щ":{"ha":1346,"x_min":0,"x_max":0,"o":"m 100 0 l 1272 0 l 1272 -185 l 1397 -185 l 1397 21 b 1310 108 1397 76 1367 108 l 1224 108 l 1224 979 l 1097 979 l 1097 108 l 725 108 l 725 979 l 599 979 l 599 108 l 226 108 l 226 979 l 100 979 z "},"Џ":{"ha":964,"x_min":0,"x_max":0,"o":"m 100 0 l 419 0 l 419 -185 l 544 -185 l 544 0 l 864 0 l 864 979 l 738 979 l 738 108 l 226 108 l 226 979 l 100 979 z "},"Ь":{"ha":878,"x_min":0,"x_max":0,"o":"m 226 979 l 100 979 l 100 0 l 431 0 b 808 308 656 0 808 58 b 431 611 808 553 656 611 l 226 611 z m 226 106 l 226 506 l 436 506 b 683 308 592 506 683 469 b 436 106 683 143 592 106 z "},"Ы":{"ha":1201,"x_min":0,"x_max":0,"o":"m 226 979 l 100 979 l 100 0 l 431 0 b 808 308 656 0 808 58 b 431 611 808 553 656 611 l 226 611 z m 226 106 l 226 506 l 436 506 b 683 308 592 506 683 469 b 436 106 683 143 592 106 z m 978 0 l 1101 0 l 1101 979 l 978 979 z "},"Ъ":{"ha":904,"x_min":0,"x_max":0,"o":"m 253 979 l -47 979 l -47 871 l 126 871 l 126 0 l 457 0 b 835 308 682 0 835 58 b 457 611 835 553 682 611 l 253 611 z m 253 106 l 253 506 l 463 506 b 710 308 618 506 710 469 b 463 106 710 143 618 106 z "},"Љ":{"ha":1517,"x_min":0,"x_max":0,"o":"m 43 108 l 43 0 b 382 871 358 0 381 400 l 739 871 l 739 0 l 1069 0 b 1447 308 1294 0 1447 58 b 1069 611 1447 553 1294 611 l 865 611 l 865 979 l 256 979 b 43 108 256 518 260 108 z m 865 106 l 865 506 l 1075 506 b 1322 308 1231 506 1322 469 b 1075 106 1322 143 1231 106 z "},"Њ":{"ha":1563,"x_min":0,"x_max":0,"o":"m 100 979 l 100 0 l 226 0 l 226 428 l 785 428 l 785 0 l 1115 0 b 1493 308 1340 0 1493 58 b 1115 611 1493 553 1340 611 l 911 611 l 911 979 l 785 979 l 785 538 l 226 538 l 226 979 z m 911 106 l 911 506 l 1121 506 b 1368 308 1276 506 1368 469 b 1121 106 1368 143 1276 106 z "},"Ѕ":{"ha":947,"x_min":0,"x_max":0,"o":"m 889 261 b 653 522 889 390 811 482 l 382 590 b 233 740 275 618 233 671 b 453 889 233 840 310 889 b 731 656 638 889 731 811 l 860 656 b 453 994 860 867 719 994 b 106 735 228 994 106 904 b 324 489 106 618 169 529 l 597 418 b 761 254 711 389 761 331 b 517 92 761 146 686 92 b 188 368 300 92 188 181 l 60 368 b 514 -15 60 122 217 -15 b 889 261 775 -15 889 86 z "},"Є":{"ha":1072,"x_min":0,"x_max":0,"o":"m 544 -15 b 992 379 797 -15 963 135 l 865 379 b 544 94 843 200 731 94 b 210 439 340 94 226 233 l 619 439 l 619 539 l 210 539 b 544 885 225 744 339 885 b 865 601 731 885 843 781 l 992 601 b 544 994 963 844 797 994 b 81 490 253 994 81 776 b 544 -15 81 203 253 -15 z "},"Э":{"ha":1072,"x_min":0,"x_max":0,"o":"m 528 994 b 81 600 275 994 110 844 l 207 600 b 528 885 229 779 342 885 b 863 540 732 885 846 746 l 453 540 l 453 440 l 863 440 b 528 94 847 235 733 94 b 207 378 342 94 229 199 l 81 378 b 528 -15 110 135 275 -15 b 992 489 819 -15 992 203 b 528 994 992 776 819 994 z "},"І":{"ha":733,"x_min":0,"x_max":0,"o":"m 85 979 l 85 871 l 304 871 l 304 108 l 85 108 l 85 0 l 649 0 l 649 108 l 429 108 l 429 871 l 649 871 l 649 979 z "},"Ї":{"ha":733,"x_min":0,"x_max":0,"o":"m 85 979 l 85 871 l 304 871 l 304 108 l 85 108 l 85 0 l 649 0 l 649 108 l 429 108 l 429 871 l 649 871 l 649 979 z m 122 1185 b 222 1088 122 1129 165 1088 b 325 1185 281 1088 325 1129 b 222 1282 325 1240 281 1282 b 122 1185 165 1282 122 1240 z m 408 1185 b 510 1088 408 1129 451 1088 b 613 1185 567 1088 613 1129 b 510 1282 613 1240 567 1282 b 408 1185 451 1282 408 1240 z "},"Ј":{"ha":754,"x_min":0,"x_max":0,"o":"m 392 0 b 669 308 572 0 669 108 l 669 889 b 574 979 669 956 644 979 l 186 979 l 186 871 l 544 871 l 544 343 b 363 108 544 196 500 108 l 46 108 l 46 0 z "},"Ћ":{"ha":1272,"x_min":0,"x_max":0,"o":"m 1047 0 l 1174 0 l 1174 543 b 1094 622 1174 599 1147 622 l 522 622 l 522 871 l 858 871 l 858 979 l 58 979 l 58 871 l 396 871 l 396 0 l 522 0 l 522 511 l 1047 511 z "},"Ю":{"ha":1307,"x_min":0,"x_max":0,"o":"m 506 490 b 803 883 506 722 599 883 b 1097 490 1006 883 1097 722 b 803 96 1097 258 1006 96 b 506 490 599 96 506 258 z m 100 0 l 226 0 l 226 435 l 378 435 b 803 -15 396 174 539 -15 b 1226 490 1082 -15 1226 200 b 803 994 1226 779 1082 994 b 378 546 539 994 396 807 l 226 546 l 226 979 l 100 979 z "},"Я":{"ha":896,"x_min":0,"x_max":0,"o":"m 796 0 l 796 979 l 475 979 b 94 713 240 979 94 924 b 353 451 94 540 190 471 l 211 108 l 49 108 l 49 0 l 219 0 b 324 58 267 0 304 19 l 485 444 l 669 444 l 669 0 z m 219 713 b 468 875 219 853 311 875 l 669 875 l 669 549 l 468 549 b 219 713 311 549 219 569 z "},"Ђ":{"ha":1176,"x_min":0,"x_max":0,"o":"m 58 979 l 58 871 l 392 871 l 392 0 l 517 0 l 517 514 l 754 514 b 982 325 904 514 982 485 b 728 108 982 194 926 108 l 728 0 b 1107 325 928 0 1107 58 b 768 622 1107 539 1007 622 l 517 622 l 517 871 l 850 871 l 850 979 z "},"а":{"ha":828,"x_min":0,"x_max":0,"o":"m 69 192 b 303 -14 69 119 100 -14 b 586 171 474 -14 554 74 l 586 83 b 669 0 586 31 617 0 l 796 0 l 796 106 l 694 106 l 694 394 b 388 704 694 581 588 704 b 85 444 207 704 100 601 l 207 444 b 385 604 218 560 289 604 b 571 419 510 604 565 544 l 300 393 b 69 192 136 378 69 301 z m 192 207 b 321 306 192 274 236 297 l 571 332 b 322 88 571 193 472 88 b 192 207 243 88 192 128 z "},"б":{"ha":894,"x_min":0,"x_max":0,"o":"m 83 443 b 454 -14 83 146 215 -14 b 822 354 703 -14 822 143 b 476 704 822 557 694 704 b 175 490 325 704 215 615 l 175 497 b 464 815 175 665 281 765 b 797 1035 649 864 772 894 l 654 1035 b 447 910 642 982 599 957 b 83 443 204 835 83 713 z m 207 340 b 454 599 207 501 301 599 b 699 353 614 599 699 503 b 454 92 699 189 613 92 b 207 340 293 92 207 211 z "},"в":{"ha":769,"x_min":0,"x_max":0,"o":"m 97 0 l 439 0 b 719 185 607 0 719 49 b 536 364 719 303 639 354 b 668 518 607 378 668 424 b 388 690 668 657 556 690 l 97 690 z m 214 88 l 214 315 l 439 315 b 601 197 544 315 601 289 b 439 88 601 117 550 88 z m 214 401 l 214 604 l 388 604 b 550 506 499 604 550 581 b 388 401 550 415 494 401 z "},"г":{"ha":617,"x_min":0,"x_max":0,"o":"m 97 594 l 97 0 l 221 0 l 221 585 l 585 585 l 585 690 l 194 690 b 97 594 129 690 97 660 z "},"ѓ":{"ha":624,"x_min":0,"x_max":0,"o":"m 100 594 l 100 0 l 224 0 l 224 585 l 588 585 l 588 690 l 197 690 b 100 594 132 690 100 660 z m 126 894 l 150 800 l 586 911 l 563 1006 z "},"ґ":{"ha":624,"x_min":0,"x_max":0,"o":"m 97 594 l 97 0 l 221 0 l 221 585 l 586 585 l 586 851 l 463 851 l 463 690 l 194 690 b 97 594 129 690 97 660 z "},"д":{"ha":931,"x_min":0,"x_max":0,"o":"m 169 106 l 128 106 b 42 19 72 106 42 75 l 42 -183 l 164 -183 l 164 0 l 774 0 l 774 -183 l 896 -183 l 896 19 b 810 106 896 75 865 106 l 754 106 l 754 690 l 271 690 b 169 106 271 419 243 253 z m 289 106 b 390 588 354 233 383 375 l 632 588 l 632 106 z "},"е":{"ha":808,"x_min":0,"x_max":0,"o":"m 69 354 b 408 -14 69 150 183 -14 b 740 242 621 -14 713 114 l 618 242 b 407 85 594 146 525 85 b 189 322 264 85 193 188 l 738 322 l 738 367 b 400 704 738 581 604 704 b 69 354 203 704 69 578 z m 190 410 b 400 607 200 535 286 607 b 617 410 524 607 608 535 z "},"ѐ":{"ha":808,"x_min":0,"x_max":0,"o":"m 646 894 l 210 1006 l 186 911 l 622 800 z m 69 354 b 408 -14 69 150 183 -14 b 740 242 621 -14 713 114 l 618 242 b 407 85 594 146 525 85 b 189 322 264 85 193 188 l 738 322 l 738 367 b 400 704 738 581 604 704 b 69 354 203 704 69 578 z m 190 410 b 400 607 200 535 286 607 b 617 410 524 607 608 535 z "},"ё":{"ha":808,"x_min":0,"x_max":0,"o":"m 268 799 b 371 896 326 799 371 840 b 268 993 371 951 326 993 b 168 896 211 993 168 951 b 268 799 168 840 211 799 z m 69 354 b 408 -14 69 150 183 -14 b 740 242 621 -14 713 114 l 618 242 b 407 85 594 146 525 85 b 189 322 264 85 193 188 l 738 322 l 738 367 b 400 704 738 581 604 704 b 69 354 203 704 69 578 z m 190 410 b 400 607 200 535 286 607 b 617 410 524 607 608 535 z m 454 896 b 556 799 454 840 497 799 b 658 896 613 799 658 840 b 556 993 658 951 613 993 b 454 896 497 993 454 951 z "},"ж":{"ha":1122,"x_min":0,"x_max":0,"o":"m 622 690 l 500 690 l 500 400 l 469 400 l 268 639 b 163 690 238 672 208 690 l 53 690 l 53 585 l 164 585 l 358 351 l 38 0 l 190 0 l 463 299 l 500 299 l 500 0 l 622 0 l 622 299 l 660 299 l 932 0 l 1085 0 l 764 351 l 958 585 l 1069 585 l 1069 690 l 960 690 b 854 639 914 690 885 672 l 651 400 l 622 400 z "},"з":{"ha":774,"x_min":0,"x_max":0,"o":"m 197 269 l 78 269 b 396 -14 78 72 197 -14 b 690 197 586 -14 690 69 b 550 365 690 292 629 350 b 675 519 626 382 675 435 b 390 704 675 624 579 704 b 93 475 192 704 93 619 l 213 475 b 393 614 213 558 260 614 b 557 511 522 614 557 564 b 432 408 557 447 524 408 l 342 408 l 342 321 l 432 321 b 572 207 529 321 572 278 b 400 76 572 128 531 76 b 197 269 261 76 197 136 z "},"и":{"ha":874,"x_min":0,"x_max":0,"o":"m 775 0 l 775 690 l 563 690 l 214 46 l 214 690 l 97 690 l 97 0 l 311 0 l 658 647 l 658 0 z "},"й":{"ha":874,"x_min":0,"x_max":0,"o":"m 775 0 l 775 690 l 563 690 l 214 46 l 214 690 l 97 690 l 97 0 l 311 0 l 658 647 l 658 0 z m 217 1024 b 438 781 217 882 297 781 b 658 1024 578 781 658 882 l 558 1024 b 438 876 558 921 524 876 b 317 1024 351 876 317 921 z "},"к":{"ha":732,"x_min":0,"x_max":0,"o":"m 97 690 l 97 0 l 221 0 l 221 299 l 268 299 l 542 0 l 693 0 l 371 351 l 565 585 l 676 585 l 676 690 l 567 690 b 461 639 521 690 490 674 l 263 397 l 221 397 l 221 690 z "},"ќ":{"ha":732,"x_min":0,"x_max":0,"o":"m 97 690 l 97 0 l 221 0 l 221 299 l 268 299 l 542 0 l 693 0 l 371 351 l 565 585 l 676 585 l 676 690 l 567 690 b 461 639 521 690 490 674 l 263 397 l 221 397 l 221 690 z m 131 894 l 154 800 l 590 911 l 567 1006 z "},"л":{"ha":810,"x_min":0,"x_max":0,"o":"m 711 690 l 200 690 b 68 106 200 299 200 106 l 68 0 b 324 585 300 0 321 211 l 588 585 l 588 0 l 711 0 z "},"м":{"ha":1031,"x_min":0,"x_max":0,"o":"m 97 0 l 214 0 l 214 657 l 222 657 l 401 0 l 626 0 l 808 657 l 815 657 l 815 0 l 932 0 l 932 690 l 697 690 l 519 35 l 510 35 l 332 690 l 97 690 z "},"н":{"ha":828,"x_min":0,"x_max":0,"o":"m 97 690 l 97 0 l 221 0 l 221 293 l 604 293 l 604 0 l 726 0 l 726 690 l 604 690 l 604 399 l 221 399 l 221 690 z "},"о":{"ha":871,"x_min":0,"x_max":0,"o":"m 69 346 b 436 -14 69 140 215 -14 b 801 346 656 -14 801 140 b 436 704 801 550 656 704 b 69 346 215 704 69 550 z m 192 346 b 436 599 192 485 278 599 b 679 346 593 599 679 485 b 436 92 679 206 593 92 b 192 346 278 92 192 206 z "},"п":{"ha":779,"x_min":0,"x_max":0,"o":"m 97 690 l 97 0 l 221 0 l 221 585 l 558 585 l 558 0 l 681 0 l 681 690 z "},"р":{"ha":910,"x_min":0,"x_max":0,"o":"m 97 -258 l 221 -258 l 221 168 b 517 -14 267 63 364 -14 b 840 344 715 -14 840 135 b 517 704 840 556 715 704 b 221 522 368 704 269 631 l 221 690 l 97 690 z m 224 344 b 476 599 224 515 342 599 b 718 344 611 599 718 518 b 476 92 718 172 611 92 b 224 344 342 92 224 176 z "},"с":{"ha":819,"x_min":0,"x_max":0,"o":"m 69 346 b 424 -14 69 143 200 -14 b 750 264 563 -14 733 64 l 626 264 b 424 92 607 138 524 92 b 192 346 268 92 192 206 b 424 599 192 485 268 599 b 626 426 524 599 607 553 l 750 426 b 424 704 733 626 563 704 b 69 346 200 704 69 547 z "},"т":{"ha":761,"x_min":0,"x_max":0,"o":"m 58 690 l 58 585 l 319 585 l 319 0 l 442 0 l 442 585 l 703 585 l 703 690 z "},"у":{"ha":782,"x_min":0,"x_max":0,"o":"m 619 690 l 392 151 l 161 690 l 28 690 l 331 10 l 331 -162 l 83 -162 l 83 -271 l 376 -271 b 454 -192 429 -271 454 -243 l 454 10 l 756 690 z "},"ф":{"ha":1029,"x_min":0,"x_max":0,"o":"m 457 938 l 457 701 b 69 346 201 683 69 536 b 457 -11 69 156 201 8 l 457 -250 l 574 -250 l 574 -11 b 961 346 829 8 961 156 b 574 701 961 536 829 683 l 574 938 z m 192 346 b 457 596 192 478 271 579 l 457 94 b 192 346 271 111 192 214 z m 574 94 l 574 596 b 838 346 758 579 838 478 b 574 94 838 214 758 113 z "},"х":{"ha":813,"x_min":0,"x_max":0,"o":"m 44 0 l 185 0 l 394 292 l 604 0 l 744 0 l 493 347 l 744 690 l 604 690 l 394 399 l 185 690 l 44 690 l 297 347 z "},"ч":{"ha":844,"x_min":0,"x_max":0,"o":"m 96 690 l 96 310 b 174 240 96 263 121 240 l 624 240 l 624 0 l 746 0 l 746 690 l 624 690 l 624 349 l 218 349 l 218 690 z "},"ц":{"ha":807,"x_min":0,"x_max":0,"o":"m 99 0 l 704 0 l 704 -183 l 826 -183 l 826 19 b 740 106 826 75 796 106 l 682 106 l 682 690 l 558 690 l 558 106 l 221 106 l 221 690 l 99 690 z "},"ш":{"ha":1065,"x_min":0,"x_max":0,"o":"m 97 0 l 968 0 l 968 690 l 844 690 l 844 106 l 594 106 l 594 690 l 471 690 l 471 106 l 221 106 l 221 690 l 97 690 z "},"щ":{"ha":1094,"x_min":0,"x_max":0,"o":"m 97 0 l 990 0 l 990 -183 l 1113 -183 l 1113 19 b 1026 106 1113 75 1082 106 l 968 106 l 968 690 l 844 690 l 844 106 l 594 106 l 594 690 l 471 690 l 471 106 l 221 106 l 221 690 l 97 690 z "},"џ":{"ha":826,"x_min":0,"x_max":0,"o":"m 97 0 l 350 0 l 350 -183 l 474 -183 l 474 0 l 725 0 l 725 688 l 603 688 l 603 106 l 221 106 l 221 688 l 97 688 z "},"ь":{"ha":740,"x_min":0,"x_max":0,"o":"m 372 497 l 221 497 l 221 690 l 97 690 l 97 0 l 372 0 b 672 249 536 0 672 53 b 372 497 672 444 536 497 z m 221 103 l 221 394 l 358 394 b 549 249 472 394 549 379 b 358 103 549 117 472 103 z "},"ы":{"ha":1032,"x_min":0,"x_max":0,"o":"m 372 497 l 221 497 l 221 690 l 97 690 l 97 0 l 372 0 b 672 249 536 0 672 53 b 372 497 672 444 536 497 z m 221 103 l 221 394 l 358 394 b 549 249 472 394 549 379 b 358 103 549 117 472 103 z m 824 0 l 947 0 l 947 690 l 824 690 z "},"ъ":{"ha":764,"x_min":0,"x_max":0,"o":"m 396 497 l 244 497 l 244 693 l -51 693 l -51 588 l 121 588 l 121 0 l 396 0 b 696 249 560 0 696 53 b 396 497 696 444 560 497 z m 244 103 l 244 394 l 382 394 b 572 249 496 394 572 379 b 382 103 572 117 496 103 z "},"љ":{"ha":1231,"x_min":0,"x_max":0,"o":"m 711 690 l 200 690 b 68 106 200 299 200 106 l 68 0 b 324 585 300 0 321 211 l 588 585 l 588 0 l 863 0 b 1163 249 1026 0 1163 53 b 863 497 1163 444 1026 497 l 711 497 z m 711 103 l 711 394 l 849 394 b 1039 249 963 394 1039 379 b 849 103 1039 117 963 103 z "},"њ":{"ha":1247,"x_min":0,"x_max":0,"o":"m 97 690 l 97 0 l 221 0 l 221 293 l 603 293 l 603 0 l 878 0 b 1178 249 1042 0 1178 53 b 878 497 1178 444 1042 497 l 726 497 l 726 690 l 603 690 l 603 399 l 221 399 l 221 690 z m 726 103 l 726 394 l 864 394 b 1054 249 978 394 1054 379 b 864 103 1054 117 978 103 z "},"ѕ":{"ha":703,"x_min":0,"x_max":0,"o":"m 383 -14 b 656 182 561 -14 656 57 b 468 379 656 289 585 346 l 307 425 b 208 518 239 444 208 472 b 351 608 208 569 263 608 b 515 472 457 608 515 556 l 639 472 b 350 704 639 622 528 704 b 86 515 186 704 86 636 b 246 333 86 406 168 356 l 431 279 b 532 185 503 260 532 232 b 385 83 532 114 482 83 b 182 254 257 83 182 140 l 58 254 b 383 -14 58 83 178 -14 z "},"є":{"ha":819,"x_min":0,"x_max":0,"o":"m 69 346 b 424 -14 69 143 200 -14 b 750 264 563 -14 733 64 l 626 264 b 424 92 607 138 524 92 b 194 301 285 92 210 182 l 506 301 l 506 388 l 194 388 b 424 599 208 507 283 599 b 626 426 524 599 607 553 l 750 426 b 424 704 733 626 563 704 b 69 346 200 704 69 547 z "},"э":{"ha":819,"x_min":0,"x_max":0,"o":"m 750 344 b 396 704 750 547 619 704 b 69 426 257 704 86 626 l 193 426 b 396 599 213 553 296 599 b 625 389 535 599 610 508 l 314 389 l 314 303 l 625 303 b 396 92 611 183 536 92 b 193 264 296 92 213 138 l 69 264 b 396 -14 86 64 257 -14 b 750 344 619 -14 750 143 z "},"і":{"ha":615,"x_min":0,"x_max":0,"o":"m 72 0 l 571 0 l 571 106 l 378 106 l 378 610 b 300 690 378 667 350 690 l 121 690 l 121 585 l 264 585 l 264 106 l 72 106 z m 208 901 b 306 808 208 847 251 808 b 406 901 361 808 406 847 b 306 994 406 956 361 994 b 208 901 251 994 208 956 z "},"ї":{"ha":615,"x_min":0,"x_max":0,"o":"m 72 0 l 571 0 l 571 106 l 378 106 l 378 610 b 300 690 378 667 350 690 l 121 690 l 121 585 l 264 585 l 264 106 l 72 106 z m 63 896 b 163 799 63 840 106 799 b 265 896 221 799 265 840 b 163 993 265 951 221 993 b 63 896 106 993 63 951 z m 349 896 b 450 799 349 840 392 799 b 553 896 507 799 553 840 b 450 993 553 951 507 993 b 349 896 392 993 349 951 z "},"ј":{"ha":422,"x_min":0,"x_max":0,"o":"m 174 -40 l 57 -264 l 190 -264 l 296 -61 b 322 49 317 -21 322 3 l 322 611 b 235 690 322 669 290 690 l 54 690 l 54 585 l 200 585 l 200 71 b 174 -40 200 25 196 0 z m 149 901 b 246 808 149 847 192 808 b 346 901 301 808 346 847 b 246 994 346 956 301 994 b 149 901 192 994 149 956 z "},"ћ":{"ha":858,"x_min":0,"x_max":0,"o":"m 111 0 l 235 0 l 235 293 b 478 599 235 479 328 599 b 650 401 596 599 650 543 l 650 0 l 774 0 l 774 415 b 521 704 774 601 679 704 b 235 503 368 704 272 626 l 235 843 l 431 843 l 431 943 l 235 943 l 235 1021 l 111 1021 l 111 943 l 31 943 l 31 843 l 111 843 z "},"ю":{"ha":1115,"x_min":0,"x_max":0,"o":"m 711 -14 b 1046 346 933 -14 1046 149 b 711 704 1046 543 933 704 b 378 399 508 704 396 571 l 221 399 l 221 690 l 97 690 l 97 0 l 221 0 l 221 293 l 378 293 b 711 -14 396 121 508 -14 z m 497 346 b 711 599 497 486 556 599 b 924 346 865 599 924 486 b 711 92 924 204 865 92 b 497 346 556 92 497 204 z "},"я":{"ha":706,"x_min":0,"x_max":0,"o":"m 607 0 l 607 690 l 293 690 b 39 490 133 690 39 638 b 226 301 39 360 115 313 l 129 99 l 28 99 l 28 0 l 111 0 b 215 56 157 0 190 19 l 349 299 l 485 299 l 485 0 z m 161 496 b 300 611 161 574 204 611 l 485 611 l 485 381 l 300 381 b 161 496 204 381 161 417 z "},"ђ":{"ha":858,"x_min":0,"x_max":0,"o":"m 111 0 l 235 0 l 235 293 b 478 599 235 479 328 599 b 650 401 596 599 650 543 l 650 -164 l 401 -164 l 401 -269 l 675 -269 b 774 -185 743 -269 774 -240 l 774 415 b 521 704 774 601 679 704 b 235 503 368 704 272 626 l 235 843 l 431 843 l 431 943 l 235 943 l 235 1021 l 111 1021 l 111 943 l 31 943 l 31 843 l 111 843 z "},"⓿":{"ha":1521,"x_min":0,"x_max":0,"o":"m 760 -169 b 1438 510 1146 -169 1438 124 b 760 1188 1438 896 1146 1188 b 83 510 374 1188 83 896 b 760 -169 83 124 374 -169 z m 461 501 b 761 854 461 706 567 854 b 1061 501 954 854 1061 706 b 761 149 1061 297 954 149 b 461 501 567 149 461 297 z m 564 501 b 589 357 564 447 572 397 l 889 717 b 761 767 857 747 815 767 b 564 501 631 767 564 660 z m 633 288 b 761 238 665 254 708 238 b 958 501 892 238 958 343 b 932 646 958 557 950 606 z "},"❶":{"ha":1521,"x_min":0,"x_max":0,"o":"m 760 -169 b 1438 510 1146 -169 1438 124 b 760 1188 1438 896 1146 1188 b 83 510 374 1188 83 896 b 760 -169 83 124 374 -169 z m 488 549 b 675 844 621 600 672 697 l 865 844 l 865 158 l 763 158 l 763 817 l 760 817 b 522 460 754 660 713 517 z "},"❷":{"ha":1521,"x_min":0,"x_max":0,"o":"m 760 -169 b 1438 510 1146 -169 1438 124 b 760 1188 1438 896 1146 1188 b 83 510 374 1188 83 896 b 760 -169 83 124 374 -169 z m 486 519 b 783 854 486 760 618 854 b 1036 622 933 854 1036 774 b 522 250 1036 397 803 292 l 522 247 l 1036 247 l 1036 158 l 496 158 l 496 324 b 935 622 565 332 935 400 b 782 767 935 713 885 767 b 588 519 665 767 588 701 z "},"❸":{"ha":1521,"x_min":0,"x_max":0,"o":"m 760 -169 b 1438 510 1146 -169 1438 124 b 760 1188 1438 896 1146 1188 b 83 510 374 1188 83 896 b 760 -169 83 124 374 -169 z m 483 419 l 583 419 b 769 238 583 285 646 238 b 935 364 883 238 935 281 b 817 475 935 443 890 475 l 724 475 l 724 560 l 817 560 b 925 653 890 560 925 590 b 769 767 925 719 885 767 b 593 618 646 767 593 719 l 493 618 b 772 854 493 778 600 854 b 1028 675 936 854 1028 782 b 886 519 1028 586 975 533 l 886 517 b 1038 347 974 501 1038 457 b 772 149 1038 221 935 149 b 483 419 599 149 483 226 z "},"❹":{"ha":1521,"x_min":0,"x_max":0,"o":"m 760 -169 b 1438 510 1146 -169 1438 124 b 760 1188 1438 896 1146 1188 b 83 510 374 1188 83 896 b 760 -169 83 124 374 -169 z m 467 300 l 467 471 b 758 844 622 528 742 660 l 861 844 b 500 390 840 642 725 475 l 500 388 l 822 388 l 822 607 l 925 607 l 925 388 l 1008 388 l 1008 300 l 925 300 l 925 158 l 822 158 l 822 300 z "},"❺":{"ha":1521,"x_min":0,"x_max":0,"o":"m 760 -169 b 1438 510 1146 -169 1438 124 b 760 1188 1438 896 1146 1188 b 83 510 374 1188 83 896 b 760 -169 83 124 374 -169 z m 472 406 l 575 406 b 761 238 575 296 643 238 b 946 410 881 238 946 300 b 776 565 946 513 881 565 b 599 486 686 565 632 533 l 490 542 l 542 844 l 997 844 l 997 757 l 626 757 l 585 528 l 588 526 b 810 650 626 606 700 650 b 1049 413 957 650 1049 564 b 760 149 1049 246 938 149 b 472 406 593 149 472 233 z "},"❻":{"ha":1521,"x_min":0,"x_max":0,"o":"m 760 -169 b 1438 510 1146 -169 1438 124 b 760 1188 1438 896 1146 1188 b 83 510 374 1188 83 896 b 760 -169 83 124 374 -169 z m 478 479 b 804 844 478 686 549 844 l 992 844 l 992 757 l 799 757 b 556 508 635 757 567 658 l 553 478 l 556 478 b 790 647 572 586 660 647 b 1043 406 946 647 1043 549 b 771 149 1043 250 940 149 b 478 479 589 149 478 258 z m 579 403 b 765 238 579 317 640 238 b 940 406 876 238 940 294 b 767 565 940 506 875 565 b 579 403 646 565 579 501 z "},"❼":{"ha":1521,"x_min":0,"x_max":0,"o":"m 760 -169 b 1438 510 1146 -169 1438 124 b 760 1188 1438 896 1146 1188 b 83 510 374 1188 83 896 b 760 -169 83 124 374 -169 z m 508 757 l 508 844 l 1014 844 l 1014 706 b 715 158 813 607 715 436 l 607 158 b 981 754 607 461 743 650 l 981 757 z "},"❽":{"ha":1521,"x_min":0,"x_max":0,"o":"m 760 -169 b 1438 510 1146 -169 1438 124 b 760 1188 1438 896 1146 1188 b 83 510 374 1188 83 896 b 760 -169 83 124 374 -169 z m 475 349 b 658 535 475 450 544 511 l 658 538 b 513 688 579 557 513 603 b 761 854 513 807 626 854 b 1007 688 893 854 1007 807 b 863 538 1007 601 942 557 l 863 535 b 1046 346 974 510 1046 451 b 760 149 1046 225 936 149 b 475 349 588 149 475 222 z m 576 360 b 761 232 576 288 633 232 b 943 360 888 232 943 288 b 761 490 943 438 888 490 b 576 360 633 490 576 438 z m 614 675 b 761 579 614 608 667 579 b 906 675 853 579 906 607 b 761 772 906 742 854 772 b 614 675 667 772 614 742 z "},"❾":{"ha":1521,"x_min":0,"x_max":0,"o":"m 760 -169 b 1438 510 1146 -169 1438 124 b 760 1188 1438 896 1146 1188 b 83 510 374 1188 83 896 b 760 -169 83 124 374 -169 z m 478 597 b 750 854 478 753 581 854 b 1043 525 932 854 1043 743 b 715 158 1043 317 971 158 l 528 158 l 528 247 l 721 247 b 964 494 886 247 953 344 l 967 517 l 964 517 b 729 354 949 419 863 354 b 478 597 574 354 478 456 z m 579 597 b 753 438 579 497 647 438 b 940 600 874 438 940 500 b 756 767 940 686 879 767 b 579 597 644 767 579 708 z "},"⓪":{"ha":1521,"x_min":0,"x_max":0,"o":"m 760 -169 b 1438 510 1146 -169 1438 124 b 760 1188 1438 896 1146 1188 b 83 510 374 1188 83 896 b 760 -169 83 124 374 -169 z m 168 510 b 760 1111 168 853 424 1111 b 1353 510 1097 1111 1353 853 b 760 -90 1353 167 1097 -90 b 168 510 424 -90 168 167 z m 461 501 b 761 149 461 297 567 149 b 1061 501 954 149 1061 297 b 761 854 1061 706 954 854 b 461 501 567 854 461 706 z m 564 501 b 761 767 564 660 631 767 b 890 715 815 767 858 749 l 588 358 b 564 501 572 399 564 446 z m 633 288 l 933 646 b 958 501 950 606 958 557 b 761 238 958 343 892 238 b 633 288 707 238 665 256 z "},"①":{"ha":1521,"x_min":0,"x_max":0,"o":"m 760 -169 b 1438 510 1146 -169 1438 124 b 760 1188 1438 896 1146 1188 b 83 510 374 1188 83 896 b 760 -169 83 124 374 -169 z m 168 510 b 760 1111 168 853 424 1111 b 1353 510 1097 1111 1353 853 b 760 -90 1353 167 1097 -90 b 168 510 424 -90 168 167 z m 488 549 l 522 460 b 763 785 700 513 747 640 l 763 158 l 865 158 l 865 844 l 675 844 b 488 549 672 697 621 600 z "},"②":{"ha":1521,"x_min":0,"x_max":0,"o":"m 760 -169 b 1438 510 1146 -169 1438 124 b 760 1188 1438 896 1146 1188 b 83 510 374 1188 83 896 b 760 -169 83 124 374 -169 z m 168 510 b 760 1111 168 853 424 1111 b 1353 510 1097 1111 1353 853 b 760 -90 1353 167 1097 -90 b 168 510 424 -90 168 167 z m 486 519 l 588 519 b 782 767 588 701 665 767 b 935 622 885 767 935 713 b 496 324 935 400 565 332 l 496 158 l 1036 158 l 1036 247 l 546 247 b 1036 622 815 297 1036 403 b 783 854 1036 774 933 854 b 486 519 618 854 486 760 z "},"③":{"ha":1521,"x_min":0,"x_max":0,"o":"m 760 -169 b 1438 510 1146 -169 1438 124 b 760 1188 1438 896 1146 1188 b 83 510 374 1188 83 896 b 760 -169 83 124 374 -169 z m 168 510 b 760 1111 168 853 424 1111 b 1353 510 1097 1111 1353 853 b 760 -90 1353 167 1097 -90 b 168 510 424 -90 168 167 z m 483 419 b 772 149 483 226 599 149 b 1038 347 935 149 1038 221 b 889 504 1038 457 975 489 l 889 531 b 1028 675 976 544 1028 586 b 772 854 1028 782 936 854 b 493 618 600 854 493 778 l 593 618 b 769 767 593 719 646 767 b 925 653 885 767 925 719 b 817 560 925 590 890 560 l 724 560 l 724 475 l 817 475 b 935 364 890 475 935 443 b 769 238 935 281 883 238 b 583 419 646 238 583 285 z "},"④":{"ha":1521,"x_min":0,"x_max":0,"o":"m 760 -169 b 1438 510 1146 -169 1438 124 b 760 1188 1438 896 1146 1188 b 83 510 374 1188 83 896 b 760 -169 83 124 374 -169 z m 168 510 b 760 1111 168 853 424 1111 b 1353 510 1097 1111 1353 853 b 760 -90 1353 167 1097 -90 b 168 510 424 -90 168 167 z m 467 300 l 822 300 l 822 158 l 925 158 l 925 300 l 1008 300 l 1008 388 l 925 388 l 925 607 l 822 607 l 822 388 l 504 388 b 861 844 729 479 840 640 l 758 844 b 467 471 742 660 622 528 z "},"⑤":{"ha":1521,"x_min":0,"x_max":0,"o":"m 760 -169 b 1438 510 1146 -169 1438 124 b 760 1188 1438 896 1146 1188 b 83 510 374 1188 83 896 b 760 -169 83 124 374 -169 z m 168 510 b 760 1111 168 853 424 1111 b 1353 510 1097 1111 1353 853 b 760 -90 1353 167 1097 -90 b 168 510 424 -90 168 167 z m 472 406 b 760 149 472 233 593 149 b 1049 413 938 149 1049 246 b 810 650 1049 564 957 650 b 588 536 703 650 629 608 l 626 757 l 997 757 l 997 844 l 542 844 l 490 542 l 599 486 b 776 565 632 533 686 565 b 946 410 881 565 946 513 b 761 238 946 300 881 238 b 575 406 643 238 575 296 z "},"⑥":{"ha":1521,"x_min":0,"x_max":0,"o":"m 760 -169 b 1438 510 1146 -169 1438 124 b 760 1188 1438 896 1146 1188 b 83 510 374 1188 83 896 b 760 -169 83 124 374 -169 z m 168 510 b 760 1111 168 853 424 1111 b 1353 510 1097 1111 1353 853 b 760 -90 1353 167 1097 -90 b 168 510 424 -90 168 167 z m 478 479 b 771 149 478 258 589 149 b 1043 406 940 149 1043 250 b 790 647 1043 549 946 647 b 556 501 669 647 585 594 l 556 508 b 799 757 567 658 635 757 l 992 757 l 992 844 l 804 844 b 478 479 549 844 478 686 z m 579 403 b 767 565 579 501 646 565 b 940 406 875 565 940 506 b 765 238 940 294 876 238 b 579 403 640 238 579 317 z "},"⑦":{"ha":1521,"x_min":0,"x_max":0,"o":"m 760 -169 b 1438 510 1146 -169 1438 124 b 760 1188 1438 896 1146 1188 b 83 510 374 1188 83 896 b 760 -169 83 124 374 -169 z m 168 510 b 760 1111 168 853 424 1111 b 1353 510 1097 1111 1353 853 b 760 -90 1353 167 1097 -90 b 168 510 424 -90 168 167 z m 508 757 l 981 757 b 607 158 740 647 607 458 l 715 158 b 1014 706 715 436 813 607 l 1014 844 l 508 844 z "},"⑧":{"ha":1521,"x_min":0,"x_max":0,"o":"m 760 -169 b 1438 510 1146 -169 1438 124 b 760 1188 1438 896 1146 1188 b 83 510 374 1188 83 896 b 760 -169 83 124 374 -169 z m 168 510 b 760 1111 168 853 424 1111 b 1353 510 1097 1111 1353 853 b 760 -90 1353 167 1097 -90 b 168 510 424 -90 168 167 z m 475 349 b 760 149 475 222 588 149 b 1046 346 936 149 1046 225 b 871 536 1046 449 978 510 b 1007 688 946 557 1007 604 b 761 854 1007 807 893 854 b 513 688 626 854 513 807 b 650 536 513 606 575 557 b 475 349 540 511 475 447 z m 576 360 b 761 490 576 438 633 490 b 943 360 888 490 943 438 b 761 232 943 288 888 232 b 576 360 633 232 576 288 z m 614 675 b 761 772 614 742 667 772 b 906 675 854 772 906 742 b 761 579 906 607 853 579 b 614 675 667 579 614 608 z "},"⑨":{"ha":1521,"x_min":0,"x_max":0,"o":"m 760 -169 b 1438 510 1146 -169 1438 124 b 760 1188 1438 896 1146 1188 b 83 510 374 1188 83 896 b 760 -169 83 124 374 -169 z m 168 510 b 760 1111 168 853 424 1111 b 1353 510 1097 1111 1353 853 b 760 -90 1353 167 1097 -90 b 168 510 424 -90 168 167 z m 478 597 b 729 354 478 456 574 354 b 964 497 850 354 932 408 l 964 494 b 721 247 953 344 886 247 l 528 247 l 528 158 l 715 158 b 1043 525 971 158 1043 317 b 750 854 1043 743 932 854 b 478 597 581 854 478 753 z m 579 597 b 756 767 579 708 644 767 b 940 600 879 767 940 686 b 753 438 940 500 874 438 b 579 597 647 438 579 497 z "},"⁄":{"ha":410,"x_min":0,"x_max":0,"o":"m 408 986 l -86 25 l 1 -17 l 497 944 z "},"½":{"ha":1543,"x_min":0,"x_max":0,"o":"m 318 290 l 421 290 l 421 976 l 229 976 b 43 681 226 829 176 732 l 78 592 b 318 928 260 646 306 779 z m 396 25 l 483 -17 l 979 944 l 890 986 z m 939 361 l 1040 361 b 1236 607 1040 543 1119 607 b 1388 464 1339 607 1388 554 b 949 165 1388 242 1018 172 l 949 0 l 1489 0 l 1489 89 l 1000 89 b 1489 464 1269 139 1489 244 b 1236 696 1489 615 1388 696 b 939 361 1071 696 939 601 z "},"¼":{"ha":1422,"x_min":0,"x_max":0,"o":"m 318 290 l 421 290 l 421 976 l 229 976 b 43 681 226 829 176 732 l 78 592 b 318 928 260 646 306 779 z m 396 25 l 483 -17 l 979 944 l 890 986 z m 832 140 l 1189 140 l 1189 0 l 1292 0 l 1292 140 l 1375 140 l 1375 229 l 1292 229 l 1292 449 l 1189 449 l 1189 229 l 871 229 b 1226 686 1096 321 1207 482 l 1124 686 b 832 313 1107 501 988 369 z "},"¾":{"ha":1571,"x_min":0,"x_max":0,"o":"m 150 554 l 49 554 b 339 283 49 360 164 283 b 603 481 500 283 603 354 b 468 653 603 585 547 635 b 593 808 547 671 593 725 b 339 989 593 917 501 989 b 58 753 165 989 58 913 l 160 753 b 336 900 160 854 213 900 b 492 788 450 900 492 854 b 382 693 492 725 456 693 l 289 693 l 289 610 l 382 610 b 501 497 456 610 501 576 b 336 372 501 415 449 372 b 150 554 211 372 150 418 z m 544 25 l 632 -17 l 1128 944 l 1039 986 z m 981 140 l 1338 140 l 1338 0 l 1440 0 l 1440 140 l 1524 140 l 1524 229 l 1440 229 l 1440 449 l 1338 449 l 1338 229 l 1019 229 b 1375 686 1244 321 1356 482 l 1272 686 b 981 313 1256 501 1136 369 z "},"⅛":{"ha":1506,"x_min":0,"x_max":0,"o":"m 318 290 l 421 290 l 421 976 l 229 976 b 43 681 226 829 176 732 l 78 592 b 318 928 260 646 306 779 z m 396 25 l 483 -17 l 979 944 l 890 986 z m 896 190 b 1181 -10 896 64 1008 -10 b 1467 188 1357 -10 1467 67 b 1292 378 1467 289 1399 351 b 1429 529 1367 397 1429 446 b 1182 696 1429 649 1314 696 b 933 529 1047 696 933 649 b 1071 378 933 446 996 397 b 896 190 961 351 896 288 z m 997 201 b 1182 332 997 279 1054 332 b 1364 201 1308 332 1364 279 b 1182 74 1364 129 1308 74 b 997 201 1054 74 997 129 z m 1035 517 b 1182 613 1035 583 1088 613 b 1326 517 1275 613 1326 583 b 1182 419 1326 449 1274 419 b 1035 517 1088 419 1035 450 z "},"⅜":{"ha":1654,"x_min":0,"x_max":0,"o":"m 150 554 l 49 554 b 339 283 49 360 164 283 b 603 481 500 283 603 354 b 468 653 603 585 547 635 b 593 808 547 671 593 725 b 339 989 593 917 501 989 b 58 753 165 989 58 913 l 160 753 b 336 900 160 854 213 900 b 492 788 450 900 492 854 b 382 693 492 725 456 693 l 289 693 l 289 610 l 382 610 b 501 497 456 610 501 576 b 336 372 501 415 449 372 b 150 554 211 372 150 418 z m 544 25 l 632 -17 l 1128 944 l 1039 986 z m 1044 190 b 1329 -10 1044 64 1157 -10 b 1615 188 1506 -10 1615 67 b 1440 378 1615 289 1547 351 b 1578 529 1515 397 1578 446 b 1331 696 1578 649 1463 696 b 1082 529 1196 696 1082 649 b 1219 378 1082 446 1144 397 b 1044 190 1110 351 1044 288 z m 1146 201 b 1331 332 1146 279 1203 332 b 1513 201 1457 332 1513 279 b 1331 74 1513 129 1457 74 b 1146 201 1203 74 1146 129 z m 1183 517 b 1331 613 1183 583 1236 613 b 1475 517 1424 613 1475 583 b 1331 419 1475 449 1422 419 b 1183 517 1236 419 1183 450 z "},"⅝":{"ha":1679,"x_min":0,"x_max":0,"o":"m 339 283 b 629 547 518 283 629 381 b 390 783 629 699 536 783 b 168 669 283 783 210 742 l 207 890 l 578 890 l 578 979 l 122 979 l 69 676 l 179 621 b 356 700 213 667 267 700 b 526 543 461 700 526 646 b 340 372 526 435 460 372 b 156 539 224 372 156 431 l 53 539 b 339 283 53 368 174 283 z m 569 25 l 657 -17 l 1153 944 l 1064 986 z m 1069 190 b 1354 -10 1069 64 1182 -10 b 1640 188 1531 -10 1640 67 b 1465 378 1640 289 1572 351 b 1603 529 1540 397 1603 446 b 1356 696 1603 649 1488 696 b 1107 529 1221 696 1107 649 b 1244 378 1107 446 1169 397 b 1069 190 1135 351 1069 288 z m 1171 201 b 1356 332 1171 279 1228 332 b 1538 201 1482 332 1538 279 b 1356 74 1538 129 1482 74 b 1171 201 1228 74 1171 129 z m 1208 517 b 1356 613 1208 583 1261 613 b 1500 517 1449 613 1500 583 b 1356 419 1500 449 1447 419 b 1208 517 1261 419 1208 450 z "},"⅞":{"ha":1438,"x_min":0,"x_max":0,"o":"m 131 293 l 239 293 b 538 840 239 571 336 740 l 538 979 l 32 979 l 32 890 l 504 890 b 131 293 264 782 131 592 z m 328 25 l 415 -17 l 911 944 l 822 986 z m 828 190 b 1113 -10 828 64 940 -10 b 1399 188 1289 -10 1399 67 b 1224 378 1399 289 1331 351 b 1361 529 1299 397 1361 446 b 1114 696 1361 649 1246 696 b 865 529 979 696 865 649 b 1003 378 865 446 928 397 b 828 190 893 351 828 288 z m 929 201 b 1114 332 929 279 986 332 b 1296 201 1240 332 1296 279 b 1114 74 1296 129 1240 74 b 929 201 986 74 929 129 z m 967 517 b 1114 613 967 583 1019 613 b 1258 517 1207 613 1258 583 b 1114 419 1258 449 1206 419 b 967 517 1019 419 967 450 z "},"₀":{"ha":706,"x_min":0,"x_max":0,"o":"m 53 204 b 353 -149 53 0 160 -149 b 653 204 546 -149 653 0 b 353 557 653 407 546 557 b 53 204 160 557 53 407 z m 156 204 b 353 468 156 361 222 468 b 482 418 407 468 450 450 l 179 61 b 156 204 164 101 156 149 z m 225 -11 l 526 349 b 550 204 542 308 550 260 b 353 -60 550 46 483 -60 b 225 -11 300 -60 257 -42 z "},"₁":{"ha":492,"x_min":0,"x_max":0,"o":"m 318 -139 l 421 -139 l 421 547 l 229 547 b 43 251 226 400 176 303 l 78 163 b 318 499 260 217 306 350 z "},"₂":{"ha":650,"x_min":0,"x_max":0,"o":"m 47 222 l 149 222 b 344 468 149 404 228 468 b 496 325 447 468 496 415 b 57 26 496 103 126 33 l 57 -139 l 597 -139 l 597 -50 l 108 -50 b 597 325 378 0 597 106 b 344 557 597 476 496 557 b 47 222 179 557 47 463 z "},"₃":{"ha":661,"x_min":0,"x_max":0,"o":"m 150 122 l 49 122 b 339 -149 49 -72 164 -149 b 603 49 500 -149 603 -78 b 468 221 603 153 547 203 b 593 376 547 239 593 293 b 339 557 593 485 501 557 b 58 321 165 557 58 481 l 160 321 b 336 468 160 422 213 468 b 492 356 450 468 492 422 b 382 261 492 293 456 261 l 289 261 l 289 178 l 382 178 b 501 65 456 178 501 144 b 336 -60 501 -17 449 -60 b 150 122 211 -60 150 -14 z "},"₄":{"ha":647,"x_min":0,"x_max":0,"o":"m 57 174 l 57 1 l 414 1 l 414 -139 l 517 -139 l 517 1 l 600 1 l 600 90 l 517 90 l 517 310 l 414 310 l 414 90 l 96 90 b 451 547 321 182 432 343 l 349 547 b 57 174 332 363 213 231 z "},"₅":{"ha":686,"x_min":0,"x_max":0,"o":"m 339 -149 b 629 115 518 -149 629 -51 b 390 351 629 267 536 351 b 168 238 283 351 210 310 l 207 458 l 578 458 l 578 547 l 122 547 l 69 244 l 179 189 b 356 268 213 235 267 268 b 526 111 461 268 526 214 b 340 -60 526 3 460 -60 b 156 107 224 -60 156 -1 l 53 107 b 339 -149 53 -64 174 -149 z "},"₆":{"ha":671,"x_min":0,"x_max":0,"o":"m 57 182 b 350 -149 57 -39 168 -149 b 624 108 521 -149 624 -47 b 369 350 624 251 525 350 b 136 210 253 350 168 299 b 378 458 147 361 215 458 l 571 458 l 571 547 l 385 547 b 57 182 129 547 57 389 z m 158 104 b 347 268 158 204 226 268 b 521 108 456 268 521 207 b 344 -60 521 -3 456 -60 b 158 104 219 -60 158 19 z "},"₇":{"ha":569,"x_min":0,"x_max":0,"o":"m 131 -139 l 239 -139 b 538 408 239 139 336 308 l 538 547 l 32 547 l 32 458 l 504 458 b 131 -139 264 350 131 160 z "},"₈":{"ha":649,"x_min":0,"x_max":0,"o":"m 39 51 b 324 -149 39 -75 151 -149 b 610 49 500 -149 610 -72 b 435 239 610 150 542 213 b 572 390 510 258 572 307 b 325 557 572 510 457 557 b 76 390 190 557 76 510 b 214 239 76 307 139 258 b 39 51 104 213 39 149 z m 140 63 b 325 193 140 140 197 193 b 507 63 451 193 507 140 b 325 -65 507 -10 451 -65 b 140 63 197 -65 140 -10 z m 178 378 b 325 474 178 444 231 474 b 469 378 418 474 469 444 b 325 281 469 310 417 281 b 178 378 231 281 178 311 z "},"₉":{"ha":671,"x_min":0,"x_max":0,"o":"m 614 226 b 321 557 614 446 503 557 b 49 299 151 557 49 456 b 300 57 49 157 144 57 b 535 199 421 57 503 110 l 535 197 b 292 -50 524 47 457 -50 l 99 -50 l 99 -139 l 286 -139 b 614 226 542 -139 614 18 z m 150 299 b 326 468 150 411 215 468 b 511 303 450 468 511 389 b 324 140 511 203 444 140 b 150 299 218 140 150 200 z "},"⁰":{"ha":706,"x_min":0,"x_max":0,"o":"m 53 981 b 353 628 53 776 160 628 b 653 981 546 628 653 776 b 353 1333 653 1183 546 1333 b 53 981 160 1333 53 1183 z m 156 981 b 353 1244 156 1138 222 1244 b 482 1194 407 1244 450 1226 l 179 838 b 156 981 164 878 156 925 z m 225 765 l 526 1125 b 550 981 542 1085 550 1036 b 353 717 550 822 483 717 b 225 765 300 717 257 735 z "},"¹":{"ha":492,"x_min":0,"x_max":0,"o":"m 318 638 l 421 638 l 421 1324 l 229 1324 b 43 1028 226 1176 176 1079 l 78 939 b 318 1275 260 993 306 1126 z "},"²":{"ha":650,"x_min":0,"x_max":0,"o":"m 47 999 l 149 999 b 344 1244 149 1181 228 1244 b 496 1101 447 1244 496 1192 b 57 803 496 879 126 810 l 57 638 l 597 638 l 597 726 l 108 726 b 597 1101 378 776 597 882 b 344 1333 597 1253 496 1333 b 47 999 179 1333 47 1239 z "},"³":{"ha":661,"x_min":0,"x_max":0,"o":"m 150 899 l 49 899 b 339 628 49 704 164 628 b 603 825 500 628 603 699 b 468 997 603 929 547 979 b 593 1153 547 1015 593 1069 b 339 1333 593 1261 501 1333 b 58 1097 165 1333 58 1257 l 160 1097 b 336 1244 160 1199 213 1244 b 492 1132 450 1244 492 1199 b 382 1038 492 1069 456 1038 l 289 1038 l 289 954 l 382 954 b 501 842 456 954 501 921 b 336 717 501 760 449 717 b 150 899 211 717 150 763 z "},"⁴":{"ha":647,"x_min":0,"x_max":0,"o":"m 57 950 l 57 778 l 414 778 l 414 638 l 517 638 l 517 778 l 600 778 l 600 867 l 517 867 l 517 1086 l 414 1086 l 414 867 l 96 867 b 451 1324 321 958 432 1119 l 349 1324 b 57 950 332 1139 213 1007 z "},"⁵":{"ha":686,"x_min":0,"x_max":0,"o":"m 339 628 b 629 892 518 628 629 725 b 390 1128 629 1043 536 1128 b 168 1014 283 1128 210 1086 l 207 1235 l 578 1235 l 578 1324 l 122 1324 l 69 1021 l 179 965 b 356 1044 213 1011 267 1044 b 526 888 461 1044 526 990 b 340 717 526 779 460 717 b 156 883 224 717 156 775 l 53 883 b 339 628 53 713 174 628 z "},"⁶":{"ha":671,"x_min":0,"x_max":0,"o":"m 57 958 b 350 628 57 738 168 628 b 624 885 521 628 624 729 b 369 1126 624 1028 525 1126 b 136 986 253 1126 168 1075 b 378 1235 147 1138 215 1235 l 571 1235 l 571 1324 l 385 1324 b 57 958 129 1324 57 1165 z m 158 881 b 347 1044 158 981 226 1044 b 521 885 456 1044 521 983 b 344 717 521 774 456 717 b 158 881 219 717 158 796 z "},"⁷":{"ha":569,"x_min":0,"x_max":0,"o":"m 131 638 l 239 638 b 538 1185 239 915 336 1085 l 538 1324 l 32 1324 l 32 1235 l 504 1235 b 131 638 264 1126 131 936 z "},"⁸":{"ha":649,"x_min":0,"x_max":0,"o":"m 39 828 b 324 628 39 701 151 628 b 610 825 500 628 610 704 b 435 1015 610 926 542 989 b 572 1167 510 1035 572 1083 b 325 1333 572 1286 457 1333 b 76 1167 190 1333 76 1286 b 214 1015 76 1083 139 1035 b 39 828 104 989 39 925 z m 140 839 b 325 969 140 917 197 969 b 507 839 451 969 507 917 b 325 711 507 767 451 711 b 140 839 197 711 140 767 z m 178 1154 b 325 1250 178 1221 231 1250 b 469 1154 418 1250 469 1221 b 325 1057 469 1086 417 1057 b 178 1154 231 1057 178 1088 z "},"⁹":{"ha":671,"x_min":0,"x_max":0,"o":"m 614 1003 b 321 1333 614 1222 503 1333 b 49 1075 151 1333 49 1232 b 300 833 49 933 144 833 b 535 975 421 833 503 886 l 535 974 b 292 726 524 824 457 726 l 99 726 l 99 638 l 286 638 b 614 1003 542 638 614 794 z m 150 1075 b 326 1244 150 1188 215 1244 b 511 1079 450 1244 511 1165 b 324 917 511 979 444 917 b 150 1075 218 917 150 976 z "},".":{"ha":465,"x_min":0,"x_max":0,"o":"m 232 -14 b 351 104 299 -14 351 39 b 232 221 351 169 299 221 b 114 104 164 221 114 169 b 232 -14 114 39 164 -14 z "},",":{"ha":390,"x_min":0,"x_max":0,"o":"m 167 229 l 56 -181 l 167 -211 l 278 199 z "},":":{"ha":465,"x_min":0,"x_max":0,"o":"m 232 -14 b 351 104 299 -14 351 39 b 232 221 351 169 299 221 b 114 104 164 221 114 169 b 232 -14 114 39 164 -14 z m 114 582 b 232 464 114 517 164 464 b 351 582 299 464 351 517 b 232 699 351 647 299 699 b 114 582 164 699 114 647 z "},";":{"ha":390,"x_min":0,"x_max":0,"o":"m 167 229 l 56 -181 l 167 -211 l 278 199 z m 114 582 b 232 464 114 517 164 464 b 351 582 299 464 351 517 b 232 699 351 647 299 699 b 114 582 164 699 114 647 z "},"…":{"ha":1299,"x_min":0,"x_max":0,"o":"m 232 -14 b 351 104 299 -14 351 39 b 232 221 351 169 299 221 b 114 104 164 221 114 169 b 232 -14 114 39 164 -14 z m 531 104 b 649 -14 531 39 581 -14 b 768 104 715 -14 768 39 b 649 221 768 169 715 221 b 531 104 581 221 531 169 z m 947 104 b 1065 -14 947 39 997 -14 b 1185 104 1132 -14 1185 39 b 1065 221 1185 169 1132 221 b 947 104 997 221 947 169 z "},"!":{"ha":465,"x_min":0,"x_max":0,"o":"m 232 -14 b 351 104 299 -14 351 39 b 232 221 351 169 299 221 b 114 104 164 221 114 169 b 232 -14 114 39 164 -14 z m 172 979 l 188 342 l 279 342 l 294 979 z "},"¡":{"ha":465,"x_min":0,"x_max":0,"o":"m 233 704 b 114 586 167 704 114 651 b 233 469 114 521 167 469 b 351 586 301 469 351 521 b 233 704 351 651 301 704 z m 171 -289 l 293 -289 l 278 349 l 186 349 z "},"?":{"ha":622,"x_min":0,"x_max":0,"o":"m 311 -14 b 431 104 378 -14 431 39 b 311 221 431 169 378 221 b 193 104 243 221 193 169 b 311 -14 193 39 243 -14 z m 13 710 l 121 710 b 328 915 121 840 192 915 b 500 767 438 915 500 856 b 104 508 500 576 246 517 l 104 346 l 518 346 l 518 435 l 178 435 b 608 776 422 475 608 582 b 331 1004 608 904 518 1004 b 13 710 119 1004 13 885 z "},"¿":{"ha":622,"x_min":0,"x_max":0,"o":"m 311 704 b 192 586 244 704 192 651 b 311 469 192 521 244 469 b 429 586 379 469 429 521 b 311 704 429 651 379 704 z m 14 -86 b 292 -314 14 -214 104 -314 b 610 -19 503 -314 610 -194 l 501 -19 b 294 -225 501 -150 431 -225 b 122 -76 185 -225 122 -165 b 518 182 122 114 376 174 l 518 344 l 104 344 l 104 256 l 444 256 b 14 -86 200 215 14 108 z "},"·":{"ha":465,"x_min":0,"x_max":0,"o":"m 232 226 b 351 344 299 226 351 279 b 232 461 351 410 299 461 b 114 344 164 461 114 410 b 232 226 114 279 164 226 z "},"•":{"ha":921,"x_min":0,"x_max":0,"o":"m 458 -3 b 807 342 653 -3 807 151 b 458 683 807 533 653 683 b 113 342 260 683 113 533 b 458 -3 113 151 260 -3 z "},"*":{"ha":706,"x_min":0,"x_max":0,"o":"m 86 793 l 246 742 l 306 740 l 256 703 l 158 568 l 232 514 l 331 649 l 351 707 l 372 649 l 469 513 l 546 568 l 447 703 l 399 738 l 460 740 l 619 792 l 592 879 l 432 829 l 382 793 l 400 854 l 400 1021 l 307 1021 l 307 854 l 325 794 l 274 831 l 114 883 z "},"#":{"ha":1507,"x_min":0,"x_max":0,"o":"m 250 692 l 250 599 l 546 599 l 397 275 l 114 275 l 114 182 l 354 182 l 193 -169 l 288 -212 l 468 182 l 813 182 l 651 -169 l 746 -212 l 926 182 l 1257 182 l 1257 275 l 969 275 l 1118 599 l 1392 599 l 1392 692 l 1160 692 l 1314 1026 l 1219 1068 l 1047 692 l 701 692 l 856 1026 l 761 1068 l 589 692 z m 511 275 l 660 599 l 1004 599 l 856 275 z "},"/":{"ha":693,"x_min":0,"x_max":0,"o":"m 583 1124 l 17 -114 l 111 -157 l 678 1082 z "},"\\":{"ha":693,"x_min":0,"x_max":0,"o":"m 110 1124 l 15 1082 l 583 -157 l 678 -114 z "},"-":{"ha":899,"x_min":0,"x_max":0,"o":"m 114 401 l 114 301 l 783 301 l 783 401 z "},"–":{"ha":1179,"x_min":0,"x_max":0,"o":"m 114 401 l 114 301 l 1065 301 l 1065 401 z "},"—":{"ha":1457,"x_min":0,"x_max":0,"o":"m 114 401 l 114 301 l 1343 301 l 1343 401 z "},"_":{"ha":843,"x_min":0,"x_max":0,"o":"m 86 -60 l 86 -160 l 756 -160 l 756 -60 z "},"(":{"ha":600,"x_min":0,"x_max":0,"o":"m 486 -167 l 486 -67 b 224 428 294 -18 224 164 b 486 921 224 692 294 872 l 486 1021 b 114 428 217 965 114 735 b 486 -167 114 122 217 -111 z "},")":{"ha":600,"x_min":0,"x_max":0,"o":"m 114 1021 l 114 921 b 376 426 306 872 376 690 b 114 -67 376 163 306 -18 l 114 -167 b 486 426 383 -111 486 119 b 114 1021 486 732 383 965 z "},"{":{"ha":658,"x_min":0,"x_max":0,"o":"m 114 432 l 114 338 b 335 136 279 318 335 242 b 175 -75 335 24 272 -60 l 175 -208 l 544 -208 l 544 -126 l 229 -126 b 433 136 371 -86 433 17 b 224 385 433 261 364 358 b 433 632 364 411 433 507 b 229 897 433 750 371 856 l 544 897 l 544 979 l 175 979 l 175 846 b 335 632 271 832 335 746 b 114 432 335 528 282 450 z "},"}":{"ha":658,"x_min":0,"x_max":0,"o":"m 544 339 l 544 433 b 324 635 379 453 324 529 b 483 846 324 747 386 831 l 483 979 l 114 979 l 114 897 l 429 897 b 225 635 288 857 225 754 b 435 386 225 510 294 413 b 225 139 294 360 225 264 b 429 -126 225 21 288 -85 l 114 -126 l 114 -208 l 483 -208 l 483 -75 b 324 139 388 -61 324 25 b 544 339 324 243 376 321 z "},"[":{"ha":603,"x_min":0,"x_max":0,"o":"m 114 1021 l 114 -167 l 488 -167 l 488 -74 l 224 -74 l 224 928 l 488 928 l 488 1021 z "},"]":{"ha":603,"x_min":0,"x_max":0,"o":"m 489 -167 l 489 1021 l 115 1021 l 115 928 l 379 928 l 379 -74 l 115 -74 l 115 -167 z "},"‚":{"ha":444,"x_min":0,"x_max":0,"o":"m 222 229 l 111 -181 l 222 -211 l 333 199 z "},"„":{"ha":640,"x_min":0,"x_max":0,"o":"m 222 229 l 111 -181 l 222 -211 l 333 199 z m 306 -181 l 417 -211 l 528 199 l 417 229 z "},"“":{"ha":640,"x_min":0,"x_max":0,"o":"m 222 624 l 333 1033 l 222 1064 l 111 654 z m 306 654 l 417 624 l 528 1033 l 417 1064 z "},"”":{"ha":640,"x_min":0,"x_max":0,"o":"m 222 622 l 333 653 l 224 1063 l 111 1032 z m 306 1032 l 417 622 l 528 653 l 418 1063 z "},"‘":{"ha":444,"x_min":0,"x_max":0,"o":"m 222 624 l 333 1033 l 222 1064 l 111 654 z "},"’":{"ha":444,"x_min":0,"x_max":0,"o":"m 222 622 l 333 653 l 224 1063 l 111 1032 z "},"«":{"ha":993,"x_min":0,"x_max":0,"o":"m 585 26 l 267 344 l 585 661 l 504 732 l 114 344 l 504 -44 z m 410 344 l 800 -44 l 881 26 l 563 344 l 881 661 l 800 732 z "},"»":{"ha":993,"x_min":0,"x_max":0,"o":"m 408 661 l 726 343 l 408 26 l 489 -44 l 879 343 l 489 732 z m 111 26 l 192 -44 l 582 343 l 192 732 l 111 661 l 429 343 z "},"‹":{"ha":696,"x_min":0,"x_max":0,"o":"m 585 26 l 267 344 l 585 661 l 504 732 l 114 344 l 504 -44 z "},"›":{"ha":696,"x_min":0,"x_max":0,"o":"m 111 661 l 429 343 l 111 26 l 192 -44 l 582 343 l 192 732 z "},"\"":{"ha":525,"x_min":0,"x_max":0,"o":"m 110 1035 l 110 674 l 224 674 l 224 1035 z m 301 674 l 415 674 l 415 1035 l 301 1035 z "},"'":{"ha":333,"x_min":0,"x_max":0,"o":"m 110 1035 l 110 674 l 224 674 l 224 1035 z "},"@":{"ha":1447,"x_min":0,"x_max":0,"o":"m 757 -219 l 1242 -219 l 1242 -131 l 757 -131 b 169 390 386 -131 169 76 b 721 919 169 707 388 919 b 1242 422 1033 919 1242 728 b 1069 125 1242 247 1172 125 l 1043 125 l 1043 718 l 936 718 l 936 551 b 650 732 896 664 786 732 b 343 388 468 732 343 596 b 650 42 343 178 468 42 b 936 222 782 42 893 107 l 936 108 b 1013 36 936 64 967 36 l 1053 36 b 1343 433 1229 36 1343 196 b 721 1011 1343 785 1097 1011 b 68 390 326 1011 68 764 b 757 -219 68 18 328 -219 z m 458 388 b 694 635 458 542 547 635 b 935 388 840 635 935 542 b 694 139 935 233 840 139 b 458 388 547 139 458 235 z "},"&":{"ha":1238,"x_min":0,"x_max":0,"o":"m 72 329 b 519 -33 72 104 263 -33 b 926 107 686 -33 824 17 l 1079 -87 l 1175 -22 l 1006 193 b 1146 681 1097 317 1146 483 l 1022 681 b 929 290 1022 525 990 392 l 471 874 l 1029 874 l 1029 979 l 296 979 l 297 910 l 536 606 b 372 653 499 632 442 653 b 72 329 200 653 72 533 z m 196 338 b 421 564 196 483 286 564 b 679 422 529 564 599 526 l 857 196 b 522 72 774 117 663 72 b 196 338 326 72 196 174 z "},"¶":{"ha":926,"x_min":0,"x_max":0,"o":"m 525 329 l 525 -226 l 625 -226 l 625 979 l 525 979 b 114 654 232 979 114 858 b 525 329 114 449 232 329 z m 726 -226 l 826 -226 l 826 979 l 726 979 z "},"§":{"ha":901,"x_min":0,"x_max":0,"o":"m 454 -256 b 761 -28 658 -256 761 -165 b 636 156 761 60 718 121 b 814 360 760 175 814 265 b 611 575 814 481 718 540 l 424 635 b 278 767 313 671 278 701 b 451 897 278 864 356 897 b 657 711 585 897 657 835 l 781 711 b 456 989 781 856 694 989 b 153 765 260 989 153 900 b 281 579 153 685 192 619 b 100 376 157 557 100 476 b 294 163 100 258 189 196 l 493 99 b 636 -32 593 67 636 40 b 458 -164 636 -129 558 -164 b 250 25 324 -164 250 -100 l 124 25 b 454 -256 124 -121 207 -256 z m 225 396 b 444 524 225 497 308 567 l 572 483 b 690 342 647 460 690 414 b 471 213 690 244 615 167 l 349 251 b 225 396 272 276 225 321 z "},"©":{"ha":1539,"x_min":0,"x_max":0,"o":"m 769 -328 b 1447 351 1156 -328 1447 -35 b 769 1029 1447 738 1156 1029 b 92 351 383 1029 92 738 b 769 -328 92 -35 383 -328 z m 178 351 b 769 953 178 694 432 953 b 1361 351 1107 953 1361 694 b 769 -250 1361 8 1107 -250 b 178 351 432 -250 178 8 z m 422 346 b 776 -14 422 143 553 -14 b 1103 264 915 -14 1086 64 l 979 264 b 776 92 960 138 876 92 b 544 346 621 92 544 206 b 776 599 544 485 621 599 b 979 426 876 599 960 553 l 1103 426 b 776 704 1086 626 915 704 b 422 346 553 704 422 547 z "},"®":{"ha":915,"x_min":0,"x_max":0,"o":"m 458 371 b 801 713 675 371 801 524 b 458 1054 801 901 675 1054 b 114 713 240 1054 114 901 b 458 371 114 524 240 371 z m 186 713 b 458 990 186 863 282 990 b 729 713 633 990 729 863 b 458 435 729 563 633 435 b 186 713 282 435 186 563 z m 310 546 l 383 546 l 383 654 l 546 654 l 546 546 l 619 546 l 619 661 b 575 703 619 686 604 703 l 567 703 b 619 786 596 714 619 742 b 451 883 619 871 531 883 l 310 883 z m 383 722 l 383 817 l 464 817 b 546 769 519 817 546 808 b 464 722 546 729 519 722 z "},"™":{"ha":1240,"x_min":0,"x_max":0,"o":"m 114 979 l 114 904 l 263 904 l 263 515 l 349 515 l 349 904 l 494 904 l 494 979 z m 557 515 l 643 515 l 643 926 l 767 515 l 915 515 l 1036 925 l 1036 515 l 1124 515 l 1124 979 l 964 979 l 839 560 l 719 979 l 557 979 z "},"°":{"ha":664,"x_min":0,"x_max":0,"o":"m 332 401 b 622 690 507 401 622 532 b 332 979 622 849 507 979 b 42 690 158 979 42 849 b 332 401 42 532 158 401 z m 140 690 b 332 881 140 793 219 881 b 524 690 446 881 524 793 b 332 500 524 588 446 500 b 140 690 219 500 140 588 z "},"|":{"ha":328,"x_min":0,"x_max":0,"o":"m 114 1185 l 114 -206 l 214 -206 l 214 1185 z "},"¦":{"ha":328,"x_min":0,"x_max":0,"o":"m 114 671 l 214 671 l 214 1185 l 114 1185 z m 114 -206 l 214 -206 l 214 308 l 114 308 z "},"†":{"ha":776,"x_min":0,"x_max":0,"o":"m 339 1185 l 339 919 l 114 919 l 114 819 l 339 819 l 339 210 l 438 210 l 438 819 l 663 819 l 663 919 l 438 919 l 438 1185 z "},"‡":{"ha":776,"x_min":0,"x_max":0,"o":"m 114 575 l 114 475 l 339 475 l 339 210 l 438 210 l 438 475 l 663 475 l 663 575 l 438 575 l 438 819 l 663 819 l 663 919 l 438 919 l 438 1185 l 339 1185 l 339 919 l 114 919 l 114 819 l 339 819 l 339 575 z "},"¢":{"ha":819,"x_min":0,"x_max":0,"o":"m 69 492 b 368 136 69 307 178 160 l 368 -204 l 453 -206 l 453 133 b 750 410 585 143 735 224 l 629 410 b 453 236 611 296 540 244 l 451 746 b 629 572 540 738 611 688 l 750 572 b 451 849 735 758 585 839 l 451 1183 l 365 1185 l 365 846 b 69 492 178 822 69 675 z m 189 492 b 367 742 189 614 247 717 l 367 240 b 189 492 249 265 189 368 z "},"¤":{"ha":935,"x_min":0,"x_max":0,"o":"m 471 200 b 640 250 536 200 594 218 l 828 63 l 893 129 l 707 315 b 761 489 742 364 761 424 b 707 663 761 554 742 614 l 893 849 l 828 915 l 640 728 b 471 778 594 760 536 778 b 297 725 403 778 344 758 l 107 915 l 42 849 l 232 658 b 181 489 199 611 181 551 b 232 319 181 426 199 367 l 42 129 l 107 63 l 297 253 b 471 200 344 219 403 200 z m 279 489 b 471 679 279 592 358 679 b 663 489 583 679 663 592 b 471 299 663 386 583 299 b 279 489 358 299 279 386 z "},"$":{"ha":963,"x_min":0,"x_max":0,"o":"m 899 261 b 663 522 899 390 821 482 l 528 556 l 528 885 b 740 656 669 868 740 792 l 869 656 b 528 992 869 849 751 972 l 528 1185 l 442 1185 l 442 994 b 115 735 231 989 115 899 b 333 489 115 618 179 529 l 442 461 l 442 97 b 197 368 281 118 197 207 l 69 368 b 442 -11 69 146 197 13 l 442 -206 l 528 -206 l 528 -15 b 899 261 786 -14 899 88 z m 243 740 b 442 889 243 835 313 883 l 442 578 l 392 590 b 243 740 285 618 243 671 z m 528 92 l 528 439 l 607 418 b 771 254 721 389 771 331 b 528 92 771 146 696 92 z "},"€":{"ha":1135,"x_min":0,"x_max":0,"o":"m 239 490 b 240 447 239 476 239 461 l 121 447 l 121 361 l 249 361 b 649 -14 283 142 414 -14 b 1021 311 861 -14 990 115 l 900 311 b 649 92 879 174 797 92 b 371 361 482 92 397 193 l 697 361 l 697 447 l 363 447 l 361 490 b 363 531 361 504 361 518 l 697 531 l 697 617 l 369 617 b 649 888 396 786 482 888 b 899 669 797 888 879 807 l 1021 669 b 649 993 990 865 861 993 b 249 617 413 993 283 838 l 121 617 l 121 531 l 240 531 z "},"£":{"ha":869,"x_min":0,"x_max":0,"o":"m 114 156 l 114 0 l 811 0 l 811 106 l 168 106 b 438 372 306 144 438 208 b 426 451 438 399 433 425 l 700 451 l 700 521 l 401 521 b 322 753 368 601 322 678 b 539 874 322 858 386 874 l 811 874 l 811 979 l 518 979 b 200 776 358 979 200 964 b 281 521 200 685 247 603 l 114 521 l 114 451 l 304 451 b 313 383 310 429 313 407 b 114 156 313 272 240 199 z "},"¥":{"ha":947,"x_min":0,"x_max":0,"o":"m 758 979 l 474 453 l 189 979 l 56 979 l 351 446 l 174 446 l 174 360 l 411 360 l 411 290 l 174 290 l 174 204 l 411 204 l 411 0 l 536 0 l 536 204 l 774 204 l 774 290 l 536 290 l 536 360 l 774 360 l 774 446 l 597 446 l 893 979 z "},"+":{"ha":899,"x_min":0,"x_max":0,"o":"m 114 401 l 114 301 l 399 301 l 399 17 l 499 17 l 499 301 l 783 301 l 783 401 l 499 401 l 499 686 l 399 686 l 399 401 z "},"−":{"ha":899,"x_min":0,"x_max":0,"o":"m 114 401 l 114 301 l 783 301 l 783 401 z "},"×":{"ha":772,"x_min":0,"x_max":0,"o":"m 185 621 l 114 551 l 317 350 l 114 147 l 185 78 l 386 279 l 588 78 l 658 147 l 457 350 l 658 551 l 588 621 l 386 419 z "},"÷":{"ha":899,"x_min":0,"x_max":0,"o":"m 114 401 l 114 301 l 783 301 l 783 401 z m 331 92 b 449 -26 331 25 381 -26 b 568 92 515 -26 568 25 b 449 208 568 156 515 208 b 331 92 381 208 331 156 z m 331 608 b 449 490 331 543 381 490 b 568 608 515 490 568 543 b 449 725 568 674 515 725 b 331 608 381 725 331 674 z "},"=":{"ha":899,"x_min":0,"x_max":0,"o":"m 114 543 l 114 444 l 783 444 l 783 543 z m 114 160 l 783 160 l 783 260 l 114 260 z "},"≠":{"ha":899,"x_min":0,"x_max":0,"o":"m 114 543 l 114 444 l 450 444 l 343 260 l 114 260 l 114 160 l 285 160 l 193 0 l 272 -47 l 392 160 l 783 160 l 783 260 l 449 260 l 556 444 l 783 444 l 783 543 l 613 543 l 706 704 l 626 750 l 507 543 z "},">":{"ha":900,"x_min":0,"x_max":0,"o":"m 786 290 l 786 404 l 153 631 l 114 536 l 663 347 l 114 165 l 153 69 z "},"<":{"ha":900,"x_min":0,"x_max":0,"o":"m 114 401 l 114 288 l 747 61 l 786 156 l 238 344 l 786 526 l 747 622 z "},"≥":{"ha":900,"x_min":0,"x_max":0,"o":"m 786 428 l 786 542 l 153 768 l 114 674 l 663 485 l 114 303 l 153 207 z m 114 31 l 783 31 l 783 131 l 114 131 z "},"≤":{"ha":900,"x_min":0,"x_max":0,"o":"m 114 549 l 114 433 l 749 207 l 786 303 l 238 490 l 786 674 l 749 768 z m 114 32 l 783 32 l 783 131 l 114 131 z "},"±":{"ha":899,"x_min":0,"x_max":0,"o":"m 114 517 l 114 418 l 399 418 l 399 221 l 499 221 l 499 418 l 783 418 l 783 517 l 499 517 l 499 715 l 399 715 l 399 517 z m 114 32 l 783 32 l 783 131 l 114 131 z "},"≈":{"ha":894,"x_min":0,"x_max":0,"o":"m 114 399 l 214 399 b 289 499 214 482 251 499 b 613 389 388 499 479 389 b 781 588 694 389 781 444 l 681 588 b 606 488 681 504 643 488 b 281 599 507 488 414 599 b 114 399 200 599 114 542 z m 114 108 l 214 108 b 289 208 214 192 251 208 b 613 99 388 208 479 99 b 781 297 694 99 781 154 l 681 297 b 606 197 681 214 643 197 b 281 308 507 197 414 308 b 114 108 200 308 114 251 z "},"~":{"ha":894,"x_min":0,"x_max":0,"o":"m 114 257 l 214 257 b 289 357 214 340 251 357 b 613 247 388 357 479 247 b 781 446 694 247 781 303 l 681 446 b 606 346 681 363 643 346 b 281 457 507 346 414 457 b 114 257 200 457 114 400 z "},"¬":{"ha":825,"x_min":0,"x_max":0,"o":"m 114 508 l 114 410 l 685 410 l 685 175 l 783 175 l 783 508 z "},"^":{"ha":760,"x_min":0,"x_max":0,"o":"m 532 529 l 646 529 l 492 979 l 269 979 l 114 529 l 226 529 l 363 944 l 397 944 z "},"∅":{"ha":1364,"x_min":0,"x_max":0,"o":"m 682 -178 b 1250 390 1022 -178 1250 76 b 1013 861 1250 586 1161 758 l 1093 1001 l 1006 1051 l 924 910 b 682 958 853 940 771 958 b 114 390 342 958 114 704 b 351 -81 114 194 203 22 l 271 -221 l 358 -271 l 440 -129 b 682 -178 511 -160 593 -178 z m 214 390 b 682 863 214 646 404 863 b 874 824 753 863 817 849 l 403 7 b 214 390 285 93 214 235 z m 490 -43 l 961 774 b 1150 390 1079 688 1150 546 b 682 -82 1150 135 960 -82 b 490 -43 611 -82 547 -68 z "},"∞":{"ha":1419,"x_min":0,"x_max":0,"o":"m 114 417 b 393 144 114 254 233 144 b 710 344 551 144 638 253 b 1026 144 782 253 868 144 b 1306 417 1186 144 1306 254 b 1026 689 1306 579 1186 689 b 710 489 868 689 782 581 b 393 689 638 581 551 689 b 114 417 233 689 114 579 z m 224 417 b 403 590 224 522 293 590 b 654 417 515 590 581 513 b 403 243 581 321 515 243 b 224 417 293 243 224 311 z m 765 417 b 1017 590 839 513 904 590 b 1196 417 1126 590 1196 522 b 1017 243 1196 311 1126 243 b 765 417 904 243 839 321 z "},"∫":{"ha":956,"x_min":0,"x_max":0,"o":"m 114 -250 l 324 -250 b 419 -174 375 -250 408 -224 l 651 881 l 842 881 l 842 979 l 646 979 b 550 903 593 979 561 953 l 318 -151 l 114 -151 z "},"∏":{"ha":1064,"x_min":0,"x_max":0,"o":"m 114 979 l 114 881 l 299 881 l 299 -250 l 410 -250 l 410 881 l 654 881 l 654 -250 l 767 -250 l 767 881 l 950 881 l 950 979 z "},"∑":{"ha":835,"x_min":0,"x_max":0,"o":"m 114 -250 l 721 -250 l 721 -150 l 199 -150 l 636 315 l 636 415 l 199 881 l 721 881 l 721 979 l 114 979 l 114 829 l 533 365 l 114 -100 z "},"√":{"ha":1119,"x_min":0,"x_max":0,"o":"m 651 904 l 372 -215 l 336 -215 l 210 285 l 114 285 l 251 -250 l 457 -250 l 742 886 l 1004 886 l 1004 979 l 747 979 b 651 904 694 979 664 956 z "},"∂":{"ha":900,"x_min":0,"x_max":0,"o":"m 443 -14 b 832 443 678 -14 832 157 b 207 1035 832 792 564 993 l 207 929 b 740 511 494 888 714 749 l 740 506 b 432 704 692 629 583 704 b 69 350 211 704 69 553 b 443 -14 69 139 201 -14 z m 192 350 b 451 599 192 500 288 599 b 704 350 608 599 704 501 b 444 92 704 214 607 92 b 192 350 283 92 192 188 z "},"%":{"ha":1574,"x_min":0,"x_max":0,"o":"m 332 401 b 622 690 507 401 622 532 b 332 979 622 849 507 979 b 42 690 158 979 42 849 b 332 401 42 532 158 401 z m 140 690 b 332 881 140 793 219 881 b 524 690 446 881 524 793 b 332 500 524 588 446 500 b 140 690 219 500 140 588 z m 496 25 l 583 -17 l 1079 944 l 990 986 z m 951 278 b 1242 -11 951 119 1068 -11 b 1532 278 1417 -11 1532 119 b 1242 567 1532 436 1417 567 b 951 278 1068 567 951 436 z m 1050 278 b 1242 468 1050 381 1129 468 b 1433 278 1356 468 1433 381 b 1242 88 1433 175 1356 88 b 1050 278 1129 88 1050 175 z "},"‰":{"ha":2238,"x_min":0,"x_max":0,"o":"m 332 401 b 622 690 507 401 622 532 b 332 979 622 849 507 979 b 42 690 158 979 42 849 b 332 401 42 532 158 401 z m 140 690 b 332 881 140 793 219 881 b 524 690 446 881 524 793 b 332 500 524 588 446 500 b 140 690 219 500 140 588 z m 496 25 l 583 -17 l 1079 944 l 990 986 z m 951 278 b 1242 -11 951 119 1068 -11 b 1532 278 1417 -11 1532 119 b 1242 567 1532 436 1417 567 b 951 278 1068 567 951 436 z m 1050 278 b 1242 468 1050 381 1129 468 b 1433 278 1356 468 1433 381 b 1242 88 1433 175 1356 88 b 1050 278 1129 88 1050 175 z m 1615 278 b 1906 -11 1615 119 1732 -11 b 2196 278 2081 -11 2196 119 b 1906 567 2196 436 2081 567 b 1615 278 1732 567 1615 436 z m 1714 278 b 1906 468 1714 381 1793 468 b 2097 278 2019 468 2097 381 b 1906 88 2097 175 2019 88 b 1714 278 1793 88 1714 175 z "},"↑":{"ha":1004,"x_min":0,"x_max":0,"o":"m 449 -64 l 553 -64 l 553 560 l 821 290 l 890 368 l 503 758 l 114 368 l 183 290 l 449 556 z "},"↗":{"ha":1004,"x_min":0,"x_max":0,"o":"m 174 93 l 247 19 l 689 461 l 688 81 l 792 86 l 793 636 l 243 635 l 236 531 l 611 531 z "},"→":{"ha":1050,"x_min":0,"x_max":0,"o":"m 114 397 l 114 293 l 738 293 l 468 25 l 546 -44 l 936 343 l 546 732 l 468 663 l 733 397 z "},"↘":{"ha":1004,"x_min":0,"x_max":0,"o":"m 257 638 l 183 564 l 624 122 l 244 124 l 250 19 l 800 18 l 799 568 l 694 574 l 694 199 z "},"↓":{"ha":1004,"x_min":0,"x_max":0,"o":"m 449 757 l 449 138 l 183 403 l 114 325 l 503 -65 l 890 325 l 821 403 l 553 133 l 553 757 z "},"↙":{"ha":1004,"x_min":0,"x_max":0,"o":"m 793 563 l 719 636 l 279 196 l 279 575 l 175 569 l 174 19 l 725 21 l 731 125 l 356 125 z "},"←":{"ha":1050,"x_min":0,"x_max":0,"o":"m 936 397 l 317 397 l 582 663 l 504 732 l 114 343 l 504 -44 l 582 25 l 313 293 l 936 293 z "},"↖":{"ha":1004,"x_min":0,"x_max":0,"o":"m 726 18 l 800 92 l 360 532 l 739 531 l 733 635 l 183 638 l 183 86 l 288 81 l 288 456 z "},"↔":{"ha":1615,"x_min":0,"x_max":0,"o":"m 679 626 l 679 522 l 1303 522 l 1033 254 l 1111 185 l 1501 572 l 1111 961 l 1033 892 l 1299 626 z m 114 343 l 504 -44 l 582 25 l 313 293 l 936 293 l 936 397 l 317 397 l 582 663 l 504 732 z "},"↕":{"ha":1213,"x_min":0,"x_max":0,"o":"m 435 204 l 539 204 l 539 828 l 807 558 l 876 636 l 489 1026 l 100 636 l 169 558 l 435 824 z m 336 32 l 725 -358 l 1113 32 l 1043 110 l 775 -160 l 775 464 l 671 464 l 671 -156 l 406 110 z "},"●":{"ha":1539,"x_min":0,"x_max":0,"o":"m 769 -328 b 1447 351 1156 -328 1447 -35 b 769 1029 1447 738 1156 1029 b 92 351 383 1029 92 738 b 769 -328 92 -35 383 -328 z "},"○":{"ha":1539,"x_min":0,"x_max":0,"o":"m 769 -328 b 1447 351 1156 -328 1447 -35 b 769 1029 1447 738 1156 1029 b 92 351 383 1029 92 738 b 769 -328 92 -35 383 -328 z m 178 351 b 769 953 178 694 432 953 b 1361 351 1107 953 1361 694 b 769 -250 1361 8 1107 -250 b 178 351 432 -250 178 8 z "},"◊":{"ha":760,"x_min":0,"x_max":0,"o":"m 269 39 l 492 39 l 646 489 l 492 939 l 269 939 l 114 489 z m 228 489 l 363 904 l 397 904 l 531 489 l 397 74 l 363 74 z "},"̈":{"ha":0,"x_min":0,"x_max":0,"o":"m 214 799 b 317 896 272 799 317 840 b 214 993 317 951 272 993 b 114 896 157 993 114 951 b 214 799 114 840 157 799 z m 400 896 b 501 799 400 840 443 799 b 604 896 558 799 604 840 b 501 993 604 951 558 993 b 400 896 443 993 400 951 z "},"̇":{"ha":0,"x_min":0,"x_max":0,"o":"m 214 808 b 314 901 269 808 314 847 b 214 994 314 956 269 994 b 117 901 160 994 117 956 b 214 808 117 847 160 808 z "},"̀":{"ha":0,"x_min":0,"x_max":0,"o":"m 574 894 l 138 1006 l 114 911 l 550 800 z "},"́":{"ha":0,"x_min":0,"x_max":0,"o":"m 138 800 l 574 911 l 550 1006 l 114 894 z "},"̋":{"ha":0,"x_min":0,"x_max":0,"o":"m 354 847 l 422 781 l 628 975 l 558 1043 z m 114 847 l 183 781 l 389 975 l 319 1043 z "},"̂":{"ha":0,"x_min":0,"x_max":0,"o":"m 576 846 l 346 1031 l 114 846 l 185 776 l 346 907 l 506 776 z "},"̌":{"ha":0,"x_min":0,"x_max":0,"o":"m 114 964 l 346 779 l 576 964 l 506 1032 l 346 901 l 185 1032 z "},"̆":{"ha":0,"x_min":0,"x_max":0,"o":"m 335 781 b 556 1024 475 781 556 882 l 456 1024 b 335 876 456 921 421 876 b 214 1024 249 876 214 921 l 114 1024 b 335 781 114 882 194 781 z "},"̊":{"ha":0,"x_min":0,"x_max":0,"o":"m 282 776 b 453 929 390 776 453 847 b 282 1081 453 1011 390 1081 b 114 929 174 1081 114 1011 b 282 776 114 846 174 776 z m 210 929 b 282 992 210 968 236 992 b 357 929 329 992 357 968 b 282 864 357 889 331 864 b 210 929 236 864 210 889 z "},"̃":{"ha":0,"x_min":0,"x_max":0,"o":"m 114 819 l 214 819 b 269 917 214 903 239 917 b 482 806 331 917 365 806 b 629 1001 568 806 629 861 l 531 1001 b 474 904 531 918 504 904 b 261 1015 413 904 379 1015 b 114 819 175 1015 114 960 z "},"̄":{"ha":0,"x_min":0,"x_max":0,"o":"m 114 954 l 114 854 l 575 856 l 575 954 z "},"̒":{"ha":0,"x_min":0,"x_max":0,"o":"m 188 1082 l 114 825 l 221 797 l 294 1053 z "},"̦":{"ha":0,"x_min":0,"x_max":0,"o":"m 161 -68 l 86 -299 l 192 -328 l 267 -99 z "},"̧":{"ha":0,"x_min":0,"x_max":0,"o":"m 114 -171 l 114 -260 b 413 -136 290 -260 413 -247 b 319 -58 413 -79 367 -58 b 224 -79 282 -58 250 -68 l 301 0 l 192 0 l 133 -74 l 185 -136 b 282 -100 235 -106 257 -100 b 314 -128 301 -100 314 -110 b 114 -171 314 -172 242 -171 z "},"̨":{"ha":0,"x_min":0,"x_max":0,"o":"m 479 -168 l 228 -169 l 314 1 l 211 1 l 132 -147 b 207 -268 94 -212 132 -268 l 479 -268 z "},"̵":{"ha":0,"x_min":0,"x_max":0,"o":"m 72 942 l 72 842 l 472 842 l 472 942 z "},"̷":{"ha":0,"x_min":0,"x_max":0,"o":"m 65 490 l 89 396 l 563 524 l 538 619 z "},"̸":{"ha":0,"x_min":0,"x_max":0,"o":"m 825 1064 l 189 -39 l 267 -86 l 906 1017 z "},"¨":{"ha":718,"x_min":0,"x_max":0,"o":"m 214 799 b 317 896 272 799 317 840 b 214 993 317 951 272 993 b 114 896 157 993 114 951 b 214 799 114 840 157 799 z m 400 896 b 501 799 400 840 443 799 b 604 896 558 799 604 840 b 501 993 604 951 558 993 b 400 896 443 993 400 951 z "},"˙":{"ha":438,"x_min":0,"x_max":0,"o":"m 214 808 b 314 901 269 808 314 847 b 214 994 314 956 269 994 b 117 901 160 994 117 956 b 214 808 117 847 160 808 z "},"`":{"ha":688,"x_min":0,"x_max":0,"o":"m 574 894 l 138 1006 l 114 911 l 550 800 z "},"´":{"ha":688,"x_min":0,"x_max":0,"o":"m 138 800 l 574 911 l 550 1006 l 114 894 z "},"˝":{"ha":742,"x_min":0,"x_max":0,"o":"m 354 847 l 422 781 l 628 975 l 558 1043 z m 114 847 l 183 781 l 389 975 l 319 1043 z "},"ˆ":{"ha":692,"x_min":0,"x_max":0,"o":"m 576 846 l 346 1031 l 114 846 l 185 776 l 346 907 l 506 776 z "},"ˇ":{"ha":692,"x_min":0,"x_max":0,"o":"m 114 964 l 346 779 l 576 964 l 506 1032 l 346 901 l 185 1032 z "},"˘":{"ha":669,"x_min":0,"x_max":0,"o":"m 335 781 b 556 1024 475 781 556 882 l 456 1024 b 335 876 456 921 421 876 b 214 1024 249 876 214 921 l 114 1024 b 335 781 114 882 194 781 z "},"˚":{"ha":528,"x_min":0,"x_max":0,"o":"m 282 776 b 453 929 390 776 453 847 b 282 1081 453 1011 390 1081 b 114 929 174 1081 114 1011 b 282 776 114 846 174 776 z m 210 929 b 282 992 210 968 236 992 b 357 929 329 992 357 968 b 282 864 357 889 331 864 b 210 929 236 864 210 889 z "},"˜":{"ha":743,"x_min":0,"x_max":0,"o":"m 114 819 l 214 819 b 269 917 214 903 239 917 b 482 806 331 917 365 806 b 629 1001 568 806 629 861 l 531 1001 b 474 904 531 918 504 904 b 261 1015 413 904 379 1015 b 114 819 175 1015 114 960 z "},"¯":{"ha":689,"x_min":0,"x_max":0,"o":"m 114 954 l 114 854 l 575 856 l 575 954 z "},"¸":{"ha":526,"x_min":0,"x_max":0,"o":"m 114 -171 l 114 -260 b 413 -136 290 -260 413 -247 b 319 -58 413 -79 367 -58 b 224 -79 282 -58 250 -68 l 301 0 l 192 0 l 133 -74 l 185 -136 b 282 -100 235 -106 257 -100 b 314 -128 301 -100 314 -110 b 114 -171 314 -172 242 -171 z "},"˛":{"ha":593,"x_min":0,"x_max":0,"o":"m 479 -168 l 228 -169 l 314 1 l 211 1 l 132 -147 b 207 -268 94 -212 132 -268 l 479 -268 z "}}}
